<?xml version="1.0" encoding="UTF-8" standalone="no"?><!DOCTYPE svg PUBLIC "-//W3C//DTD SVG 1.1//EN" "http://www.w3.org/Graphics/SVG/1.1/DTD/svg11.dtd"><svg width="100%" height="100%" viewBox="0 0 600 400" version="1.1" xmlns="http://www.w3.org/2000/svg" xmlns:xlink="http://www.w3.org/1999/xlink" xml:space="preserve" xmlns:serif="http://www.serif.com/" style="fill-rule:evenodd;clip-rule:evenodd;stroke-miterlimit:10;"><g><g><clipPath id="_clip1"><rect x="70" y="10" width="460" height="380"/></clipPath><g clip-path="url(#_clip1)"><path d="M226.06,246.136c-26.189,42.201 -52.409,84.388 -78.512,126.651c-3.156,5.109 -7.015,7.397 -13.241,7.235c-8.828,-0.232 -17.717,0.371 -26.521,1.182c-3.603,0.332 -7.176,1.902 -10.579,3.331c-6.728,2.829 -10.517,2.08 -15.301,-3.54c-11.019,-12.946 -10.81,-37.432 1.25,-50.85c6.319,-7.034 13.735,-13.186 21.219,-18.999c3.141,-2.442 7.67,-3.478 11.737,-4.235c5.818,-1.09 10.478,-3.525 14.483,-7.954c20.749,-22.963 35.016,-50.155 49.985,-76.851c18.18,-32.425 35.966,-65.081 53.913,-97.636c7.462,-13.534 11.173,-28.428 15.633,-43.06c5.247,-17.221 10.61,-34.403 15.927,-51.6c0.154,-0.495 0.27,-0.997 0.439,-1.484c5.51,-15.93 20.471,-19.408 31.783,-6.84c26.019,28.915 51.22,58.557 72.147,91.467c15.725,24.734 37.338,41.074 65.34,49.081c11.142,3.184 19.568,9.7 25.965,19.362c18.681,28.227 37.501,56.361 56.405,84.442c5.355,7.953 8.141,16.432 7.994,26.086c-0.262,18.04 -0.185,36.08 -0.231,54.12c-0.039,15.42 -10.286,24.525 -25.61,23.234c-9.082,-0.765 -18.218,-0.804 -27.331,-1.214c-12.415,-0.564 -20.61,-6.276 -24.144,-18.016c-13.758,-45.672 -27.361,-91.391 -40.749,-137.179c-2.484,-8.487 -4.653,-16.88 -11.227,-23.28c-8.58,-8.34 -19.368,-11.355 -30.803,-12.522c-11.844,-1.213 -23.264,1.082 -34.491,4.731c-10.263,3.331 -10.525,2.921 -12.215,-7.505c-0.988,-6.137 0.417,-11.339 3.604,-16.487c6.088,-9.847 12.129,-19.733 17.77,-29.842c5.455,-9.793 2.052,-21.032 -7.207,-25.422c-8.673,-4.112 -17.223,-1.569 -22.608,7.018c-10.186,16.239 -20.232,32.579 -30.348,48.864c-14.591,23.505 -29.136,47.041 -43.882,70.452c-1.613,2.551 -7.361,12.05 -10.594,17.26Z" style="fill:none;fill-rule:nonzero;stroke:#febd02;stroke-width:9px;"/><path d="M466,160c2.761,0 5,-2.239 5,-5c0,-2.761 -2.239,-5 -5,-5c-2.761,0 -5,2.239 -5,5c0,2.761 2.239,5 5,5Z" style="fill:#fff;fill-rule:nonzero;"/><path d="M432.763,142.915l0,-0.891c0.272,0 0.492,-0.018 0.66,-0.055c0.169,-0.037 0.297,-0.103 0.385,-0.198c0.096,-0.095 0.162,-0.231 0.198,-0.407c0.037,-0.183 0.055,-0.414 0.055,-0.693l0,-6.875l1.232,0l0,6.897c0,0.513 -0.055,0.935 -0.165,1.265c-0.11,0.323 -0.304,0.565 -0.583,0.726c-0.278,0.154 -0.674,0.231 -1.188,0.231l-0.594,0Zm3.991,-0.209l0,-8.91l1.221,0l0,8.91l-1.221,0Zm2.64,0l0.165,-8.91l1.221,0l1.573,7.227l1.584,-7.227l1.21,0l0.165,8.91l-1.001,0l-0.099,-6.468l-1.507,6.468l-0.704,0l-1.496,-6.468l-0.099,6.468l-1.012,0Zm12.031,0.099c-0.631,0 -1.122,-0.132 -1.474,-0.396c-0.345,-0.264 -0.587,-0.62 -0.726,-1.067c-0.132,-0.447 -0.198,-0.946 -0.198,-1.496l0,-3.146c0,-0.601 0.066,-1.126 0.198,-1.573c0.139,-0.447 0.381,-0.792 0.726,-1.034c0.352,-0.249 0.843,-0.374 1.474,-0.374c0.557,0 0.997,0.103 1.32,0.308c0.33,0.205 0.564,0.499 0.704,0.88c0.146,0.381 0.22,0.84 0.22,1.375l0,0.704l-1.177,0l0,-0.627c0,-0.33 -0.019,-0.62 -0.055,-0.869c-0.03,-0.257 -0.118,-0.455 -0.264,-0.594c-0.147,-0.139 -0.393,-0.209 -0.737,-0.209c-0.352,0 -0.609,0.077 -0.77,0.231c-0.162,0.147 -0.268,0.359 -0.319,0.638c-0.044,0.271 -0.066,0.59 -0.066,0.957l0,3.531c0,0.447 0.036,0.803 0.11,1.067c0.073,0.257 0.194,0.44 0.363,0.55c0.168,0.11 0.396,0.165 0.682,0.165c0.337,0 0.579,-0.073 0.726,-0.22c0.146,-0.154 0.238,-0.363 0.275,-0.627c0.036,-0.264 0.055,-0.572 0.055,-0.924l0,-0.66l1.177,0l0,0.66c0,0.543 -0.066,1.023 -0.198,1.441c-0.132,0.411 -0.36,0.733 -0.682,0.968c-0.323,0.227 -0.778,0.341 -1.364,0.341Zm3.428,-0.099l0,-8.91l1.243,0l0,8.019l2.277,0l0,0.891l-3.52,0Zm3.888,0l1.892,-8.91l1.199,0l1.903,8.91l-1.177,0l-0.407,-2.244l-1.815,0l-0.429,2.244l-1.166,0Zm1.76,-3.135l1.485,0l-0.748,-4.015l-0.737,4.015Zm4.138,3.135l0,-8.91l1.793,0c0.594,0 1.085,0.081 1.474,0.242c0.389,0.154 0.675,0.407 0.858,0.759c0.191,0.345 0.286,0.799 0.286,1.364c0,0.345 -0.037,0.66 -0.11,0.946c-0.073,0.279 -0.191,0.517 -0.352,0.715c-0.161,0.191 -0.374,0.33 -0.638,0.418l1.265,4.466l-1.199,0l-1.166,-4.18l-0.968,0l0,4.18l-1.243,0Zm1.243,-5.071l0.473,0c0.352,0 0.638,-0.044 0.858,-0.132c0.22,-0.088 0.381,-0.238 0.484,-0.451c0.103,-0.213 0.154,-0.51 0.154,-0.891c0,-0.521 -0.095,-0.895 -0.286,-1.122c-0.191,-0.235 -0.568,-0.352 -1.133,-0.352l-0.55,0l0,2.948Zm4.461,5.071l0,-8.91l1.243,0l0,4.202l2.046,-4.202l1.155,0l-1.76,3.927l2.046,4.983l-1.21,0l-1.705,-4.18l-0.572,1.034l0,3.146l-1.243,0Zm7.96,0l0,-8.91l3.454,0l0,0.924l-2.211,0l0,2.948l1.793,0l0,0.88l-1.793,0l0,3.267l2.233,0l0,0.891l-3.476,0Zm6.581,0.099c-0.514,0 -0.943,-0.11 -1.287,-0.33c-0.338,-0.22 -0.594,-0.524 -0.77,-0.913c-0.176,-0.389 -0.279,-0.84 -0.308,-1.353l1.1,-0.297c0.022,0.315 0.069,0.62 0.143,0.913c0.08,0.293 0.209,0.535 0.385,0.726c0.176,0.183 0.421,0.275 0.737,0.275c0.322,0 0.564,-0.088 0.726,-0.264c0.168,-0.183 0.253,-0.444 0.253,-0.781c0,-0.403 -0.092,-0.726 -0.275,-0.968c-0.184,-0.249 -0.415,-0.499 -0.693,-0.748l-1.496,-1.32c-0.294,-0.257 -0.51,-0.535 -0.649,-0.836c-0.14,-0.308 -0.209,-0.686 -0.209,-1.133c0,-0.653 0.187,-1.159 0.561,-1.518c0.374,-0.359 0.883,-0.539 1.529,-0.539c0.352,0 0.66,0.048 0.924,0.143c0.271,0.088 0.495,0.227 0.671,0.418c0.183,0.191 0.326,0.433 0.429,0.726c0.11,0.286 0.183,0.623 0.22,1.012l-1.056,0.286c-0.022,-0.293 -0.066,-0.561 -0.132,-0.803c-0.066,-0.249 -0.184,-0.447 -0.352,-0.594c-0.162,-0.154 -0.396,-0.231 -0.704,-0.231c-0.308,0 -0.55,0.084 -0.726,0.253c-0.169,0.161 -0.253,0.403 -0.253,0.726c0,0.271 0.044,0.495 0.132,0.671c0.095,0.176 0.245,0.356 0.451,0.539l1.507,1.32c0.337,0.293 0.634,0.645 0.891,1.056c0.256,0.403 0.385,0.884 0.385,1.441c0,0.44 -0.092,0.821 -0.275,1.144c-0.184,0.315 -0.437,0.557 -0.759,0.726c-0.316,0.169 -0.682,0.253 -1.1,0.253Zm5.199,0c-0.514,0 -0.943,-0.11 -1.287,-0.33c-0.338,-0.22 -0.594,-0.524 -0.77,-0.913c-0.176,-0.389 -0.279,-0.84 -0.308,-1.353l1.1,-0.297c0.022,0.315 0.069,0.62 0.143,0.913c0.08,0.293 0.209,0.535 0.385,0.726c0.176,0.183 0.421,0.275 0.737,0.275c0.322,0 0.564,-0.088 0.726,-0.264c0.168,-0.183 0.253,-0.444 0.253,-0.781c0,-0.403 -0.092,-0.726 -0.275,-0.968c-0.184,-0.249 -0.415,-0.499 -0.693,-0.748l-1.496,-1.32c-0.294,-0.257 -0.51,-0.535 -0.649,-0.836c-0.14,-0.308 -0.209,-0.686 -0.209,-1.133c0,-0.653 0.187,-1.159 0.561,-1.518c0.374,-0.359 0.883,-0.539 1.529,-0.539c0.352,0 0.66,0.048 0.924,0.143c0.271,0.088 0.495,0.227 0.671,0.418c0.183,0.191 0.326,0.433 0.429,0.726c0.11,0.286 0.183,0.623 0.22,1.012l-1.056,0.286c-0.022,-0.293 -0.066,-0.561 -0.132,-0.803c-0.066,-0.249 -0.184,-0.447 -0.352,-0.594c-0.162,-0.154 -0.396,-0.231 -0.704,-0.231c-0.308,0 -0.55,0.084 -0.726,0.253c-0.169,0.161 -0.253,0.403 -0.253,0.726c0,0.271 0.044,0.495 0.132,0.671c0.095,0.176 0.245,0.356 0.451,0.539l1.507,1.32c0.337,0.293 0.634,0.645 0.891,1.056c0.256,0.403 0.385,0.884 0.385,1.441c0,0.44 -0.092,0.821 -0.275,1.144c-0.184,0.315 -0.437,0.557 -0.759,0.726c-0.316,0.169 -0.682,0.253 -1.1,0.253Zm3.098,-0.099l0,-8.91l3.454,0l0,0.924l-2.211,0l0,2.948l1.793,0l0,0.88l-1.793,0l0,3.267l2.233,0l0,0.891l-3.476,0Zm6.581,0.099c-0.514,0 -0.943,-0.11 -1.287,-0.33c-0.338,-0.22 -0.594,-0.524 -0.77,-0.913c-0.176,-0.389 -0.279,-0.84 -0.308,-1.353l1.1,-0.297c0.022,0.315 0.069,0.62 0.143,0.913c0.08,0.293 0.209,0.535 0.385,0.726c0.176,0.183 0.421,0.275 0.737,0.275c0.322,0 0.564,-0.088 0.726,-0.264c0.168,-0.183 0.253,-0.444 0.253,-0.781c0,-0.403 -0.092,-0.726 -0.275,-0.968c-0.184,-0.249 -0.415,-0.499 -0.693,-0.748l-1.496,-1.32c-0.294,-0.257 -0.51,-0.535 -0.649,-0.836c-0.14,-0.308 -0.209,-0.686 -0.209,-1.133c0,-0.653 0.187,-1.159 0.561,-1.518c0.374,-0.359 0.883,-0.539 1.529,-0.539c0.352,0 0.66,0.048 0.924,0.143c0.271,0.088 0.495,0.227 0.671,0.418c0.183,0.191 0.326,0.433 0.429,0.726c0.11,0.286 0.183,0.623 0.22,1.012l-1.056,0.286c-0.022,-0.293 -0.066,-0.561 -0.132,-0.803c-0.066,-0.249 -0.184,-0.447 -0.352,-0.594c-0.162,-0.154 -0.396,-0.231 -0.704,-0.231c-0.308,0 -0.55,0.084 -0.726,0.253c-0.169,0.161 -0.253,0.403 -0.253,0.726c0,0.271 0.044,0.495 0.132,0.671c0.095,0.176 0.245,0.356 0.451,0.539l1.507,1.32c0.337,0.293 0.634,0.645 0.891,1.056c0.256,0.403 0.385,0.884 0.385,1.441c0,0.44 -0.092,0.821 -0.275,1.144c-0.184,0.315 -0.437,0.557 -0.759,0.726c-0.316,0.169 -0.682,0.253 -1.1,0.253Z" style="fill:#fff;fill-rule:nonzero;"/><path d="M424,366c2.761,0 5,-2.239 5,-5c0,-2.761 -2.239,-5 -5,-5c-2.761,0 -5,2.239 -5,5c0,2.761 2.239,5 5,5Z" style="fill:#fff;fill-rule:nonzero;"/><path d="M402.794,382.099c-0.513,0 -0.942,-0.11 -1.287,-0.33c-0.337,-0.22 -0.594,-0.524 -0.77,-0.913c-0.176,-0.389 -0.279,-0.84 -0.308,-1.353l1.1,-0.297c0.022,0.315 0.07,0.62 0.143,0.913c0.081,0.293 0.209,0.535 0.385,0.726c0.176,0.183 0.422,0.275 0.737,0.275c0.323,0 0.565,-0.088 0.726,-0.264c0.169,-0.183 0.253,-0.444 0.253,-0.781c0,-0.403 -0.092,-0.726 -0.275,-0.968c-0.183,-0.249 -0.414,-0.499 -0.693,-0.748l-1.496,-1.32c-0.293,-0.257 -0.51,-0.535 -0.649,-0.836c-0.139,-0.308 -0.209,-0.686 -0.209,-1.133c0,-0.653 0.187,-1.159 0.561,-1.518c0.374,-0.359 0.884,-0.539 1.529,-0.539c0.352,0 0.66,0.048 0.924,0.143c0.271,0.088 0.495,0.227 0.671,0.418c0.183,0.191 0.326,0.433 0.429,0.726c0.11,0.286 0.183,0.623 0.22,1.012l-1.056,0.286c-0.022,-0.293 -0.066,-0.561 -0.132,-0.803c-0.066,-0.249 -0.183,-0.447 -0.352,-0.594c-0.161,-0.154 -0.396,-0.231 -0.704,-0.231c-0.308,0 -0.55,0.084 -0.726,0.253c-0.169,0.161 -0.253,0.403 -0.253,0.726c0,0.271 0.044,0.495 0.132,0.671c0.095,0.176 0.246,0.356 0.451,0.539l1.507,1.32c0.337,0.293 0.634,0.645 0.891,1.056c0.257,0.403 0.385,0.884 0.385,1.441c0,0.44 -0.092,0.821 -0.275,1.144c-0.183,0.315 -0.436,0.557 -0.759,0.726c-0.315,0.169 -0.682,0.253 -1.1,0.253Zm5.397,0c-0.645,0 -1.14,-0.128 -1.485,-0.385c-0.344,-0.257 -0.579,-0.616 -0.704,-1.078c-0.124,-0.469 -0.187,-1.016 -0.187,-1.639l0,-5.907l1.188,0l0,5.962c0,0.381 0.026,0.73 0.077,1.045c0.052,0.315 0.162,0.565 0.33,0.748c0.176,0.183 0.437,0.275 0.781,0.275c0.352,0 0.613,-0.092 0.781,-0.275c0.169,-0.183 0.279,-0.433 0.33,-0.748c0.052,-0.315 0.077,-0.664 0.077,-1.045l0,-5.962l1.177,0l0,5.907c0,0.623 -0.062,1.17 -0.187,1.639c-0.124,0.462 -0.359,0.821 -0.704,1.078c-0.337,0.257 -0.828,0.385 -1.474,0.385Zm3.674,-0.099l0,-8.91l0.847,0l2.53,5.918l0,-5.918l1.034,0l0,8.91l-0.792,0l-2.563,-6.083l0,6.083l-1.056,0Zm5.811,0l0,-8.91l0.847,0l2.53,5.918l0,-5.918l1.034,0l0,8.91l-0.792,0l-2.563,-6.083l0,6.083l-1.056,0Zm7.176,0l0,-3.146l-1.925,-5.764l1.155,0l1.364,4.301l1.342,-4.301l1.166,0l-1.914,5.764l0,3.146l-1.188,0Zm8.722,0.099c-0.601,0 -1.081,-0.117 -1.441,-0.352c-0.359,-0.235 -0.616,-0.568 -0.77,-1.001c-0.154,-0.44 -0.231,-0.953 -0.231,-1.54l0,-3.377c0,-0.587 0.077,-1.089 0.231,-1.507c0.162,-0.425 0.418,-0.748 0.77,-0.968c0.36,-0.227 0.84,-0.341 1.441,-0.341c0.602,0 1.078,0.114 1.43,0.341c0.352,0.227 0.605,0.55 0.759,0.968c0.162,0.418 0.242,0.92 0.242,1.507l0,3.388c0,0.579 -0.08,1.085 -0.242,1.518c-0.154,0.433 -0.407,0.77 -0.759,1.012c-0.352,0.235 -0.828,0.352 -1.43,0.352Zm0,-0.979c0.33,0 0.58,-0.066 0.748,-0.198c0.169,-0.139 0.283,-0.33 0.341,-0.572c0.059,-0.249 0.088,-0.539 0.088,-0.869l0,-3.905c0,-0.33 -0.029,-0.612 -0.088,-0.847c-0.058,-0.242 -0.172,-0.425 -0.341,-0.55c-0.168,-0.132 -0.418,-0.198 -0.748,-0.198c-0.33,0 -0.583,0.066 -0.759,0.198c-0.168,0.125 -0.282,0.308 -0.341,0.55c-0.058,0.235 -0.088,0.517 -0.088,0.847l0,3.905c0,0.33 0.03,0.62 0.088,0.869c0.059,0.242 0.173,0.433 0.341,0.572c0.176,0.132 0.429,0.198 0.759,0.198Zm5.952,0.979c-0.645,0 -1.14,-0.128 -1.485,-0.385c-0.344,-0.257 -0.579,-0.616 -0.704,-1.078c-0.124,-0.469 -0.187,-1.016 -0.187,-1.639l0,-5.907l1.188,0l0,5.962c0,0.381 0.026,0.73 0.077,1.045c0.052,0.315 0.162,0.565 0.33,0.748c0.176,0.183 0.437,0.275 0.781,0.275c0.352,0 0.613,-0.092 0.781,-0.275c0.169,-0.183 0.279,-0.433 0.33,-0.748c0.052,-0.315 0.077,-0.664 0.077,-1.045l0,-5.962l1.177,0l0,5.907c0,0.623 -0.062,1.17 -0.187,1.639c-0.124,0.462 -0.359,0.821 -0.704,1.078c-0.337,0.257 -0.828,0.385 -1.474,0.385Zm4.653,-0.099l0,-7.986l-1.507,0l0,-0.924l4.213,0l0,0.924l-1.463,0l0,7.986l-1.243,0Z" style="fill:#fff;fill-rule:nonzero;"/></g></g><path d="M317,91c2.761,0 5,-2.239 5,-5c0,-2.761 -2.239,-5 -5,-5c-2.761,0 -5,2.239 -5,5c0,2.761 2.239,5 5,5Z" style="fill:#fff;fill-rule:nonzero;"/><path d="M554,363c2.761,0 5,-2.239 5,-5c0,-2.761 -2.239,-5 -5,-5c-2.761,0 -5,2.239 -5,5c0,2.761 2.239,5 5,5Z" style="fill:#fff;fill-rule:nonzero;"/><path d="M59,386c2.761,0 5,-2.239 5,-5c0,-2.761 -2.239,-5 -5,-5c-2.761,0 -5,2.239 -5,5c0,2.761 2.239,5 5,5Z" style="fill:#fff;fill-rule:nonzero;"/><path d="M236.586,202.991l3.196,2.199l2.199,-3.197l-3.196,-2.199l-2.199,3.197Z" style="fill:#fff;fill-rule:nonzero;"/><path d="M238.58,213.774l3.197,2.2l2.199,-3.197l-3.197,-2.199l-2.199,3.196Z" style="fill:#fff;fill-rule:nonzero;"/><path d="M232.191,209.385l3.196,2.199l2.199,-3.196l-3.196,-2.199l-2.199,3.196Z" style="fill:#fff;fill-rule:nonzero;"/><path d="M231.199,203.991l3.196,2.2l2.199,-3.197l-3.196,-2.199l-2.199,3.196Z" style="fill:#fff;fill-rule:nonzero;"/><path d="M237.582,208.392l3.197,2.199l2.199,-3.197l-3.196,-2.199l-2.2,3.197Z" style="fill:#fff;fill-rule:nonzero;"/><path d="M249.354,211.792l3.196,2.2l2.2,-3.197l-3.197,-2.199l-2.199,3.196Z" style="fill:#fff;fill-rule:nonzero;"/><path d="M251.356,222.582l3.197,2.199l2.199,-3.196l-3.196,-2.2l-2.2,3.197Z" style="fill:#fff;fill-rule:nonzero;"/><path d="M242.964,207.402l3.196,2.199l2.2,-3.196l-3.197,-2.199l-2.199,3.196Z" style="fill:#fff;fill-rule:nonzero;"/><path d="M244.967,218.193l3.196,2.199l2.2,-3.197l-3.197,-2.199l-2.199,3.197Z" style="fill:#fff;fill-rule:nonzero;"/><path d="M243.967,212.793l3.196,2.2l2.2,-3.197l-3.197,-2.199l-2.199,3.196Z" style="fill:#fff;fill-rule:nonzero;"/><path d="M250.356,217.185l3.197,2.199l2.199,-3.196l-3.196,-2.199l-2.2,3.196Z" style="fill:#fff;fill-rule:nonzero;"/><path d="M255.748,216.186l3.197,2.199l2.199,-3.196l-3.196,-2.199l-2.2,3.196Z" style="fill:#fff;fill-rule:nonzero;"/><path d="M256.746,221.586l3.196,2.199l2.199,-3.196l-3.196,-2.2l-2.199,3.197Z" style="fill:#fff;fill-rule:nonzero;"/><path d="M235.382,211.59l3.196,2.199l2.2,-3.196l-3.197,-2.199l-2.199,3.196Z" style="fill:#666;fill-rule:nonzero;"/><path d="M240.778,210.59l3.197,2.199l2.199,-3.197l-3.196,-2.199l-2.2,3.197Z" style="fill:#666;fill-rule:nonzero;"/><path d="M228.998,207.192l3.196,2.199l2.2,-3.197l-3.197,-2.199l-2.199,3.197Z" style="fill:#666;fill-rule:nonzero;"/><path d="M234.381,206.195l3.196,2.199l2.2,-3.197l-3.197,-2.199l-2.199,3.197Z" style="fill:#666;fill-rule:nonzero;"/><path d="M233.389,200.801l3.196,2.199l2.2,-3.196l-3.197,-2.199l-2.199,3.196Z" style="fill:#666;fill-rule:nonzero;"/><path d="M239.778,205.193l3.197,2.199l2.199,-3.196l-3.196,-2.2l-2.2,3.197Z" style="fill:#666;fill-rule:nonzero;"/><path d="M248.15,220.392l3.196,2.199l2.2,-3.196l-3.197,-2.199l-2.199,3.196Z" style="fill:#666;fill-rule:nonzero;"/><path d="M253.547,219.391l3.196,2.2l2.199,-3.197l-3.196,-2.199l-2.199,3.196Z" style="fill:#666;fill-rule:nonzero;"/><path d="M241.766,215.993l3.196,2.2l2.2,-3.197l-3.197,-2.199l-2.199,3.196Z" style="fill:#666;fill-rule:nonzero;"/><path d="M247.157,215.002l3.197,2.199l2.199,-3.196l-3.196,-2.199l-2.2,3.196Z" style="fill:#666;fill-rule:nonzero;"/><path d="M246.165,209.609l3.197,2.199l2.199,-3.197l-3.196,-2.199l-2.2,3.197Z" style="fill:#666;fill-rule:nonzero;"/><path d="M252.555,214l3.196,2.2l2.199,-3.197l-3.196,-2.199l-2.199,3.196Z" style="fill:#666;fill-rule:nonzero;"/><path d="M254.545,224.786l3.196,2.199l2.199,-3.196l-3.196,-2.2l-2.199,3.197Z" style="fill:#666;fill-rule:nonzero;"/><path d="M258.944,218.401l3.197,2.199l2.199,-3.196l-3.197,-2.2l-2.199,3.197Z" style="fill:#666;fill-rule:nonzero;"/><path d="M271.774,91l0,-8.91l1.243,0l0,3.85l2.288,0l0,-3.85l1.243,0l0,8.91l-1.243,0l0,-4.169l-2.288,0l0,4.169l-1.243,0Zm5.682,0l1.892,-8.91l1.199,0l1.903,8.91l-1.177,0l-0.407,-2.244l-1.815,0l-0.429,2.244l-1.166,0Zm1.76,-3.135l1.485,0l-0.748,-4.015l-0.737,4.015Zm4.204,3.135l0,-8.91l1.221,0l0,8.91l-1.221,0Zm2.663,0l0,-8.91l1.793,0c0.594,0 1.085,0.081 1.474,0.242c0.388,0.154 0.674,0.407 0.858,0.759c0.19,0.345 0.286,0.799 0.286,1.364c0,0.345 -0.037,0.66 -0.11,0.946c-0.074,0.279 -0.191,0.517 -0.352,0.715c-0.162,0.191 -0.374,0.33 -0.638,0.418l1.265,4.466l-1.199,0l-1.166,-4.18l-0.968,0l0,4.18l-1.243,0Zm1.243,-5.071l0.473,0c0.352,0 0.638,-0.044 0.858,-0.132c0.22,-0.088 0.381,-0.238 0.484,-0.451c0.102,-0.213 0.154,-0.51 0.154,-0.891c0,-0.521 -0.096,-0.895 -0.286,-1.122c-0.191,-0.235 -0.569,-0.352 -1.133,-0.352l-0.55,0l0,2.948Zm4.461,5.071l0,-8.91l2.211,0c0.535,0 0.96,0.099 1.276,0.297c0.322,0.191 0.557,0.469 0.704,0.836c0.146,0.367 0.22,0.81 0.22,1.331c0,0.469 -0.085,0.876 -0.253,1.221c-0.162,0.345 -0.404,0.612 -0.726,0.803c-0.323,0.183 -0.726,0.275 -1.21,0.275l-0.979,0l0,4.147l-1.243,0Zm1.243,-5.038l0.572,0c0.359,0 0.641,-0.04 0.847,-0.121c0.205,-0.081 0.352,-0.22 0.44,-0.418c0.088,-0.205 0.132,-0.491 0.132,-0.858c0,-0.425 -0.033,-0.752 -0.099,-0.979c-0.059,-0.227 -0.187,-0.385 -0.385,-0.473c-0.198,-0.088 -0.506,-0.132 -0.924,-0.132l-0.583,0l0,2.981Zm4.108,5.038l0,-8.91l1.221,0l0,8.91l-1.221,0Zm2.662,0l0,-8.91l0.847,0l2.53,5.918l0,-5.918l1.034,0l0,8.91l-0.792,0l-2.563,-6.083l0,6.083l-1.056,0Z" style="fill:#fff;fill-rule:nonzero;"/><path d="M541,268c2.761,0 5,-2.239 5,-5c0,-2.761 -2.239,-5 -5,-5c-2.761,0 -5,2.239 -5,5c0,2.761 2.239,5 5,5Z" style="fill:#fff;fill-rule:nonzero;"/><path d="M521.263,250.706l0,-8.91l2.046,0c0.403,0 0.751,0.044 1.045,0.132c0.3,0.088 0.55,0.224 0.748,0.407c0.198,0.183 0.344,0.418 0.44,0.704c0.095,0.279 0.143,0.609 0.143,0.99c0,0.367 -0.048,0.686 -0.143,0.957c-0.088,0.264 -0.228,0.473 -0.418,0.627c-0.184,0.154 -0.422,0.253 -0.715,0.297c0.359,0.081 0.649,0.22 0.869,0.418c0.22,0.191 0.381,0.44 0.484,0.748c0.11,0.301 0.165,0.664 0.165,1.089c0,0.381 -0.044,0.73 -0.132,1.045c-0.088,0.315 -0.228,0.583 -0.418,0.803c-0.184,0.22 -0.422,0.392 -0.715,0.517c-0.286,0.117 -0.627,0.176 -1.023,0.176l-2.376,0Zm1.243,-0.891l0.836,0c0.557,0 0.927,-0.128 1.111,-0.385c0.19,-0.264 0.286,-0.686 0.286,-1.265c0,-0.374 -0.052,-0.686 -0.154,-0.935c-0.096,-0.257 -0.253,-0.447 -0.473,-0.572c-0.213,-0.132 -0.503,-0.198 -0.869,-0.198l-0.737,0l0,3.355Zm0,-4.301l0.737,0c0.352,0 0.627,-0.048 0.825,-0.143c0.198,-0.103 0.337,-0.264 0.418,-0.484c0.08,-0.22 0.121,-0.506 0.121,-0.858c0,-0.411 -0.063,-0.708 -0.187,-0.891c-0.125,-0.183 -0.319,-0.297 -0.583,-0.341c-0.264,-0.051 -0.609,-0.077 -1.034,-0.077l-0.297,0l0,2.794Zm4.041,5.192l1.892,-8.91l1.199,0l1.903,8.91l-1.177,0l-0.407,-2.244l-1.815,0l-0.429,2.244l-1.166,0Zm1.76,-3.135l1.485,0l-0.748,-4.015l-0.737,4.015Zm4.138,3.135l0,-8.91l1.793,0c0.594,0 1.086,0.081 1.474,0.242c0.389,0.154 0.675,0.407 0.858,0.759c0.191,0.345 0.286,0.799 0.286,1.364c0,0.345 -0.036,0.66 -0.11,0.946c-0.073,0.279 -0.19,0.517 -0.352,0.715c-0.161,0.191 -0.374,0.33 -0.638,0.418l1.265,4.466l-1.199,0l-1.166,-4.18l-0.968,0l0,4.18l-1.243,0Zm1.243,-5.071l0.473,0c0.352,0 0.638,-0.044 0.858,-0.132c0.22,-0.088 0.382,-0.238 0.484,-0.451c0.103,-0.213 0.154,-0.51 0.154,-0.891c0,-0.521 -0.095,-0.895 -0.286,-1.122c-0.19,-0.235 -0.568,-0.352 -1.133,-0.352l-0.55,0l0,2.948Zm6.694,5.17c-0.63,0 -1.122,-0.132 -1.474,-0.396c-0.344,-0.264 -0.586,-0.62 -0.726,-1.067c-0.132,-0.447 -0.198,-0.946 -0.198,-1.496l0,-3.146c0,-0.601 0.066,-1.126 0.198,-1.573c0.14,-0.447 0.382,-0.792 0.726,-1.034c0.352,-0.249 0.844,-0.374 1.474,-0.374c0.558,0 0.998,0.103 1.32,0.308c0.33,0.205 0.565,0.499 0.704,0.88c0.147,0.381 0.22,0.84 0.22,1.375l0,0.704l-1.177,0l0,-0.627c0,-0.33 -0.018,-0.62 -0.055,-0.869c-0.029,-0.257 -0.117,-0.455 -0.264,-0.594c-0.146,-0.139 -0.392,-0.209 -0.737,-0.209c-0.352,0 -0.608,0.077 -0.77,0.231c-0.161,0.147 -0.267,0.359 -0.319,0.638c-0.044,0.271 -0.066,0.59 -0.066,0.957l0,3.531c0,0.447 0.037,0.803 0.11,1.067c0.074,0.257 0.195,0.44 0.363,0.55c0.169,0.11 0.396,0.165 0.682,0.165c0.338,0 0.58,-0.073 0.726,-0.22c0.147,-0.154 0.239,-0.363 0.275,-0.627c0.037,-0.264 0.055,-0.572 0.055,-0.924l0,-0.66l1.177,0l0,0.66c0,0.543 -0.066,1.023 -0.198,1.441c-0.132,0.411 -0.359,0.733 -0.682,0.968c-0.322,0.227 -0.777,0.341 -1.364,0.341Zm3.429,-0.099l0,-8.91l1.793,0c0.594,0 1.085,0.081 1.474,0.242c0.388,0.154 0.674,0.407 0.858,0.759c0.19,0.345 0.286,0.799 0.286,1.364c0,0.345 -0.037,0.66 -0.11,0.946c-0.074,0.279 -0.191,0.517 -0.352,0.715c-0.162,0.191 -0.374,0.33 -0.638,0.418l1.265,4.466l-1.199,0l-1.166,-4.18l-0.968,0l0,4.18l-1.243,0Zm1.243,-5.071l0.473,0c0.352,0 0.638,-0.044 0.858,-0.132c0.22,-0.088 0.381,-0.238 0.484,-0.451c0.102,-0.213 0.154,-0.51 0.154,-0.891c0,-0.521 -0.096,-0.895 -0.286,-1.122c-0.191,-0.235 -0.569,-0.352 -1.133,-0.352l-0.55,0l0,2.948Zm6.738,5.17c-0.602,0 -1.082,-0.117 -1.441,-0.352c-0.36,-0.235 -0.616,-0.568 -0.77,-1.001c-0.154,-0.44 -0.231,-0.953 -0.231,-1.54l0,-3.377c0,-0.587 0.077,-1.089 0.231,-1.507c0.161,-0.425 0.418,-0.748 0.77,-0.968c0.359,-0.227 0.839,-0.341 1.441,-0.341c0.601,0 1.078,0.114 1.43,0.341c0.352,0.227 0.605,0.55 0.759,0.968c0.161,0.418 0.242,0.92 0.242,1.507l0,3.388c0,0.579 -0.081,1.085 -0.242,1.518c-0.154,0.433 -0.407,0.77 -0.759,1.012c-0.352,0.235 -0.829,0.352 -1.43,0.352Zm0,-0.979c0.33,0 0.579,-0.066 0.748,-0.198c0.168,-0.139 0.282,-0.33 0.341,-0.572c0.058,-0.249 0.088,-0.539 0.088,-0.869l0,-3.905c0,-0.33 -0.03,-0.612 -0.088,-0.847c-0.059,-0.242 -0.173,-0.425 -0.341,-0.55c-0.169,-0.132 -0.418,-0.198 -0.748,-0.198c-0.33,0 -0.583,0.066 -0.759,0.198c-0.169,0.125 -0.283,0.308 -0.341,0.55c-0.059,0.235 -0.088,0.517 -0.088,0.847l0,3.905c0,0.33 0.029,0.62 0.088,0.869c0.058,0.242 0.172,0.433 0.341,0.572c0.176,0.132 0.429,0.198 0.759,0.198Zm3.652,0.88l0,-8.91l3.443,0l0,0.891l-2.2,0l0,2.97l1.705,0l0,0.88l-1.705,0l0,4.169l-1.243,0Zm5.276,0l0,-7.986l-1.507,0l0,-0.924l4.213,0l0,0.924l-1.463,0l0,7.986l-1.243,0Z" style="fill:#fff;fill-rule:nonzero;"/><path d="M165,381c2.761,0 5,-2.239 5,-5c0,-2.761 -2.239,-5 -5,-5c-2.761,0 -5,2.239 -5,5c0,2.761 2.239,5 5,5Z" style="fill:#fff;fill-rule:nonzero;"/><path d="M180.931,379.805c-0.631,0 -1.122,-0.132 -1.474,-0.396c-0.345,-0.264 -0.587,-0.62 -0.726,-1.067c-0.132,-0.447 -0.198,-0.946 -0.198,-1.496l0,-3.146c0,-0.601 0.066,-1.126 0.198,-1.573c0.139,-0.447 0.381,-0.792 0.726,-1.034c0.352,-0.249 0.843,-0.374 1.474,-0.374c0.557,0 0.997,0.103 1.32,0.308c0.33,0.205 0.564,0.499 0.704,0.88c0.146,0.381 0.22,0.84 0.22,1.375l0,0.704l-1.177,0l0,-0.627c0,-0.33 -0.019,-0.62 -0.055,-0.869c-0.03,-0.257 -0.118,-0.455 -0.264,-0.594c-0.147,-0.139 -0.393,-0.209 -0.737,-0.209c-0.352,0 -0.609,0.077 -0.77,0.231c-0.162,0.147 -0.268,0.359 -0.319,0.638c-0.044,0.271 -0.066,0.59 -0.066,0.957l0,3.531c0,0.447 0.036,0.803 0.11,1.067c0.073,0.257 0.194,0.44 0.363,0.55c0.168,0.11 0.396,0.165 0.682,0.165c0.337,0 0.579,-0.073 0.726,-0.22c0.146,-0.154 0.238,-0.363 0.275,-0.627c0.036,-0.264 0.055,-0.572 0.055,-0.924l0,-0.66l1.177,0l0,0.66c0,0.543 -0.066,1.023 -0.198,1.441c-0.132,0.411 -0.36,0.733 -0.682,0.968c-0.323,0.227 -0.778,0.341 -1.364,0.341Zm3.428,-0.099l0,-8.91l1.243,0l0,8.019l2.277,0l0,0.891l-3.52,0Zm4.372,0l0,-8.91l3.454,0l0,0.924l-2.211,0l0,2.948l1.793,0l0,0.88l-1.793,0l0,3.267l2.233,0l0,0.891l-3.476,0Zm4.479,0l0,-8.91l1.793,0c0.594,0 1.086,0.081 1.474,0.242c0.389,0.154 0.675,0.407 0.858,0.759c0.191,0.345 0.286,0.799 0.286,1.364c0,0.345 -0.036,0.66 -0.11,0.946c-0.073,0.279 -0.19,0.517 -0.352,0.715c-0.161,0.191 -0.374,0.33 -0.638,0.418l1.265,4.466l-1.199,0l-1.166,-4.18l-0.968,0l0,4.18l-1.243,0Zm1.243,-5.071l0.473,0c0.352,0 0.638,-0.044 0.858,-0.132c0.22,-0.088 0.382,-0.238 0.484,-0.451c0.103,-0.213 0.154,-0.51 0.154,-0.891c0,-0.521 -0.095,-0.895 -0.286,-1.122c-0.19,-0.235 -0.568,-0.352 -1.133,-0.352l-0.55,0l0,2.948Zm6.013,5.071l-1.991,-8.91l1.166,0l1.408,6.567l1.342,-6.567l1.133,0l-1.969,8.91l-1.089,0Zm3.207,0l1.892,-8.91l1.199,0l1.903,8.91l-1.177,0l-0.407,-2.244l-1.815,0l-0.429,2.244l-1.166,0Zm1.76,-3.135l1.485,0l-0.748,-4.015l-0.737,4.015Zm6.437,3.234c-0.646,0 -1.141,-0.128 -1.485,-0.385c-0.345,-0.257 -0.58,-0.616 -0.704,-1.078c-0.125,-0.469 -0.187,-1.016 -0.187,-1.639l0,-5.907l1.188,0l0,5.962c0,0.381 0.025,0.73 0.077,1.045c0.051,0.315 0.161,0.565 0.33,0.748c0.176,0.183 0.436,0.275 0.781,0.275c0.352,0 0.612,-0.092 0.781,-0.275c0.168,-0.183 0.278,-0.433 0.33,-0.748c0.051,-0.315 0.077,-0.664 0.077,-1.045l0,-5.962l1.177,0l0,5.907c0,0.623 -0.063,1.17 -0.187,1.639c-0.125,0.462 -0.36,0.821 -0.704,1.078c-0.338,0.257 -0.829,0.385 -1.474,0.385Zm3.123,-0.099l1.859,-4.664l-1.826,-4.246l1.155,0l1.353,3.146l1.232,-3.146l1.155,0l-1.87,4.345l1.958,4.565l-1.155,0l-1.452,-3.355l-1.254,3.355l-1.155,0Z" style="fill:#fff;fill-rule:nonzero;"/><path d="M536.794,379.099c-0.513,0 -0.942,-0.11 -1.287,-0.33c-0.337,-0.22 -0.594,-0.524 -0.77,-0.913c-0.176,-0.389 -0.279,-0.84 -0.308,-1.353l1.1,-0.297c0.022,0.315 0.07,0.62 0.143,0.913c0.081,0.293 0.209,0.535 0.385,0.726c0.176,0.183 0.422,0.275 0.737,0.275c0.323,0 0.565,-0.088 0.726,-0.264c0.169,-0.183 0.253,-0.444 0.253,-0.781c0,-0.403 -0.092,-0.726 -0.275,-0.968c-0.183,-0.249 -0.414,-0.499 -0.693,-0.748l-1.496,-1.32c-0.293,-0.257 -0.51,-0.535 -0.649,-0.836c-0.139,-0.308 -0.209,-0.686 -0.209,-1.133c0,-0.653 0.187,-1.159 0.561,-1.518c0.374,-0.359 0.884,-0.539 1.529,-0.539c0.352,0 0.66,0.048 0.924,0.143c0.271,0.088 0.495,0.227 0.671,0.418c0.183,0.191 0.326,0.433 0.429,0.726c0.11,0.286 0.183,0.623 0.22,1.012l-1.056,0.286c-0.022,-0.293 -0.066,-0.561 -0.132,-0.803c-0.066,-0.249 -0.183,-0.447 -0.352,-0.594c-0.161,-0.154 -0.396,-0.231 -0.704,-0.231c-0.308,0 -0.55,0.084 -0.726,0.253c-0.169,0.161 -0.253,0.403 -0.253,0.726c0,0.271 0.044,0.495 0.132,0.671c0.095,0.176 0.246,0.356 0.451,0.539l1.507,1.32c0.337,0.293 0.634,0.645 0.891,1.056c0.257,0.403 0.385,0.884 0.385,1.441c0,0.44 -0.092,0.821 -0.275,1.144c-0.183,0.315 -0.436,0.557 -0.759,0.726c-0.315,0.169 -0.682,0.253 -1.1,0.253Zm5.397,0c-0.645,0 -1.14,-0.128 -1.485,-0.385c-0.344,-0.257 -0.579,-0.616 -0.704,-1.078c-0.124,-0.469 -0.187,-1.016 -0.187,-1.639l0,-5.907l1.188,0l0,5.962c0,0.381 0.026,0.73 0.077,1.045c0.052,0.315 0.162,0.565 0.33,0.748c0.176,0.183 0.437,0.275 0.781,0.275c0.352,0 0.613,-0.092 0.781,-0.275c0.169,-0.183 0.279,-0.433 0.33,-0.748c0.052,-0.315 0.077,-0.664 0.077,-1.045l0,-5.962l1.177,0l0,5.907c0,0.623 -0.062,1.17 -0.187,1.639c-0.124,0.462 -0.359,0.821 -0.704,1.078c-0.337,0.257 -0.828,0.385 -1.474,0.385Zm3.674,-0.099l0,-8.91l0.847,0l2.53,5.918l0,-5.918l1.034,0l0,8.91l-0.792,0l-2.563,-6.083l0,6.083l-1.056,0Zm5.811,0l0,-8.91l0.847,0l2.53,5.918l0,-5.918l1.034,0l0,8.91l-0.792,0l-2.563,-6.083l0,6.083l-1.056,0Zm7.176,0l0,-3.146l-1.925,-5.764l1.155,0l1.364,4.301l1.342,-4.301l1.166,0l-1.914,5.764l0,3.146l-1.188,0Zm6.511,0l0,-8.91l1.221,0l0,8.91l-1.221,0Zm2.663,0l0,-8.91l0.847,0l2.53,5.918l0,-5.918l1.034,0l0,8.91l-0.792,0l-2.563,-6.083l0,6.083l-1.056,0Z" style="fill:#fff;fill-rule:nonzero;"/><path d="M88.642,277.099c-0.631,0 -1.122,-0.132 -1.474,-0.396c-0.345,-0.264 -0.587,-0.62 -0.726,-1.067c-0.132,-0.447 -0.198,-0.946 -0.198,-1.496l0,-3.146c0,-0.601 0.066,-1.126 0.198,-1.573c0.139,-0.447 0.381,-0.792 0.726,-1.034c0.352,-0.249 0.843,-0.374 1.474,-0.374c0.557,0 0.997,0.103 1.32,0.308c0.33,0.205 0.565,0.499 0.704,0.88c0.147,0.381 0.22,0.84 0.22,1.375l0,0.704l-1.177,0l0,-0.627c0,-0.33 -0.018,-0.62 -0.055,-0.869c-0.029,-0.257 -0.117,-0.455 -0.264,-0.594c-0.147,-0.139 -0.392,-0.209 -0.737,-0.209c-0.352,0 -0.609,0.077 -0.77,0.231c-0.161,0.147 -0.268,0.359 -0.319,0.638c-0.044,0.271 -0.066,0.59 -0.066,0.957l0,3.531c0,0.447 0.037,0.803 0.11,1.067c0.073,0.257 0.194,0.44 0.363,0.55c0.169,0.11 0.396,0.165 0.682,0.165c0.337,0 0.579,-0.073 0.726,-0.22c0.147,-0.154 0.238,-0.363 0.275,-0.627c0.037,-0.264 0.055,-0.572 0.055,-0.924l0,-0.66l1.177,0l0,0.66c0,0.543 -0.066,1.023 -0.198,1.441c-0.132,0.411 -0.359,0.733 -0.682,0.968c-0.323,0.227 -0.777,0.341 -1.364,0.341Zm3.428,-0.099l0,-8.91l1.243,0l0,3.85l2.288,0l0,-3.85l1.243,0l0,8.91l-1.243,0l0,-4.169l-2.288,0l0,4.169l-1.243,0Zm6.232,0l0,-8.91l1.221,0l0,8.91l-1.221,0Zm4.895,0.099c-0.63,0 -1.122,-0.132 -1.474,-0.396c-0.344,-0.264 -0.586,-0.62 -0.726,-1.067c-0.132,-0.447 -0.198,-0.946 -0.198,-1.496l0,-3.146c0,-0.601 0.066,-1.126 0.198,-1.573c0.14,-0.447 0.382,-0.792 0.726,-1.034c0.352,-0.249 0.844,-0.374 1.474,-0.374c0.558,0 0.998,0.103 1.32,0.308c0.33,0.205 0.565,0.499 0.704,0.88c0.147,0.381 0.22,0.84 0.22,1.375l0,0.704l-1.177,0l0,-0.627c0,-0.33 -0.018,-0.62 -0.055,-0.869c-0.029,-0.257 -0.117,-0.455 -0.264,-0.594c-0.146,-0.139 -0.392,-0.209 -0.737,-0.209c-0.352,0 -0.608,0.077 -0.77,0.231c-0.161,0.147 -0.267,0.359 -0.319,0.638c-0.044,0.271 -0.066,0.59 -0.066,0.957l0,3.531c0,0.447 0.037,0.803 0.11,1.067c0.074,0.257 0.195,0.44 0.363,0.55c0.169,0.11 0.396,0.165 0.682,0.165c0.338,0 0.58,-0.073 0.726,-0.22c0.147,-0.154 0.239,-0.363 0.275,-0.627c0.037,-0.264 0.055,-0.572 0.055,-0.924l0,-0.66l1.177,0l0,0.66c0,0.543 -0.066,1.023 -0.198,1.441c-0.132,0.411 -0.359,0.733 -0.682,0.968c-0.322,0.227 -0.777,0.341 -1.364,0.341Zm2.944,-0.099l1.892,-8.91l1.199,0l1.903,8.91l-1.177,0l-0.407,-2.244l-1.815,0l-0.429,2.244l-1.166,0Zm1.76,-3.135l1.485,0l-0.748,-4.015l-0.737,4.015Zm4.138,3.135l0,-8.91l0.847,0l2.53,5.918l0,-5.918l1.034,0l0,8.91l-0.792,0l-2.563,-6.083l0,6.083l-1.056,0Zm5.812,0l0,-8.91l3.454,0l0,0.924l-2.211,0l0,2.948l1.793,0l0,0.88l-1.793,0l0,3.267l2.233,0l0,0.891l-3.476,0Z" style="fill:#fff;fill-rule:nonzero;"/><path d="M12.61,373l0,-8.91l1.243,0l0,3.85l2.288,0l0,-3.85l1.243,0l0,8.91l-1.243,0l0,-4.169l-2.288,0l0,4.169l-1.243,0Zm5.682,0l1.892,-8.91l1.199,0l1.903,8.91l-1.177,0l-0.407,-2.244l-1.815,0l-0.429,2.244l-1.166,0Zm1.76,-3.135l1.485,0l-0.748,-4.015l-0.737,4.015Zm5.121,3.135l-1.452,-8.91l1.034,0l0.957,6.402l1.199,-6.369l0.88,0l1.21,6.402l0.935,-6.435l1.012,0l-1.43,8.91l-0.902,0l-1.243,-6.6l-1.254,6.6l-0.946,0Zm7.838,0l0,-7.986l-1.507,0l0,-0.924l4.213,0l0,0.924l-1.463,0l0,7.986l-1.243,0Zm3.565,0l0,-8.91l1.243,0l0,3.85l2.288,0l0,-3.85l1.243,0l0,8.91l-1.243,0l0,-4.169l-2.288,0l0,4.169l-1.243,0Zm8.443,0.099c-0.601,0 -1.082,-0.117 -1.441,-0.352c-0.359,-0.235 -0.616,-0.568 -0.77,-1.001c-0.154,-0.44 -0.231,-0.953 -0.231,-1.54l0,-3.377c0,-0.587 0.077,-1.089 0.231,-1.507c0.161,-0.425 0.418,-0.748 0.77,-0.968c0.359,-0.227 0.84,-0.341 1.441,-0.341c0.601,0 1.078,0.114 1.43,0.341c0.352,0.227 0.605,0.55 0.759,0.968c0.161,0.418 0.242,0.92 0.242,1.507l0,3.388c0,0.579 -0.081,1.085 -0.242,1.518c-0.154,0.433 -0.407,0.77 -0.759,1.012c-0.352,0.235 -0.829,0.352 -1.43,0.352Zm0,-0.979c0.33,0 0.579,-0.066 0.748,-0.198c0.169,-0.139 0.282,-0.33 0.341,-0.572c0.059,-0.249 0.088,-0.539 0.088,-0.869l0,-3.905c0,-0.33 -0.029,-0.612 -0.088,-0.847c-0.059,-0.242 -0.172,-0.425 -0.341,-0.55c-0.169,-0.132 -0.418,-0.198 -0.748,-0.198c-0.33,0 -0.583,0.066 -0.759,0.198c-0.169,0.125 -0.282,0.308 -0.341,0.55c-0.059,0.235 -0.088,0.517 -0.088,0.847l0,3.905c0,0.33 0.029,0.62 0.088,0.869c0.059,0.242 0.172,0.433 0.341,0.572c0.176,0.132 0.429,0.198 0.759,0.198Zm3.653,0.88l0,-8.91l1.793,0c0.594,0 1.085,0.081 1.474,0.242c0.389,0.154 0.675,0.407 0.858,0.759c0.191,0.345 0.286,0.799 0.286,1.364c0,0.345 -0.037,0.66 -0.11,0.946c-0.073,0.279 -0.191,0.517 -0.352,0.715c-0.161,0.191 -0.374,0.33 -0.638,0.418l1.265,4.466l-1.199,0l-1.166,-4.18l-0.968,0l0,4.18l-1.243,0Zm1.243,-5.071l0.473,0c0.352,0 0.638,-0.044 0.858,-0.132c0.22,-0.088 0.381,-0.238 0.484,-0.451c0.103,-0.213 0.154,-0.51 0.154,-0.891c0,-0.521 -0.095,-0.895 -0.286,-1.122c-0.191,-0.235 -0.568,-0.352 -1.133,-0.352l-0.55,0l0,2.948Zm4.461,5.071l0,-8.91l0.847,0l2.53,5.918l0,-5.918l1.034,0l0,8.91l-0.792,0l-2.563,-6.083l0,6.083l-1.056,0Zm-28.907,11l0,-8.91l2.046,0c0.403,0 0.752,0.044 1.045,0.132c0.301,0.088 0.55,0.224 0.748,0.407c0.198,0.183 0.345,0.418 0.44,0.704c0.095,0.279 0.143,0.609 0.143,0.99c0,0.367 -0.048,0.686 -0.143,0.957c-0.088,0.264 -0.227,0.473 -0.418,0.627c-0.183,0.154 -0.422,0.253 -0.715,0.297c0.359,0.081 0.649,0.22 0.869,0.418c0.22,0.191 0.381,0.44 0.484,0.748c0.11,0.301 0.165,0.664 0.165,1.089c0,0.381 -0.044,0.73 -0.132,1.045c-0.088,0.315 -0.227,0.583 -0.418,0.803c-0.183,0.22 -0.422,0.392 -0.715,0.517c-0.286,0.117 -0.627,0.176 -1.023,0.176l-2.376,0Zm1.243,-0.891l0.836,0c0.557,0 0.928,-0.128 1.111,-0.385c0.191,-0.264 0.286,-0.686 0.286,-1.265c0,-0.374 -0.051,-0.686 -0.154,-0.935c-0.095,-0.257 -0.253,-0.447 -0.473,-0.572c-0.213,-0.132 -0.502,-0.198 -0.869,-0.198l-0.737,0l0,3.355Zm0,-4.301l0.737,0c0.352,0 0.627,-0.048 0.825,-0.143c0.198,-0.103 0.337,-0.264 0.418,-0.484c0.081,-0.22 0.121,-0.506 0.121,-0.858c0,-0.411 -0.062,-0.708 -0.187,-0.891c-0.125,-0.183 -0.319,-0.297 -0.583,-0.341c-0.264,-0.051 -0.609,-0.077 -1.034,-0.077l-0.297,0l0,2.794Zm4.526,5.192l0,-8.91l3.454,0l0,0.924l-2.211,0l0,2.948l1.793,0l0,0.88l-1.793,0l0,3.267l2.233,0l0,0.891l-3.476,0Zm4.479,0l0,-8.91l0.847,0l2.53,5.918l0,-5.918l1.034,0l0,8.91l-0.792,0l-2.563,-6.083l0,6.083l-1.056,0Zm5.812,0l0,-8.91l1.936,0c0.66,0 1.181,0.103 1.562,0.308c0.389,0.198 0.664,0.499 0.825,0.902c0.169,0.403 0.253,0.906 0.253,1.507l0,3.278c0,0.631 -0.084,1.162 -0.253,1.595c-0.161,0.433 -0.429,0.763 -0.803,0.99c-0.367,0.22 -0.862,0.33 -1.485,0.33l-2.035,0Zm1.243,-0.891l0.704,0c0.455,0 0.777,-0.088 0.968,-0.264c0.191,-0.176 0.304,-0.433 0.341,-0.77c0.044,-0.337 0.066,-0.744 0.066,-1.221l0,-2.893c0,-0.462 -0.029,-0.836 -0.088,-1.122c-0.059,-0.286 -0.187,-0.495 -0.385,-0.627c-0.198,-0.132 -0.51,-0.198 -0.935,-0.198l-0.671,0l0,7.095Z" style="fill:#fff;fill-rule:nonzero;"/><path d="M248,21c2.761,0 5,-2.239 5,-5c0,-2.761 -2.239,-5 -5,-5c-2.761,0 -5,2.239 -5,5c0,2.761 2.239,5 5,5Z" style="fill:#fff;fill-rule:nonzero;"/><path d="M181.657,21l0,-7.986l-1.507,0l0,-0.924l4.213,0l0,0.924l-1.463,0l0,7.986l-1.243,0Zm5.842,0.099c-0.601,0 -1.082,-0.117 -1.441,-0.352c-0.359,-0.235 -0.616,-0.568 -0.77,-1.001c-0.154,-0.44 -0.231,-0.953 -0.231,-1.54l0,-3.377c0,-0.587 0.077,-1.089 0.231,-1.507c0.161,-0.425 0.418,-0.748 0.77,-0.968c0.359,-0.227 0.84,-0.341 1.441,-0.341c0.601,0 1.078,0.114 1.43,0.341c0.352,0.227 0.605,0.55 0.759,0.968c0.161,0.418 0.242,0.92 0.242,1.507l0,3.388c0,0.579 -0.081,1.085 -0.242,1.518c-0.154,0.433 -0.407,0.77 -0.759,1.012c-0.352,0.235 -0.829,0.352 -1.43,0.352Zm0,-0.979c0.33,0 0.579,-0.066 0.748,-0.198c0.169,-0.139 0.282,-0.33 0.341,-0.572c0.059,-0.249 0.088,-0.539 0.088,-0.869l0,-3.905c0,-0.33 -0.029,-0.612 -0.088,-0.847c-0.059,-0.242 -0.172,-0.425 -0.341,-0.55c-0.169,-0.132 -0.418,-0.198 -0.748,-0.198c-0.33,0 -0.583,0.066 -0.759,0.198c-0.169,0.125 -0.282,0.308 -0.341,0.55c-0.059,0.235 -0.088,0.517 -0.088,0.847l0,3.905c0,0.33 0.029,0.62 0.088,0.869c0.059,0.242 0.172,0.433 0.341,0.572c0.176,0.132 0.429,0.198 0.759,0.198Zm4.808,0.88l-1.452,-8.91l1.034,0l0.957,6.402l1.199,-6.369l0.88,0l1.21,6.402l0.935,-6.435l1.012,0l-1.43,8.91l-0.902,0l-1.243,-6.6l-1.254,6.6l-0.946,0Zm6.858,0l0,-8.91l3.454,0l0,0.924l-2.211,0l0,2.948l1.793,0l0,0.88l-1.793,0l0,3.267l2.233,0l0,0.891l-3.476,0Zm4.48,0l0,-8.91l1.793,0c0.594,0 1.085,0.081 1.474,0.242c0.388,0.154 0.674,0.407 0.858,0.759c0.19,0.345 0.286,0.799 0.286,1.364c0,0.345 -0.037,0.66 -0.11,0.946c-0.074,0.279 -0.191,0.517 -0.352,0.715c-0.162,0.191 -0.374,0.33 -0.638,0.418l1.265,4.466l-1.199,0l-1.166,-4.18l-0.968,0l0,4.18l-1.243,0Zm1.243,-5.071l0.473,0c0.352,0 0.638,-0.044 0.858,-0.132c0.22,-0.088 0.381,-0.238 0.484,-0.451c0.102,-0.213 0.154,-0.51 0.154,-0.891c0,-0.521 -0.096,-0.895 -0.286,-1.122c-0.191,-0.235 -0.569,-0.352 -1.133,-0.352l-0.55,0l0,2.948Zm6.975,5.071l0,-8.91l2.046,0c0.403,0 0.751,0.044 1.045,0.132c0.3,0.088 0.55,0.224 0.748,0.407c0.198,0.183 0.344,0.418 0.44,0.704c0.095,0.279 0.143,0.609 0.143,0.99c0,0.367 -0.048,0.686 -0.143,0.957c-0.088,0.264 -0.228,0.473 -0.418,0.627c-0.184,0.154 -0.422,0.253 -0.715,0.297c0.359,0.081 0.649,0.22 0.869,0.418c0.22,0.191 0.381,0.44 0.484,0.748c0.11,0.301 0.165,0.664 0.165,1.089c0,0.381 -0.044,0.73 -0.132,1.045c-0.088,0.315 -0.228,0.583 -0.418,0.803c-0.184,0.22 -0.422,0.392 -0.715,0.517c-0.286,0.117 -0.627,0.176 -1.023,0.176l-2.376,0Zm1.243,-0.891l0.836,0c0.557,0 0.927,-0.128 1.111,-0.385c0.19,-0.264 0.286,-0.686 0.286,-1.265c0,-0.374 -0.052,-0.686 -0.154,-0.935c-0.096,-0.257 -0.253,-0.447 -0.473,-0.572c-0.213,-0.132 -0.503,-0.198 -0.869,-0.198l-0.737,0l0,3.355Zm0,-4.301l0.737,0c0.352,0 0.627,-0.048 0.825,-0.143c0.198,-0.103 0.337,-0.264 0.418,-0.484c0.08,-0.22 0.121,-0.506 0.121,-0.858c0,-0.411 -0.063,-0.708 -0.187,-0.891c-0.125,-0.183 -0.319,-0.297 -0.583,-0.341c-0.264,-0.051 -0.609,-0.077 -1.034,-0.077l-0.297,0l0,2.794Zm4.525,5.192l0,-8.91l3.454,0l0,0.924l-2.211,0l0,2.948l1.793,0l0,0.88l-1.793,0l0,3.267l2.233,0l0,0.891l-3.476,0Zm4.48,0l0,-8.91l0.847,0l2.53,5.918l0,-5.918l1.034,0l0,8.91l-0.792,0l-2.563,-6.083l0,6.083l-1.056,0Zm5.811,0l0,-8.91l1.936,0c0.66,0 1.181,0.103 1.562,0.308c0.389,0.198 0.664,0.499 0.825,0.902c0.169,0.403 0.253,0.906 0.253,1.507l0,3.278c0,0.631 -0.084,1.162 -0.253,1.595c-0.161,0.433 -0.429,0.763 -0.803,0.99c-0.367,0.22 -0.862,0.33 -1.485,0.33l-2.035,0Zm1.243,-0.891l0.704,0c0.455,0 0.777,-0.088 0.968,-0.264c0.191,-0.176 0.304,-0.433 0.341,-0.77c0.044,-0.337 0.066,-0.744 0.066,-1.221l0,-2.893c0,-0.462 -0.029,-0.836 -0.088,-1.122c-0.059,-0.286 -0.187,-0.495 -0.385,-0.627c-0.198,-0.132 -0.51,-0.198 -0.935,-0.198l-0.671,0l0,7.095Z" style="fill:#fff;fill-rule:nonzero;"/><path d="M325,207c2.761,0 5,-2.239 5,-5c0,-2.761 -2.239,-5 -5,-5c-2.761,0 -5,2.239 -5,5c0,2.761 2.239,5 5,5Z" style="fill:#fff;fill-rule:nonzero;"/><path d="M308.278,225.099c-0.631,0 -1.122,-0.132 -1.474,-0.396c-0.345,-0.264 -0.587,-0.62 -0.726,-1.067c-0.132,-0.447 -0.198,-0.946 -0.198,-1.496l0,-3.146c0,-0.601 0.066,-1.126 0.198,-1.573c0.139,-0.447 0.381,-0.792 0.726,-1.034c0.352,-0.249 0.843,-0.374 1.474,-0.374c0.557,0 0.997,0.103 1.32,0.308c0.33,0.205 0.565,0.499 0.704,0.88c0.147,0.381 0.22,0.84 0.22,1.375l0,0.704l-1.177,0l0,-0.627c0,-0.33 -0.018,-0.62 -0.055,-0.869c-0.029,-0.257 -0.117,-0.455 -0.264,-0.594c-0.147,-0.139 -0.392,-0.209 -0.737,-0.209c-0.352,0 -0.609,0.077 -0.77,0.231c-0.161,0.147 -0.268,0.359 -0.319,0.638c-0.044,0.271 -0.066,0.59 -0.066,0.957l0,3.531c0,0.447 0.037,0.803 0.11,1.067c0.073,0.257 0.194,0.44 0.363,0.55c0.169,0.11 0.396,0.165 0.682,0.165c0.337,0 0.579,-0.073 0.726,-0.22c0.147,-0.154 0.238,-0.363 0.275,-0.627c0.037,-0.264 0.055,-0.572 0.055,-0.924l0,-0.66l1.177,0l0,0.66c0,0.543 -0.066,1.023 -0.198,1.441c-0.132,0.411 -0.359,0.733 -0.682,0.968c-0.323,0.227 -0.777,0.341 -1.364,0.341Zm5.705,0c-0.601,0 -1.081,-0.117 -1.441,-0.352c-0.359,-0.235 -0.616,-0.568 -0.77,-1.001c-0.154,-0.44 -0.231,-0.953 -0.231,-1.54l0,-3.377c0,-0.587 0.077,-1.089 0.231,-1.507c0.162,-0.425 0.418,-0.748 0.77,-0.968c0.36,-0.227 0.84,-0.341 1.441,-0.341c0.602,0 1.078,0.114 1.43,0.341c0.352,0.227 0.605,0.55 0.759,0.968c0.162,0.418 0.242,0.92 0.242,1.507l0,3.388c0,0.579 -0.08,1.085 -0.242,1.518c-0.154,0.433 -0.407,0.77 -0.759,1.012c-0.352,0.235 -0.828,0.352 -1.43,0.352Zm0,-0.979c0.33,0 0.58,-0.066 0.748,-0.198c0.169,-0.139 0.283,-0.33 0.341,-0.572c0.059,-0.249 0.088,-0.539 0.088,-0.869l0,-3.905c0,-0.33 -0.029,-0.612 -0.088,-0.847c-0.058,-0.242 -0.172,-0.425 -0.341,-0.55c-0.168,-0.132 -0.418,-0.198 -0.748,-0.198c-0.33,0 -0.583,0.066 -0.759,0.198c-0.168,0.125 -0.282,0.308 -0.341,0.55c-0.058,0.235 -0.088,0.517 -0.088,0.847l0,3.905c0,0.33 0.03,0.62 0.088,0.869c0.059,0.242 0.173,0.433 0.341,0.572c0.176,0.132 0.429,0.198 0.759,0.198Zm3.631,0.88l0.165,-8.91l1.221,0l1.573,7.227l1.584,-7.227l1.21,0l0.165,8.91l-1.001,0l-0.099,-6.468l-1.507,6.468l-0.704,0l-1.496,-6.468l-0.099,6.468l-1.012,0Zm7.284,0l0,-8.91l2.211,0c0.535,0 0.96,0.099 1.276,0.297c0.322,0.191 0.557,0.469 0.704,0.836c0.146,0.367 0.22,0.81 0.22,1.331c0,0.469 -0.085,0.876 -0.253,1.221c-0.162,0.345 -0.404,0.612 -0.726,0.803c-0.323,0.183 -0.726,0.275 -1.21,0.275l-0.979,0l0,4.147l-1.243,0Zm1.243,-5.038l0.572,0c0.359,0 0.641,-0.04 0.847,-0.121c0.205,-0.081 0.352,-0.22 0.44,-0.418c0.088,-0.205 0.132,-0.491 0.132,-0.858c0,-0.425 -0.033,-0.752 -0.099,-0.979c-0.059,-0.227 -0.187,-0.385 -0.385,-0.473c-0.198,-0.088 -0.506,-0.132 -0.924,-0.132l-0.583,0l0,2.981Zm4.042,5.038l0,-8.91l1.243,0l0,8.019l2.277,0l0,0.891l-3.52,0Zm4.372,0l0,-8.91l3.454,0l0,0.924l-2.211,0l0,2.948l1.793,0l0,0.88l-1.793,0l0,3.267l2.233,0l0,0.891l-3.476,0Zm3.929,0l1.859,-4.664l-1.826,-4.246l1.155,0l1.353,3.146l1.232,-3.146l1.155,0l-1.87,4.345l1.958,4.565l-1.155,0l-1.452,-3.355l-1.254,3.355l-1.155,0Z" style="fill:#fff;fill-rule:nonzero;"/><path d="M245.654,245.573l1.035,7.564c0.075,0.528 0.571,0.907 1.099,0.833l7.564,-1.035c0.532,-0.104 0.89,-0.615 0.787,-1.147c-0.097,-0.496 -0.551,-0.846 -1.046,-0.796l-6.587,0.91l-0.909,-6.587c-0.049,-0.542 -0.52,-0.935 -1.062,-0.886c-0.542,0.049 -0.935,0.519 -0.886,1.061c-0.004,0.029 -0.008,0.058 0.005,0.083Z" style="fill:#eee;fill-rule:nonzero;"/><path d="M250.295,247.807c0.074,0.528 0.57,0.907 1.098,0.833l7.564,-1.035c0.532,-0.104 0.89,-0.615 0.787,-1.147c-0.097,-0.496 -0.551,-0.846 -1.046,-0.796l-6.587,0.91l-0.909,-6.587c-0.103,-0.532 -0.622,-0.88 -1.147,-0.787c-0.496,0.097 -0.845,0.55 -0.795,1.045l1.035,7.564Z" style="fill:#eee;fill-rule:nonzero;"/><path d="M238.303,256.435l1.035,7.564c0.085,0.535 0.57,0.907 1.109,0.84l7.563,-1.035c0.533,-0.103 0.891,-0.614 0.787,-1.147c-0.096,-0.496 -0.55,-0.845 -1.056,-0.803l-6.587,0.91l-0.909,-6.587c-0.049,-0.542 -0.52,-0.935 -1.062,-0.886c-0.534,0.038 -0.945,0.512 -0.896,1.054c0.006,0.036 0.012,0.072 0.016,0.09Z" style="fill:#eee;fill-rule:nonzero;"/><path d="M242.943,258.669c0.074,0.528 0.57,0.907 1.099,0.833l7.563,-1.035c0.532,-0.104 0.89,-0.615 0.787,-1.147c-0.097,-0.496 -0.55,-0.846 -1.046,-0.796l-6.597,0.902l-0.91,-6.586c-0.103,-0.533 -0.621,-0.88 -1.146,-0.788c-0.497,0.097 -0.835,0.558 -0.785,1.053l1.035,7.564Z" style="fill:#eee;fill-rule:nonzero;"/><path d="M103,293c2.761,0 5,-2.239 5,-5c0,-2.761 -2.239,-5 -5,-5c-2.761,0 -5,2.239 -5,5c0,2.761 2.239,5 5,5Z" style="fill:#fff;fill-rule:nonzero;"/></g></svg>