<?xml version="1.0" encoding="UTF-8" standalone="no"?><!DOCTYPE svg PUBLIC "-//W3C//DTD SVG 1.1//EN" "http://www.w3.org/Graphics/SVG/1.1/DTD/svg11.dtd"><svg width="100%" height="100%" viewBox="0 0 540 400" version="1.1" xmlns="http://www.w3.org/2000/svg" xmlns:xlink="http://www.w3.org/1999/xlink" xml:space="preserve" xmlns:serif="http://www.serif.com/" style="fill-rule:evenodd;clip-rule:evenodd;stroke-miterlimit:10;"><path d="M285.202,24.262c28.576,-0.331 57.169,-0.836 85.745,-1.167c18.321,-0.226 34.544,4.876 46.724,19.506c5.552,6.67 9.039,14.368 10.566,22.884c4.441,24.957 9.612,49.826 12.822,74.94c2.307,18.025 2.22,36.381 2.637,54.616c0.572,24.782 0.642,49.582 0.867,74.382c0.122,13.132 3.869,24.783 12.388,35.041c13.551,16.301 13.134,42.059 -0.468,58.36c-10.497,12.574 -27.292,16.545 -42.213,9.875c-16.431,-7.35 -30.866,-17.538 -42.959,-30.983c-66.885,-74.33 -133.752,-148.696 -200.741,-222.939c-5.466,-6.061 -11.313,-12.034 -17.888,-16.772c-25.8,-18.565 -62.929,-1.584 -64.265,30.757c-0.434,10.745 -3.037,20.933 -9.456,29.85c-7.374,10.223 -20.977,13.236 -31.873,6.984c-6.42,-3.675 -8.796,-9.544 -7.86,-16.632c0.468,-3.535 1.423,-7.175 3.002,-10.362c12.665,-25.793 26.684,-50.767 45.302,-72.798c9.837,-11.634 21.41,-21.387 33.989,-29.973c15.424,-10.519 32.757,-13.985 50.974,-14.194c28.073,-0.348 105.142,-1.271 112.707,-1.376Z" style="fill:none;fill-rule:nonzero;stroke:#febd02;stroke-width:9px;"/><path d="M272.438,12.69l0.053,3.88l3.879,-0.052l-0.052,-3.88l-3.88,0.052Z" style="fill:#fff;fill-rule:nonzero;"/><path d="M264.79,20.549l0.052,3.88l3.88,-0.052l-0.052,-3.88l-3.88,0.052Z" style="fill:#fff;fill-rule:nonzero;"/><path d="M264.68,12.798l0.052,3.88l3.88,-0.052l-0.052,-3.88l-3.88,0.052Z" style="fill:#fff;fill-rule:nonzero;"/><path d="M268.509,8.872l0.052,3.88l3.88,-0.052l-0.053,-3.88l-3.879,0.052Z" style="fill:#fff;fill-rule:nonzero;"/><path d="M268.606,16.624l0.053,3.88l3.879,-0.052l-0.052,-3.88l-3.88,0.052Z" style="fill:#fff;fill-rule:nonzero;"/><path d="M272.633,28.197l0.053,3.88l3.879,-0.052l-0.052,-3.88l-3.88,0.052Z" style="fill:#fff;fill-rule:nonzero;"/><path d="M264.985,36.066l0.052,3.88l3.88,-0.052l-0.053,-3.88l-3.879,0.052Z" style="fill:#fff;fill-rule:nonzero;"/><path d="M272.524,20.445l0.052,3.88l3.88,-0.052l-0.052,-3.88l-3.88,0.052Z" style="fill:#fff;fill-rule:nonzero;"/><path d="M264.875,28.315l0.052,3.88l3.88,-0.052l-0.052,-3.88l-3.88,0.052Z" style="fill:#fff;fill-rule:nonzero;"/><path d="M268.704,24.379l0.052,3.88l3.879,-0.052l-0.052,-3.88l-3.879,0.052Z" style="fill:#fff;fill-rule:nonzero;"/><path d="M268.811,32.131l0.052,3.88l3.88,-0.052l-0.052,-3.88l-3.88,0.052Z" style="fill:#fff;fill-rule:nonzero;"/><path d="M272.743,35.955l0.052,3.88l3.88,-0.052l-0.053,-3.88l-3.879,0.052Z" style="fill:#fff;fill-rule:nonzero;"/><path d="M268.912,39.889l0.052,3.88l3.88,-0.052l-0.052,-3.88l-3.88,0.052Z" style="fill:#fff;fill-rule:nonzero;"/><path d="M264.725,16.677l0.052,3.88l3.879,-0.052l-0.052,-3.88l-3.879,0.052Z" style="fill:#666;fill-rule:nonzero;"/><path d="M268.66,20.503l0.052,3.88l3.88,-0.052l-0.053,-3.88l-3.879,0.052Z" style="fill:#666;fill-rule:nonzero;"/><path d="M264.626,8.925l0.052,3.88l3.879,-0.052l-0.052,-3.88l-3.879,0.052Z" style="fill:#666;fill-rule:nonzero;"/><path d="M268.55,12.742l0.052,3.88l3.88,-0.052l-0.053,-3.88l-3.879,0.052Z" style="fill:#666;fill-rule:nonzero;"/><path d="M272.378,8.816l0.053,3.88l3.879,-0.052l-0.052,-3.88l-3.88,0.052Z" style="fill:#666;fill-rule:nonzero;"/><path d="M272.486,16.568l0.053,3.88l3.879,-0.052l-0.052,-3.88l-3.88,0.052Z" style="fill:#666;fill-rule:nonzero;"/><path d="M264.919,32.184l0.052,3.88l3.88,-0.052l-0.052,-3.88l-3.88,0.052Z" style="fill:#666;fill-rule:nonzero;"/><path d="M268.855,36.01l0.052,3.88l3.879,-0.052l-0.052,-3.88l-3.879,0.052Z" style="fill:#666;fill-rule:nonzero;"/><path d="M264.82,24.431l0.052,3.88l3.88,-0.052l-0.053,-3.88l-3.879,0.052Z" style="fill:#666;fill-rule:nonzero;"/><path d="M268.744,28.259l0.052,3.88l3.88,-0.052l-0.052,-3.88l-3.88,0.052Z" style="fill:#666;fill-rule:nonzero;"/><path d="M272.573,24.332l0.052,3.88l3.88,-0.052l-0.052,-3.88l-3.88,0.052Z" style="fill:#666;fill-rule:nonzero;"/><path d="M272.681,32.085l0.052,3.88l3.88,-0.052l-0.052,-3.88l-3.88,0.052Z" style="fill:#666;fill-rule:nonzero;"/><path d="M265.028,39.941l0.053,3.88l3.879,-0.052l-0.052,-3.88l-3.88,0.052Z" style="fill:#666;fill-rule:nonzero;"/><path d="M272.782,39.842l0.052,3.88l3.88,-0.052l-0.053,-3.88l-3.879,0.052Z" style="fill:#666;fill-rule:nonzero;"/><path d="M303.334,15.368l5.619,-5.167c0.391,-0.363 0.419,-0.986 0.056,-1.378l-5.167,-5.619c-0.389,-0.378 -1.013,-0.38 -1.391,0.008c-0.352,0.363 -0.38,0.935 -0.056,1.313l4.507,4.889l-4.889,4.507c-0.417,0.35 -0.471,0.96 -0.122,1.377c0.35,0.417 0.961,0.471 1.378,0.122c0.026,-0.013 0.052,-0.026 0.065,-0.052Z" style="fill:#eee;fill-rule:nonzero;"/><path d="M302.519,10.283c0.391,-0.363 0.419,-0.986 0.056,-1.378l-5.167,-5.619c-0.389,-0.378 -1.013,-0.38 -1.391,0.008c-0.352,0.363 -0.38,0.935 -0.056,1.313l4.507,4.889l-4.889,4.507c-0.379,0.389 -0.368,1.013 0.008,1.391c0.363,0.352 0.934,0.38 1.312,0.056l5.62,-5.167Z" style="fill:#eee;fill-rule:nonzero;"/><path d="M316.449,15.203l5.619,-5.167c0.391,-0.376 0.419,-0.986 0.057,-1.391l-5.168,-5.619c-0.388,-0.378 -1.012,-0.38 -1.39,0.008c-0.353,0.363 -0.381,0.935 -0.057,1.326l4.507,4.889l-4.889,4.507c-0.417,0.35 -0.471,0.96 -0.121,1.377c0.336,0.417 0.96,0.484 1.377,0.135c0.026,-0.026 0.052,-0.052 0.065,-0.065Z" style="fill:#eee;fill-rule:nonzero;"/><path d="M315.634,10.119c0.391,-0.363 0.419,-0.986 0.056,-1.378l-5.167,-5.619c-0.389,-0.378 -1.013,-0.38 -1.391,0.008c-0.352,0.363 -0.38,0.935 -0.056,1.313l4.507,4.902l-4.889,4.507c-0.378,0.389 -0.368,1.013 0.008,1.391c0.363,0.352 0.935,0.367 1.313,0.043l5.619,-5.167Z" style="fill:#eee;fill-rule:nonzero;"/><path d="M473,381c2.761,0 5,-2.239 5,-5c0,-2.761 -2.239,-5 -5,-5c-2.761,0 -5,2.239 -5,5c0,2.761 2.239,5 5,5Z" style="fill:#fff;fill-rule:nonzero;"/><path d="M236,231c2.761,0 5,-2.239 5,-5c0,-2.761 -2.239,-5 -5,-5c-2.761,0 -5,2.239 -5,5c0,2.761 2.239,5 5,5Z" style="fill:#fff;fill-rule:nonzero;"/><path d="M33,190c2.761,0 5,-2.239 5,-5c0,-2.761 -2.239,-5 -5,-5c-2.761,0 -5,2.239 -5,5c0,2.761 2.239,5 5,5Z" style="fill:#fff;fill-rule:nonzero;"/><path d="M81,53c2.761,0 5,-2.239 5,-5c0,-2.761 -2.239,-5 -5,-5c-2.761,0 -5,2.239 -5,5c0,2.761 2.239,5 5,5Z" style="fill:#fff;fill-rule:nonzero;"/><path d="M143,85c2.761,0 5,-2.239 5,-5c0,-2.761 -2.239,-5 -5,-5c-2.761,0 -5,2.239 -5,5c0,2.761 2.239,5 5,5Z" style="fill:#fff;fill-rule:nonzero;"/><path d="M160.005,84l0,-8.91l2.046,0c0.403,0 0.752,0.044 1.045,0.132c0.301,0.088 0.55,0.224 0.748,0.407c0.198,0.183 0.345,0.418 0.44,0.704c0.095,0.279 0.143,0.609 0.143,0.99c0,0.367 -0.048,0.686 -0.143,0.957c-0.088,0.264 -0.227,0.473 -0.418,0.627c-0.183,0.154 -0.422,0.253 -0.715,0.297c0.359,0.081 0.649,0.22 0.869,0.418c0.22,0.191 0.381,0.44 0.484,0.748c0.11,0.301 0.165,0.664 0.165,1.089c0,0.381 -0.044,0.73 -0.132,1.045c-0.088,0.315 -0.227,0.583 -0.418,0.803c-0.183,0.22 -0.422,0.392 -0.715,0.517c-0.286,0.117 -0.627,0.176 -1.023,0.176l-2.376,0Zm1.243,-0.891l0.836,0c0.557,0 0.928,-0.128 1.111,-0.385c0.191,-0.264 0.286,-0.686 0.286,-1.265c0,-0.374 -0.051,-0.686 -0.154,-0.935c-0.095,-0.257 -0.253,-0.447 -0.473,-0.572c-0.213,-0.132 -0.502,-0.198 -0.869,-0.198l-0.737,0l0,3.355Zm0,-4.301l0.737,0c0.352,0 0.627,-0.048 0.825,-0.143c0.198,-0.103 0.337,-0.264 0.418,-0.484c0.081,-0.22 0.121,-0.506 0.121,-0.858c0,-0.411 -0.062,-0.708 -0.187,-0.891c-0.125,-0.183 -0.319,-0.297 -0.583,-0.341c-0.264,-0.051 -0.609,-0.077 -1.034,-0.077l-0.297,0l0,2.794Zm4.526,5.192l0,-8.91l1.793,0c0.594,0 1.085,0.081 1.474,0.242c0.388,0.154 0.674,0.407 0.858,0.759c0.19,0.345 0.286,0.799 0.286,1.364c0,0.345 -0.037,0.66 -0.11,0.946c-0.074,0.279 -0.191,0.517 -0.352,0.715c-0.162,0.191 -0.374,0.33 -0.638,0.418l1.265,4.466l-1.199,0l-1.166,-4.18l-0.968,0l0,4.18l-1.243,0Zm1.243,-5.071l0.473,0c0.352,0 0.638,-0.044 0.858,-0.132c0.22,-0.088 0.381,-0.238 0.484,-0.451c0.102,-0.213 0.154,-0.51 0.154,-0.891c0,-0.521 -0.096,-0.895 -0.286,-1.122c-0.191,-0.235 -0.569,-0.352 -1.133,-0.352l-0.55,0l0,2.948Zm6.738,5.17c-0.602,0 -1.082,-0.117 -1.441,-0.352c-0.36,-0.235 -0.616,-0.568 -0.77,-1.001c-0.154,-0.44 -0.231,-0.953 -0.231,-1.54l0,-3.377c0,-0.587 0.077,-1.089 0.231,-1.507c0.161,-0.425 0.418,-0.748 0.77,-0.968c0.359,-0.227 0.839,-0.341 1.441,-0.341c0.601,0 1.078,0.114 1.43,0.341c0.352,0.227 0.605,0.55 0.759,0.968c0.161,0.418 0.242,0.92 0.242,1.507l0,3.388c0,0.579 -0.081,1.085 -0.242,1.518c-0.154,0.433 -0.407,0.77 -0.759,1.012c-0.352,0.235 -0.829,0.352 -1.43,0.352Zm0,-0.979c0.33,0 0.579,-0.066 0.748,-0.198c0.168,-0.139 0.282,-0.33 0.341,-0.572c0.058,-0.249 0.088,-0.539 0.088,-0.869l0,-3.905c0,-0.33 -0.03,-0.612 -0.088,-0.847c-0.059,-0.242 -0.173,-0.425 -0.341,-0.55c-0.169,-0.132 -0.418,-0.198 -0.748,-0.198c-0.33,0 -0.583,0.066 -0.759,0.198c-0.169,0.125 -0.283,0.308 -0.341,0.55c-0.059,0.235 -0.088,0.517 -0.088,0.847l0,3.905c0,0.33 0.029,0.62 0.088,0.869c0.058,0.242 0.172,0.433 0.341,0.572c0.176,0.132 0.429,0.198 0.759,0.198Zm5.929,0.979c-0.601,0 -1.081,-0.117 -1.441,-0.352c-0.359,-0.235 -0.616,-0.568 -0.77,-1.001c-0.154,-0.44 -0.231,-0.953 -0.231,-1.54l0,-3.377c0,-0.587 0.077,-1.089 0.231,-1.507c0.162,-0.425 0.418,-0.748 0.77,-0.968c0.36,-0.227 0.84,-0.341 1.441,-0.341c0.602,0 1.078,0.114 1.43,0.341c0.352,0.227 0.605,0.55 0.759,0.968c0.162,0.418 0.242,0.92 0.242,1.507l0,3.388c0,0.579 -0.08,1.085 -0.242,1.518c-0.154,0.433 -0.407,0.77 -0.759,1.012c-0.352,0.235 -0.828,0.352 -1.43,0.352Zm0,-0.979c0.33,0 0.58,-0.066 0.748,-0.198c0.169,-0.139 0.283,-0.33 0.341,-0.572c0.059,-0.249 0.088,-0.539 0.088,-0.869l0,-3.905c0,-0.33 -0.029,-0.612 -0.088,-0.847c-0.058,-0.242 -0.172,-0.425 -0.341,-0.55c-0.168,-0.132 -0.418,-0.198 -0.748,-0.198c-0.33,0 -0.583,0.066 -0.759,0.198c-0.168,0.125 -0.282,0.308 -0.341,0.55c-0.058,0.235 -0.088,0.517 -0.088,0.847l0,3.905c0,0.33 0.03,0.62 0.088,0.869c0.059,0.242 0.173,0.433 0.341,0.572c0.176,0.132 0.429,0.198 0.759,0.198Zm3.653,0.88l0,-8.91l1.243,0l0,4.202l2.046,-4.202l1.155,0l-1.76,3.927l2.046,4.983l-1.21,0l-1.705,-4.18l-0.572,1.034l0,3.146l-1.243,0Zm5.446,0l0,-8.91l1.243,0l0,8.019l2.277,0l0,0.891l-3.52,0Zm3.888,0l1.892,-8.91l1.199,0l1.903,8.91l-1.177,0l-0.407,-2.244l-1.815,0l-0.429,2.244l-1.166,0Zm1.76,-3.135l1.485,0l-0.748,-4.015l-0.737,4.015Zm4.138,3.135l0,-8.91l0.847,0l2.53,5.918l0,-5.918l1.034,0l0,8.91l-0.792,0l-2.563,-6.083l0,6.083l-1.056,0Zm5.812,0l0,-8.91l1.936,0c0.66,0 1.181,0.103 1.562,0.308c0.389,0.198 0.664,0.499 0.825,0.902c0.169,0.403 0.253,0.906 0.253,1.507l0,3.278c0,0.631 -0.084,1.162 -0.253,1.595c-0.161,0.433 -0.429,0.763 -0.803,0.99c-0.367,0.22 -0.862,0.33 -1.485,0.33l-2.035,0Zm1.243,-0.891l0.704,0c0.455,0 0.777,-0.088 0.968,-0.264c0.191,-0.176 0.304,-0.433 0.341,-0.77c0.044,-0.337 0.066,-0.744 0.066,-1.221l0,-2.893c0,-0.462 -0.029,-0.836 -0.088,-1.122c-0.059,-0.286 -0.187,-0.495 -0.385,-0.627c-0.198,-0.132 -0.51,-0.198 -0.935,-0.198l-0.671,0l0,7.095Zm6.659,0.99c-0.514,0 -0.943,-0.11 -1.287,-0.33c-0.338,-0.22 -0.594,-0.524 -0.77,-0.913c-0.176,-0.389 -0.279,-0.84 -0.308,-1.353l1.1,-0.297c0.022,0.315 0.069,0.62 0.143,0.913c0.08,0.293 0.209,0.535 0.385,0.726c0.176,0.183 0.421,0.275 0.737,0.275c0.322,0 0.564,-0.088 0.726,-0.264c0.168,-0.183 0.253,-0.444 0.253,-0.781c0,-0.403 -0.092,-0.726 -0.275,-0.968c-0.184,-0.249 -0.415,-0.499 -0.693,-0.748l-1.496,-1.32c-0.294,-0.257 -0.51,-0.535 -0.649,-0.836c-0.14,-0.308 -0.209,-0.686 -0.209,-1.133c0,-0.653 0.187,-1.159 0.561,-1.518c0.374,-0.359 0.883,-0.539 1.529,-0.539c0.352,0 0.66,0.048 0.924,0.143c0.271,0.088 0.495,0.227 0.671,0.418c0.183,0.191 0.326,0.433 0.429,0.726c0.11,0.286 0.183,0.623 0.22,1.012l-1.056,0.286c-0.022,-0.293 -0.066,-0.561 -0.132,-0.803c-0.066,-0.249 -0.184,-0.447 -0.352,-0.594c-0.162,-0.154 -0.396,-0.231 -0.704,-0.231c-0.308,0 -0.55,0.084 -0.726,0.253c-0.169,0.161 -0.253,0.403 -0.253,0.726c0,0.271 0.044,0.495 0.132,0.671c0.095,0.176 0.245,0.356 0.451,0.539l1.507,1.32c0.337,0.293 0.634,0.645 0.891,1.056c0.256,0.403 0.385,0.884 0.385,1.441c0,0.44 -0.092,0.821 -0.275,1.144c-0.184,0.315 -0.437,0.557 -0.759,0.726c-0.316,0.169 -0.682,0.253 -1.1,0.253Z" style="fill:#fff;fill-rule:nonzero;"/><path d="M427,27c2.761,0 5,-2.239 5,-5c0,-2.761 -2.239,-5 -5,-5c-2.761,0 -5,2.239 -5,5c0,2.761 2.239,5 5,5Z" style="fill:#fff;fill-rule:nonzero;"/><path d="M445.149,27.099c-0.631,0 -1.122,-0.132 -1.474,-0.396c-0.345,-0.264 -0.587,-0.62 -0.726,-1.067c-0.132,-0.447 -0.198,-0.946 -0.198,-1.496l0,-3.146c0,-0.601 0.066,-1.126 0.198,-1.573c0.139,-0.447 0.381,-0.792 0.726,-1.034c0.352,-0.249 0.843,-0.374 1.474,-0.374c0.557,0 0.997,0.103 1.32,0.308c0.33,0.205 0.564,0.499 0.704,0.88c0.146,0.381 0.22,0.84 0.22,1.375l0,0.704l-1.177,0l0,-0.627c0,-0.33 -0.019,-0.62 -0.055,-0.869c-0.03,-0.257 -0.118,-0.455 -0.264,-0.594c-0.147,-0.139 -0.393,-0.209 -0.737,-0.209c-0.352,0 -0.609,0.077 -0.77,0.231c-0.162,0.147 -0.268,0.359 -0.319,0.638c-0.044,0.271 -0.066,0.59 -0.066,0.957l0,3.531c0,0.447 0.036,0.803 0.11,1.067c0.073,0.257 0.194,0.44 0.363,0.55c0.168,0.11 0.396,0.165 0.682,0.165c0.337,0 0.579,-0.073 0.726,-0.22c0.146,-0.154 0.238,-0.363 0.275,-0.627c0.036,-0.264 0.055,-0.572 0.055,-0.924l0,-0.66l1.177,0l0,0.66c0,0.543 -0.066,1.023 -0.198,1.441c-0.132,0.411 -0.36,0.733 -0.682,0.968c-0.323,0.227 -0.778,0.341 -1.364,0.341Zm5.705,0c-0.602,0 -1.082,-0.117 -1.441,-0.352c-0.36,-0.235 -0.616,-0.568 -0.77,-1.001c-0.154,-0.44 -0.231,-0.953 -0.231,-1.54l0,-3.377c0,-0.587 0.077,-1.089 0.231,-1.507c0.161,-0.425 0.418,-0.748 0.77,-0.968c0.359,-0.227 0.839,-0.341 1.441,-0.341c0.601,0 1.078,0.114 1.43,0.341c0.352,0.227 0.605,0.55 0.759,0.968c0.161,0.418 0.242,0.92 0.242,1.507l0,3.388c0,0.579 -0.081,1.085 -0.242,1.518c-0.154,0.433 -0.407,0.77 -0.759,1.012c-0.352,0.235 -0.829,0.352 -1.43,0.352Zm0,-0.979c0.33,0 0.579,-0.066 0.748,-0.198c0.168,-0.139 0.282,-0.33 0.341,-0.572c0.058,-0.249 0.088,-0.539 0.088,-0.869l0,-3.905c0,-0.33 -0.03,-0.612 -0.088,-0.847c-0.059,-0.242 -0.173,-0.425 -0.341,-0.55c-0.169,-0.132 -0.418,-0.198 -0.748,-0.198c-0.33,0 -0.583,0.066 -0.759,0.198c-0.169,0.125 -0.283,0.308 -0.341,0.55c-0.059,0.235 -0.088,0.517 -0.088,0.847l0,3.905c0,0.33 0.029,0.62 0.088,0.869c0.058,0.242 0.172,0.433 0.341,0.572c0.176,0.132 0.429,0.198 0.759,0.198Zm3.652,0.88l0,-8.91l2.211,0c0.536,0 0.961,0.099 1.276,0.297c0.323,0.191 0.558,0.469 0.704,0.836c0.147,0.367 0.22,0.81 0.22,1.331c0,0.469 -0.084,0.876 -0.253,1.221c-0.161,0.345 -0.403,0.612 -0.726,0.803c-0.322,0.183 -0.726,0.275 -1.21,0.275l-0.979,0l0,4.147l-1.243,0Zm1.243,-5.038l0.572,0c0.36,0 0.642,-0.04 0.847,-0.121c0.206,-0.081 0.352,-0.22 0.44,-0.418c0.088,-0.205 0.132,-0.491 0.132,-0.858c0,-0.425 -0.033,-0.752 -0.099,-0.979c-0.058,-0.227 -0.187,-0.385 -0.385,-0.473c-0.198,-0.088 -0.506,-0.132 -0.924,-0.132l-0.583,0l0,2.981Zm6.144,5.137c-0.514,0 -0.943,-0.11 -1.287,-0.33c-0.338,-0.22 -0.594,-0.524 -0.77,-0.913c-0.176,-0.389 -0.279,-0.84 -0.308,-1.353l1.1,-0.297c0.022,0.315 0.069,0.62 0.143,0.913c0.08,0.293 0.209,0.535 0.385,0.726c0.176,0.183 0.421,0.275 0.737,0.275c0.322,0 0.564,-0.088 0.726,-0.264c0.168,-0.183 0.253,-0.444 0.253,-0.781c0,-0.403 -0.092,-0.726 -0.275,-0.968c-0.184,-0.249 -0.415,-0.499 -0.693,-0.748l-1.496,-1.32c-0.294,-0.257 -0.51,-0.535 -0.649,-0.836c-0.14,-0.308 -0.209,-0.686 -0.209,-1.133c0,-0.653 0.187,-1.159 0.561,-1.518c0.374,-0.359 0.883,-0.539 1.529,-0.539c0.352,0 0.66,0.048 0.924,0.143c0.271,0.088 0.495,0.227 0.671,0.418c0.183,0.191 0.326,0.433 0.429,0.726c0.11,0.286 0.183,0.623 0.22,1.012l-1.056,0.286c-0.022,-0.293 -0.066,-0.561 -0.132,-0.803c-0.066,-0.249 -0.184,-0.447 -0.352,-0.594c-0.162,-0.154 -0.396,-0.231 -0.704,-0.231c-0.308,0 -0.55,0.084 -0.726,0.253c-0.169,0.161 -0.253,0.403 -0.253,0.726c0,0.271 0.044,0.495 0.132,0.671c0.095,0.176 0.245,0.356 0.451,0.539l1.507,1.32c0.337,0.293 0.634,0.645 0.891,1.056c0.256,0.403 0.385,0.884 0.385,1.441c0,0.44 -0.092,0.821 -0.275,1.144c-0.184,0.315 -0.437,0.557 -0.759,0.726c-0.316,0.169 -0.682,0.253 -1.1,0.253Zm3.098,-0.099l0,-8.91l3.454,0l0,0.924l-2.211,0l0,2.948l1.793,0l0,0.88l-1.793,0l0,3.267l2.233,0l0,0.891l-3.476,0Z" style="fill:#fff;fill-rule:nonzero;"/><path d="M171.906,226l-1.452,-8.91l1.034,0l0.957,6.402l1.199,-6.369l0.88,0l1.21,6.402l0.935,-6.435l1.012,0l-1.43,8.91l-0.902,0l-1.243,-6.6l-1.254,6.6l-0.946,0Zm6.859,0l0,-8.91l1.243,0l0,3.85l2.288,0l0,-3.85l1.243,0l0,8.91l-1.243,0l0,-4.169l-2.288,0l0,4.169l-1.243,0Zm6.166,0l0,-8.91l3.454,0l0,0.924l-2.211,0l0,2.948l1.793,0l0,0.88l-1.793,0l0,3.267l2.233,0l0,0.891l-3.476,0Zm3.995,0l1.892,-8.91l1.199,0l1.903,8.91l-1.177,0l-0.407,-2.244l-1.815,0l-0.429,2.244l-1.166,0Zm1.76,-3.135l1.485,0l-0.748,-4.015l-0.737,4.015Zm4.763,3.135l0,-7.986l-1.507,0l0,-0.924l4.213,0l0,0.924l-1.463,0l0,7.986l-1.243,0Zm5.798,0.099c-0.631,0 -1.122,-0.132 -1.474,-0.396c-0.345,-0.264 -0.587,-0.62 -0.726,-1.067c-0.132,-0.447 -0.198,-0.946 -0.198,-1.496l0,-3.146c0,-0.601 0.066,-1.126 0.198,-1.573c0.139,-0.447 0.381,-0.792 0.726,-1.034c0.352,-0.249 0.843,-0.374 1.474,-0.374c0.557,0 0.997,0.103 1.32,0.308c0.33,0.205 0.565,0.499 0.704,0.88c0.147,0.381 0.22,0.84 0.22,1.375l0,0.704l-1.177,0l0,-0.627c0,-0.33 -0.018,-0.62 -0.055,-0.869c-0.029,-0.257 -0.117,-0.455 -0.264,-0.594c-0.147,-0.139 -0.392,-0.209 -0.737,-0.209c-0.352,0 -0.609,0.077 -0.77,0.231c-0.161,0.147 -0.268,0.359 -0.319,0.638c-0.044,0.271 -0.066,0.59 -0.066,0.957l0,3.531c0,0.447 0.037,0.803 0.11,1.067c0.073,0.257 0.194,0.44 0.363,0.55c0.169,0.11 0.396,0.165 0.682,0.165c0.337,0 0.579,-0.073 0.726,-0.22c0.147,-0.154 0.238,-0.363 0.275,-0.627c0.037,-0.264 0.055,-0.572 0.055,-0.924l0,-0.66l1.177,0l0,0.66c0,0.543 -0.066,1.023 -0.198,1.441c-0.132,0.411 -0.359,0.733 -0.682,0.968c-0.323,0.227 -0.777,0.341 -1.364,0.341Zm3.428,-0.099l0,-8.91l1.793,0c0.594,0 1.085,0.081 1.474,0.242c0.389,0.154 0.675,0.407 0.858,0.759c0.191,0.345 0.286,0.799 0.286,1.364c0,0.345 -0.037,0.66 -0.11,0.946c-0.073,0.279 -0.191,0.517 -0.352,0.715c-0.161,0.191 -0.374,0.33 -0.638,0.418l1.265,4.466l-1.199,0l-1.166,-4.18l-0.968,0l0,4.18l-1.243,0Zm1.243,-5.071l0.473,0c0.352,0 0.638,-0.044 0.858,-0.132c0.22,-0.088 0.381,-0.238 0.484,-0.451c0.103,-0.213 0.154,-0.51 0.154,-0.891c0,-0.521 -0.095,-0.895 -0.286,-1.122c-0.191,-0.235 -0.568,-0.352 -1.133,-0.352l-0.55,0l0,2.948Zm6.738,5.17c-0.601,0 -1.081,-0.117 -1.441,-0.352c-0.359,-0.235 -0.616,-0.568 -0.77,-1.001c-0.154,-0.44 -0.231,-0.953 -0.231,-1.54l0,-3.377c0,-0.587 0.077,-1.089 0.231,-1.507c0.162,-0.425 0.418,-0.748 0.77,-0.968c0.36,-0.227 0.84,-0.341 1.441,-0.341c0.602,0 1.078,0.114 1.43,0.341c0.352,0.227 0.605,0.55 0.759,0.968c0.162,0.418 0.242,0.92 0.242,1.507l0,3.388c0,0.579 -0.08,1.085 -0.242,1.518c-0.154,0.433 -0.407,0.77 -0.759,1.012c-0.352,0.235 -0.828,0.352 -1.43,0.352Zm0,-0.979c0.33,0 0.58,-0.066 0.748,-0.198c0.169,-0.139 0.283,-0.33 0.341,-0.572c0.059,-0.249 0.088,-0.539 0.088,-0.869l0,-3.905c0,-0.33 -0.029,-0.612 -0.088,-0.847c-0.058,-0.242 -0.172,-0.425 -0.341,-0.55c-0.168,-0.132 -0.418,-0.198 -0.748,-0.198c-0.33,0 -0.583,0.066 -0.759,0.198c-0.168,0.125 -0.282,0.308 -0.341,0.55c-0.058,0.235 -0.088,0.517 -0.088,0.847l0,3.905c0,0.33 0.03,0.62 0.088,0.869c0.059,0.242 0.173,0.433 0.341,0.572c0.176,0.132 0.429,0.198 0.759,0.198Zm3.653,0.88l0,-8.91l3.443,0l0,0.891l-2.2,0l0,2.97l1.705,0l0,0.88l-1.705,0l0,4.169l-1.243,0Zm5.276,0l0,-7.986l-1.507,0l0,-0.924l4.213,0l0,0.924l-1.463,0l0,7.986l-1.243,0Zm-41.627,11.099c-0.513,0 -0.942,-0.11 -1.287,-0.33c-0.337,-0.22 -0.594,-0.524 -0.77,-0.913c-0.176,-0.389 -0.278,-0.84 -0.308,-1.353l1.1,-0.297c0.022,0.315 0.07,0.62 0.143,0.913c0.081,0.293 0.209,0.535 0.385,0.726c0.176,0.183 0.422,0.275 0.737,0.275c0.323,0 0.565,-0.088 0.726,-0.264c0.169,-0.183 0.253,-0.444 0.253,-0.781c0,-0.403 -0.091,-0.726 -0.275,-0.968c-0.183,-0.249 -0.414,-0.499 -0.693,-0.748l-1.496,-1.32c-0.293,-0.257 -0.509,-0.535 -0.649,-0.836c-0.139,-0.308 -0.209,-0.686 -0.209,-1.133c0,-0.653 0.187,-1.159 0.561,-1.518c0.374,-0.359 0.884,-0.539 1.529,-0.539c0.352,0 0.66,0.048 0.924,0.143c0.272,0.088 0.495,0.227 0.671,0.418c0.184,0.191 0.327,0.433 0.429,0.726c0.11,0.286 0.184,0.623 0.22,1.012l-1.056,0.286c-0.022,-0.293 -0.066,-0.561 -0.132,-0.803c-0.066,-0.249 -0.183,-0.447 -0.352,-0.594c-0.161,-0.154 -0.396,-0.231 -0.704,-0.231c-0.308,0 -0.55,0.084 -0.726,0.253c-0.168,0.161 -0.253,0.403 -0.253,0.726c0,0.271 0.044,0.495 0.132,0.671c0.096,0.176 0.246,0.356 0.451,0.539l1.507,1.32c0.338,0.293 0.635,0.645 0.891,1.056c0.257,0.403 0.385,0.884 0.385,1.441c0,0.44 -0.091,0.821 -0.275,1.144c-0.183,0.315 -0.436,0.557 -0.759,0.726c-0.315,0.169 -0.682,0.253 -1.1,0.253Zm4.077,-0.099l0,-7.986l-1.507,0l0,-0.924l4.213,0l0,0.924l-1.463,0l0,7.986l-1.243,0Zm3.565,0l0,-8.91l1.793,0c0.594,0 1.086,0.081 1.474,0.242c0.389,0.154 0.675,0.407 0.858,0.759c0.191,0.345 0.286,0.799 0.286,1.364c0,0.345 -0.036,0.66 -0.11,0.946c-0.073,0.279 -0.19,0.517 -0.352,0.715c-0.161,0.191 -0.374,0.33 -0.638,0.418l1.265,4.466l-1.199,0l-1.166,-4.18l-0.968,0l0,4.18l-1.243,0Zm1.243,-5.071l0.473,0c0.352,0 0.638,-0.044 0.858,-0.132c0.22,-0.088 0.382,-0.238 0.484,-0.451c0.103,-0.213 0.154,-0.51 0.154,-0.891c0,-0.521 -0.095,-0.895 -0.286,-1.122c-0.19,-0.235 -0.568,-0.352 -1.133,-0.352l-0.55,0l0,2.948Zm3.977,5.071l1.892,-8.91l1.199,0l1.903,8.91l-1.177,0l-0.407,-2.244l-1.815,0l-0.429,2.244l-1.166,0Zm1.76,-3.135l1.485,0l-0.748,-4.015l-0.737,4.015Zm4.205,3.135l0,-8.91l1.221,0l0,8.91l-1.221,0Zm4.785,0.11c-0.557,0 -1.005,-0.117 -1.342,-0.352c-0.33,-0.242 -0.572,-0.59 -0.726,-1.045c-0.147,-0.455 -0.22,-1.001 -0.22,-1.639l0,-2.981c0,-0.653 0.066,-1.206 0.198,-1.661c0.139,-0.462 0.381,-0.814 0.726,-1.056c0.352,-0.242 0.84,-0.363 1.463,-0.363c0.557,0 1.005,0.095 1.342,0.286c0.345,0.183 0.594,0.469 0.748,0.858c0.154,0.381 0.231,0.865 0.231,1.452l0,0.33l-1.166,0l0,-0.275c0,-0.389 -0.026,-0.704 -0.077,-0.946c-0.051,-0.249 -0.158,-0.433 -0.319,-0.55c-0.154,-0.125 -0.4,-0.187 -0.737,-0.187c-0.367,0 -0.634,0.084 -0.803,0.253c-0.161,0.169 -0.264,0.4 -0.308,0.693c-0.037,0.286 -0.055,0.612 -0.055,0.979l0,3.3c0,0.425 0.029,0.781 0.088,1.067c0.066,0.286 0.187,0.499 0.363,0.638c0.176,0.139 0.425,0.209 0.748,0.209c0.323,0 0.572,-0.077 0.748,-0.231c0.176,-0.154 0.297,-0.381 0.363,-0.682c0.066,-0.301 0.099,-0.675 0.099,-1.122l0,-0.616l-1.133,0l0,-0.88l2.255,0l0,4.411l-0.781,0l-0.121,-1.023c-0.117,0.33 -0.301,0.601 -0.55,0.814c-0.249,0.213 -0.594,0.319 -1.034,0.319Zm3.764,-0.11l0,-8.91l1.243,0l0,3.85l2.288,0l0,-3.85l1.243,0l0,8.91l-1.243,0l0,-4.169l-2.288,0l0,4.169l-1.243,0Zm7.145,0l0,-7.986l-1.507,0l0,-0.924l4.213,0l0,0.924l-1.463,0l0,7.986l-1.243,0Z" style="fill:#fff;fill-rule:nonzero;"/><path d="M63.147,35l-1.452,-8.91l1.034,0l0.957,6.402l1.199,-6.369l0.88,0l1.21,6.402l0.935,-6.435l1.012,0l-1.43,8.91l-0.902,0l-1.243,-6.6l-1.254,6.6l-0.946,0Zm9.05,0.099c-0.601,0 -1.082,-0.117 -1.441,-0.352c-0.359,-0.235 -0.616,-0.568 -0.77,-1.001c-0.154,-0.44 -0.231,-0.953 -0.231,-1.54l0,-3.377c0,-0.587 0.077,-1.089 0.231,-1.507c0.161,-0.425 0.418,-0.748 0.77,-0.968c0.359,-0.227 0.84,-0.341 1.441,-0.341c0.601,0 1.078,0.114 1.43,0.341c0.352,0.227 0.605,0.55 0.759,0.968c0.161,0.418 0.242,0.92 0.242,1.507l0,3.388c0,0.579 -0.081,1.085 -0.242,1.518c-0.154,0.433 -0.407,0.77 -0.759,1.012c-0.352,0.235 -0.829,0.352 -1.43,0.352Zm0,-0.979c0.33,0 0.579,-0.066 0.748,-0.198c0.169,-0.139 0.282,-0.33 0.341,-0.572c0.059,-0.249 0.088,-0.539 0.088,-0.869l0,-3.905c0,-0.33 -0.029,-0.612 -0.088,-0.847c-0.059,-0.242 -0.172,-0.425 -0.341,-0.55c-0.169,-0.132 -0.418,-0.198 -0.748,-0.198c-0.33,0 -0.583,0.066 -0.759,0.198c-0.169,0.125 -0.282,0.308 -0.341,0.55c-0.059,0.235 -0.088,0.517 -0.088,0.847l0,3.905c0,0.33 0.029,0.62 0.088,0.869c0.059,0.242 0.172,0.433 0.341,0.572c0.176,0.132 0.429,0.198 0.759,0.198Zm5.93,0.979c-0.602,0 -1.082,-0.117 -1.441,-0.352c-0.36,-0.235 -0.616,-0.568 -0.77,-1.001c-0.154,-0.44 -0.231,-0.953 -0.231,-1.54l0,-3.377c0,-0.587 0.077,-1.089 0.231,-1.507c0.161,-0.425 0.418,-0.748 0.77,-0.968c0.359,-0.227 0.839,-0.341 1.441,-0.341c0.601,0 1.078,0.114 1.43,0.341c0.352,0.227 0.605,0.55 0.759,0.968c0.161,0.418 0.242,0.92 0.242,1.507l0,3.388c0,0.579 -0.081,1.085 -0.242,1.518c-0.154,0.433 -0.407,0.77 -0.759,1.012c-0.352,0.235 -0.829,0.352 -1.43,0.352Zm0,-0.979c0.33,0 0.579,-0.066 0.748,-0.198c0.168,-0.139 0.282,-0.33 0.341,-0.572c0.058,-0.249 0.088,-0.539 0.088,-0.869l0,-3.905c0,-0.33 -0.03,-0.612 -0.088,-0.847c-0.059,-0.242 -0.173,-0.425 -0.341,-0.55c-0.169,-0.132 -0.418,-0.198 -0.748,-0.198c-0.33,0 -0.583,0.066 -0.759,0.198c-0.169,0.125 -0.283,0.308 -0.341,0.55c-0.059,0.235 -0.088,0.517 -0.088,0.847l0,3.905c0,0.33 0.029,0.62 0.088,0.869c0.058,0.242 0.172,0.433 0.341,0.572c0.176,0.132 0.429,0.198 0.759,0.198Zm5.885,0.979c-0.63,0 -1.122,-0.132 -1.474,-0.396c-0.344,-0.264 -0.586,-0.62 -0.726,-1.067c-0.132,-0.447 -0.198,-0.946 -0.198,-1.496l0,-3.146c0,-0.601 0.066,-1.126 0.198,-1.573c0.14,-0.447 0.382,-0.792 0.726,-1.034c0.352,-0.249 0.844,-0.374 1.474,-0.374c0.558,0 0.998,0.103 1.32,0.308c0.33,0.205 0.565,0.499 0.704,0.88c0.147,0.381 0.22,0.84 0.22,1.375l0,0.704l-1.177,0l0,-0.627c0,-0.33 -0.018,-0.62 -0.055,-0.869c-0.029,-0.257 -0.117,-0.455 -0.264,-0.594c-0.146,-0.139 -0.392,-0.209 -0.737,-0.209c-0.352,0 -0.608,0.077 -0.77,0.231c-0.161,0.147 -0.267,0.359 -0.319,0.638c-0.044,0.271 -0.066,0.59 -0.066,0.957l0,3.531c0,0.447 0.037,0.803 0.11,1.067c0.074,0.257 0.195,0.44 0.363,0.55c0.169,0.11 0.396,0.165 0.682,0.165c0.338,0 0.58,-0.073 0.726,-0.22c0.147,-0.154 0.239,-0.363 0.275,-0.627c0.037,-0.264 0.055,-0.572 0.055,-0.924l0,-0.66l1.177,0l0,0.66c0,0.543 -0.066,1.023 -0.198,1.441c-0.132,0.411 -0.359,0.733 -0.682,0.968c-0.322,0.227 -0.777,0.341 -1.364,0.341Zm5.706,0c-0.602,0 -1.082,-0.117 -1.441,-0.352c-0.36,-0.235 -0.616,-0.568 -0.77,-1.001c-0.154,-0.44 -0.231,-0.953 -0.231,-1.54l0,-3.377c0,-0.587 0.077,-1.089 0.231,-1.507c0.161,-0.425 0.418,-0.748 0.77,-0.968c0.359,-0.227 0.839,-0.341 1.441,-0.341c0.601,0 1.078,0.114 1.43,0.341c0.352,0.227 0.605,0.55 0.759,0.968c0.161,0.418 0.242,0.92 0.242,1.507l0,3.388c0,0.579 -0.081,1.085 -0.242,1.518c-0.154,0.433 -0.407,0.77 -0.759,1.012c-0.352,0.235 -0.829,0.352 -1.43,0.352Zm0,-0.979c0.33,0 0.579,-0.066 0.748,-0.198c0.168,-0.139 0.282,-0.33 0.341,-0.572c0.058,-0.249 0.088,-0.539 0.088,-0.869l0,-3.905c0,-0.33 -0.03,-0.612 -0.088,-0.847c-0.059,-0.242 -0.173,-0.425 -0.341,-0.55c-0.169,-0.132 -0.418,-0.198 -0.748,-0.198c-0.33,0 -0.583,0.066 -0.759,0.198c-0.169,0.125 -0.283,0.308 -0.341,0.55c-0.059,0.235 -0.088,0.517 -0.088,0.847l0,3.905c0,0.33 0.029,0.62 0.088,0.869c0.058,0.242 0.172,0.433 0.341,0.572c0.176,0.132 0.429,0.198 0.759,0.198Zm4.631,0.88l0,-7.986l-1.507,0l0,-0.924l4.213,0l0,0.924l-1.463,0l0,7.986l-1.243,0Zm3.565,0l0,-8.91l3.454,0l0,0.924l-2.211,0l0,2.948l1.793,0l0,0.88l-1.793,0l0,3.267l2.233,0l0,0.891l-3.476,0Z" style="fill:#fff;fill-rule:nonzero;"/><path d="M16.033,206l0,-8.91l1.243,0l0,8.019l2.277,0l0,0.891l-3.52,0Zm6.671,0.099c-0.645,0 -1.14,-0.128 -1.485,-0.385c-0.345,-0.257 -0.579,-0.616 -0.704,-1.078c-0.125,-0.469 -0.187,-1.016 -0.187,-1.639l0,-5.907l1.188,0l0,5.962c0,0.381 0.026,0.73 0.077,1.045c0.051,0.315 0.161,0.565 0.33,0.748c0.176,0.183 0.436,0.275 0.781,0.275c0.352,0 0.612,-0.092 0.781,-0.275c0.169,-0.183 0.279,-0.433 0.33,-0.748c0.051,-0.315 0.077,-0.664 0.077,-1.045l0,-5.962l1.177,0l0,5.907c0,0.623 -0.062,1.17 -0.187,1.639c-0.125,0.462 -0.359,0.821 -0.704,1.078c-0.337,0.257 -0.829,0.385 -1.474,0.385Zm3.674,-0.099l0,-8.91l3.443,0l0,0.891l-2.2,0l0,2.97l1.705,0l0,0.88l-1.705,0l0,4.169l-1.243,0Zm4.297,0l0,-8.91l3.443,0l0,0.891l-2.2,0l0,2.97l1.705,0l0,0.88l-1.705,0l0,4.169l-1.243,0Zm4.363,0l0,-8.91l1.221,0l0,8.91l-1.221,0Zm2.662,0l0,-8.91l3.454,0l0,0.924l-2.211,0l0,2.948l1.793,0l0,0.88l-1.793,0l0,3.267l2.233,0l0,0.891l-3.476,0Zm4.48,0l0,-8.91l1.243,0l0,8.019l2.277,0l0,0.891l-3.52,0Zm4.372,0l0,-8.91l1.936,0c0.66,0 1.181,0.103 1.562,0.308c0.389,0.198 0.664,0.499 0.825,0.902c0.169,0.403 0.253,0.906 0.253,1.507l0,3.278c0,0.631 -0.084,1.162 -0.253,1.595c-0.161,0.433 -0.429,0.763 -0.803,0.99c-0.367,0.22 -0.862,0.33 -1.485,0.33l-2.035,0Zm1.243,-0.891l0.704,0c0.455,0 0.777,-0.088 0.968,-0.264c0.191,-0.176 0.304,-0.433 0.341,-0.77c0.044,-0.337 0.066,-0.744 0.066,-1.221l0,-2.893c0,-0.462 -0.029,-0.836 -0.088,-1.122c-0.059,-0.286 -0.187,-0.495 -0.385,-0.627c-0.198,-0.132 -0.51,-0.198 -0.935,-0.198l-0.671,0l0,7.095Z" style="fill:#fff;fill-rule:nonzero;"/><path d="M487.988,381l0,-8.91l2.046,0c0.403,0 0.752,0.044 1.045,0.132c0.301,0.088 0.55,0.224 0.748,0.407c0.198,0.183 0.345,0.418 0.44,0.704c0.095,0.279 0.143,0.609 0.143,0.99c0,0.367 -0.048,0.686 -0.143,0.957c-0.088,0.264 -0.227,0.473 -0.418,0.627c-0.183,0.154 -0.422,0.253 -0.715,0.297c0.359,0.081 0.649,0.22 0.869,0.418c0.22,0.191 0.381,0.44 0.484,0.748c0.11,0.301 0.165,0.664 0.165,1.089c0,0.381 -0.044,0.73 -0.132,1.045c-0.088,0.315 -0.227,0.583 -0.418,0.803c-0.183,0.22 -0.422,0.392 -0.715,0.517c-0.286,0.117 -0.627,0.176 -1.023,0.176l-2.376,0Zm1.243,-0.891l0.836,0c0.557,0 0.928,-0.128 1.111,-0.385c0.191,-0.264 0.286,-0.686 0.286,-1.265c0,-0.374 -0.051,-0.686 -0.154,-0.935c-0.095,-0.257 -0.253,-0.447 -0.473,-0.572c-0.213,-0.132 -0.502,-0.198 -0.869,-0.198l-0.737,0l0,3.355Zm0,-4.301l0.737,0c0.352,0 0.627,-0.048 0.825,-0.143c0.198,-0.103 0.337,-0.264 0.418,-0.484c0.081,-0.22 0.121,-0.506 0.121,-0.858c0,-0.411 -0.062,-0.708 -0.187,-0.891c-0.125,-0.183 -0.319,-0.297 -0.583,-0.341c-0.264,-0.051 -0.609,-0.077 -1.034,-0.077l-0.297,0l0,2.794Zm4.525,5.192l0,-8.91l3.454,0l0,0.924l-2.211,0l0,2.948l1.793,0l0,0.88l-1.793,0l0,3.267l2.233,0l0,0.891l-3.476,0Zm6.713,0.099c-0.631,0 -1.122,-0.132 -1.474,-0.396c-0.345,-0.264 -0.587,-0.62 -0.726,-1.067c-0.132,-0.447 -0.198,-0.946 -0.198,-1.496l0,-3.146c0,-0.601 0.066,-1.126 0.198,-1.573c0.139,-0.447 0.381,-0.792 0.726,-1.034c0.352,-0.249 0.843,-0.374 1.474,-0.374c0.557,0 0.997,0.103 1.32,0.308c0.33,0.205 0.565,0.499 0.704,0.88c0.147,0.381 0.22,0.84 0.22,1.375l0,0.704l-1.177,0l0,-0.627c0,-0.33 -0.018,-0.62 -0.055,-0.869c-0.029,-0.257 -0.117,-0.455 -0.264,-0.594c-0.147,-0.139 -0.392,-0.209 -0.737,-0.209c-0.352,0 -0.609,0.077 -0.77,0.231c-0.161,0.147 -0.268,0.359 -0.319,0.638c-0.044,0.271 -0.066,0.59 -0.066,0.957l0,3.531c0,0.447 0.037,0.803 0.11,1.067c0.073,0.257 0.194,0.44 0.363,0.55c0.169,0.11 0.396,0.165 0.682,0.165c0.337,0 0.579,-0.073 0.726,-0.22c0.147,-0.154 0.238,-0.363 0.275,-0.627c0.037,-0.264 0.055,-0.572 0.055,-0.924l0,-0.66l1.177,0l0,0.66c0,0.543 -0.066,1.023 -0.198,1.441c-0.132,0.411 -0.359,0.733 -0.682,0.968c-0.323,0.227 -0.777,0.341 -1.364,0.341Zm3.428,-0.099l0,-8.91l1.243,0l0,4.202l2.046,-4.202l1.155,0l-1.76,3.927l2.046,4.983l-1.21,0l-1.705,-4.18l-0.572,1.034l0,3.146l-1.243,0Zm5.446,0l0,-8.91l3.454,0l0,0.924l-2.211,0l0,2.948l1.793,0l0,0.88l-1.793,0l0,3.267l2.233,0l0,0.891l-3.476,0Zm5.459,0l0,-7.986l-1.507,0l0,-0.924l4.213,0l0,0.924l-1.463,0l0,7.986l-1.243,0Zm4.544,0l0,-7.986l-1.507,0l0,-0.924l4.213,0l0,0.924l-1.463,0l0,7.986l-1.243,0Zm3.73,-5.995l-0.209,-0.44c0.227,-0.015 0.381,-0.121 0.462,-0.319c0.088,-0.198 0.132,-0.502 0.132,-0.913l-0.583,0l0,-1.243l1.287,0l0,1.067c0,0.572 -0.081,1.019 -0.242,1.342c-0.162,0.315 -0.444,0.484 -0.847,0.506Zm4.224,6.094c-0.513,0 -0.942,-0.11 -1.287,-0.33c-0.337,-0.22 -0.594,-0.524 -0.77,-0.913c-0.176,-0.389 -0.279,-0.84 -0.308,-1.353l1.1,-0.297c0.022,0.315 0.07,0.62 0.143,0.913c0.081,0.293 0.209,0.535 0.385,0.726c0.176,0.183 0.422,0.275 0.737,0.275c0.323,0 0.565,-0.088 0.726,-0.264c0.169,-0.183 0.253,-0.444 0.253,-0.781c0,-0.403 -0.092,-0.726 -0.275,-0.968c-0.183,-0.249 -0.414,-0.499 -0.693,-0.748l-1.496,-1.32c-0.293,-0.257 -0.51,-0.535 -0.649,-0.836c-0.139,-0.308 -0.209,-0.686 -0.209,-1.133c0,-0.653 0.187,-1.159 0.561,-1.518c0.374,-0.359 0.884,-0.539 1.529,-0.539c0.352,0 0.66,0.048 0.924,0.143c0.271,0.088 0.495,0.227 0.671,0.418c0.183,0.191 0.326,0.433 0.429,0.726c0.11,0.286 0.183,0.623 0.22,1.012l-1.056,0.286c-0.022,-0.293 -0.066,-0.561 -0.132,-0.803c-0.066,-0.249 -0.183,-0.447 -0.352,-0.594c-0.161,-0.154 -0.396,-0.231 -0.704,-0.231c-0.308,0 -0.55,0.084 -0.726,0.253c-0.169,0.161 -0.253,0.403 -0.253,0.726c0,0.271 0.044,0.495 0.132,0.671c0.095,0.176 0.246,0.356 0.451,0.539l1.507,1.32c0.337,0.293 0.634,0.645 0.891,1.056c0.257,0.403 0.385,0.884 0.385,1.441c0,0.44 -0.092,0.821 -0.275,1.144c-0.183,0.315 -0.436,0.557 -0.759,0.726c-0.315,0.169 -0.682,0.253 -1.1,0.253Z" style="fill:#fff;fill-rule:nonzero;"/></svg>