<?xml version="1.0" encoding="UTF-8" standalone="no"?><!DOCTYPE svg PUBLIC "-//W3C//DTD SVG 1.1//EN" "http://www.w3.org/Graphics/SVG/1.1/DTD/svg11.dtd"><svg width="100%" height="100%" viewBox="0 0 600 289" version="1.1" xmlns="http://www.w3.org/2000/svg" xmlns:xlink="http://www.w3.org/1999/xlink" xml:space="preserve" xmlns:serif="http://www.serif.com/" style="fill-rule:evenodd;clip-rule:evenodd;stroke-miterlimit:10;"><g><clipPath id="_clip1"><rect x="0" y="-55" width="600" height="400"/></clipPath><g clip-path="url(#_clip1)"><path d="M466.627,75.728c0,0 5.249,-5.697 9.656,-11.388c0,0 6.511,-9.074 16.791,-5.274l59.826,31.01c0,0 18.475,9.068 19.1,30.798c0,0 -0.421,9.28 -1.046,12.657l-8.399,49.574c0,0 -6.505,63.071 -77.675,54.003c0,0 -29.808,-3.8 -38.206,-33.964l-3.151,-11.81c0,0 -1.256,-13.08 -17.212,-6.537l-77.044,22.147c0,0 -13.016,3.377 -30.649,5.697l-226.719,17.296l-8.393,0.212c0,0 -12.805,1.268 -27.499,-14.342c0,0 -16.371,-14.765 -17.212,-31.644l-1.473,-20.674l-6.289,-70.253l-1.575,-20.571c0,0 -3.781,-18.033 10.389,-19.936c0,0 13.858,-4.428 16.377,8.542l8.429,89.834c0,0 2.693,25.258 19.305,32.931c0,0 15.264,11.726 42.198,3.159c0,0 88.882,-39.244 139.16,-54.129c0,0 20.201,-4.133 21.096,-17.405c0,0 2.243,-10.113 -16.611,-11.914l-84.396,-7.666c0,0 -15.71,0 -24.692,10.373l-45.336,60.896c0,0 -12.121,11.279 -20.201,-0.9l-12.571,-13.08c0,0 -4.04,-5.413 -5.387,-15.338l-3.144,-38.344c0,0 -2.693,-24.359 26.483,-25.712l321.859,12.632c0.006,0 34.557,0.508 44.212,-10.88Z" style="fill:none;fill-rule:nonzero;stroke:#febd02;stroke-width:9px;"/><g><path d="M469,54c2.761,0 5,-2.239 5,-5c0,-2.761 -2.239,-5 -5,-5c-2.761,0 -5,2.239 -5,5c0,2.761 2.239,5 5,5Z" style="fill:#fff;fill-rule:nonzero;"/><path d="M546,118c2.761,0 5,-2.239 5,-5c0,-2.761 -2.239,-5 -5,-5c-2.761,0 -5,2.239 -5,5c0,2.761 2.239,5 5,5Z" style="fill:#fff;fill-rule:nonzero;"/><path d="M521,260c2.761,0 5,-2.239 5,-5c0,-2.761 -2.239,-5 -5,-5c-2.761,0 -5,2.239 -5,5c0,2.761 2.239,5 5,5Z" style="fill:#fff;fill-rule:nonzero;"/><path d="M317,234c2.761,0 5,-2.239 5,-5c0,-2.761 -2.239,-5 -5,-5c-2.761,0 -5,2.239 -5,5c0,2.761 2.239,5 5,5Z" style="fill:#fff;fill-rule:nonzero;"/><path d="M105,156c2.761,0 5,-2.239 5,-5c0,-2.761 -2.239,-5 -5,-5c-2.761,0 -5,2.239 -5,5c0,2.761 2.239,5 5,5Z" style="fill:#fff;fill-rule:nonzero;"/><path d="M54,245c2.761,0 5,-2.239 5,-5c0,-2.761 -2.239,-5 -5,-5c-2.761,0 -5,2.239 -5,5c0,2.761 2.239,5 5,5Z" style="fill:#fff;fill-rule:nonzero;"/><path d="M23,48c2.761,0 5,-2.239 5,-5c0,-2.761 -2.239,-5 -5,-5c-2.761,0 -5,2.239 -5,5c0,2.761 2.239,5 5,5Z" style="fill:#fff;fill-rule:nonzero;"/><path d="M444,172c2.761,0 5,-2.239 5,-5c0,-2.761 -2.239,-5 -5,-5c-2.761,0 -5,2.239 -5,5c0,2.761 2.239,5 5,5Z" style="fill:#fff;fill-rule:nonzero;"/><path d="M114,212c2.761,0 5,-2.239 5,-5c0,-2.761 -2.239,-5 -5,-5c-2.761,0 -5,2.239 -5,5c0,2.761 2.239,5 5,5Z" style="fill:#fff;fill-rule:nonzero;"/><path d="M179,119c2.761,0 5,-2.239 5,-5c0,-2.761 -2.239,-5 -5,-5c-2.761,0 -5,2.239 -5,5c0,2.761 2.239,5 5,5Z" style="fill:#fff;fill-rule:nonzero;"/><path d="M274,69c2.761,0 5,-2.239 5,-5c0,-2.761 -2.239,-5 -5,-5c-2.761,0 -5,2.239 -5,5c0,2.761 2.239,5 5,5Z" style="fill:#fff;fill-rule:nonzero;"/><path d="M305,130c2.761,0 5,-2.239 5,-5c0,-2.761 -2.239,-5 -5,-5c-2.761,0 -5,2.239 -5,5c0,2.761 2.239,5 5,5Z" style="fill:#fff;fill-rule:nonzero;"/><path d="M455,105c2.761,0 5,-2.239 5,-5c0,-2.761 -2.239,-5 -5,-5c-2.761,0 -5,2.239 -5,5c0,2.761 2.239,5 5,5Z" style="fill:#fff;fill-rule:nonzero;"/><path d="M82,66c2.761,0 5,-2.239 5,-5c0,-2.761 -2.239,-5 -5,-5c-2.761,0 -5,2.239 -5,5c0,2.761 2.239,5 5,5Z" style="fill:#fff;fill-rule:nonzero;"/></g><g><path d="M236.674,205.891l0.449,3.854l3.854,-0.45l-0.45,-3.853l-3.853,0.449Z" style="fill:#fff;fill-rule:nonzero;"/><path d="M229.87,214.492l0.449,3.854l3.854,-0.45l-0.449,-3.853l-3.854,0.449Z" style="fill:#fff;fill-rule:nonzero;"/><path d="M228.967,206.793l0.449,3.854l3.854,-0.45l-0.449,-3.854l-3.854,0.45Z" style="fill:#fff;fill-rule:nonzero;"/><path d="M232.373,202.495l0.45,3.854l3.853,-0.449l-0.449,-3.854l-3.854,0.449Z" style="fill:#fff;fill-rule:nonzero;"/><path d="M233.265,210.197l0.449,3.854l3.854,-0.449l-0.45,-3.854l-3.853,0.449Z" style="fill:#fff;fill-rule:nonzero;"/><path d="M238.455,221.296l0.449,3.854l3.854,-0.449l-0.449,-3.854l-3.854,0.449Z" style="fill:#fff;fill-rule:nonzero;"/><path d="M231.652,229.907l0.449,3.854l3.854,-0.449l-0.449,-3.854l-3.854,0.449Z" style="fill:#fff;fill-rule:nonzero;"/><path d="M237.552,213.596l0.45,3.854l3.853,-0.449l-0.449,-3.854l-3.854,0.449Z" style="fill:#fff;fill-rule:nonzero;"/><path d="M230.749,222.208l0.449,3.854l3.854,-0.449l-0.449,-3.854l-3.854,0.449Z" style="fill:#fff;fill-rule:nonzero;"/><path d="M234.155,217.9l0.449,3.854l3.854,-0.449l-0.449,-3.854l-3.854,0.449Z" style="fill:#fff;fill-rule:nonzero;"/><path d="M235.056,225.601l0.449,3.854l3.854,-0.449l-0.449,-3.854l-3.854,0.449Z" style="fill:#fff;fill-rule:nonzero;"/><path d="M239.358,229.002l0.449,3.854l3.854,-0.449l-0.449,-3.854l-3.854,0.449Z" style="fill:#fff;fill-rule:nonzero;"/><path d="M235.95,233.308l0.449,3.853l3.854,-0.449l-0.449,-3.854l-3.854,0.45Z" style="fill:#fff;fill-rule:nonzero;"/><path d="M229.408,210.647l0.449,3.853l3.854,-0.449l-0.449,-3.854l-3.854,0.45Z" style="fill:#666;fill-rule:nonzero;"/><path d="M233.714,214.05l0.45,3.854l3.853,-0.45l-0.449,-3.853l-3.854,0.449Z" style="fill:#666;fill-rule:nonzero;"/><path d="M228.516,202.945l0.449,3.854l3.854,-0.449l-0.449,-3.854l-3.854,0.449Z" style="fill:#666;fill-rule:nonzero;"/><path d="M232.81,206.341l0.449,3.854l3.854,-0.45l-0.449,-3.853l-3.854,0.449Z" style="fill:#666;fill-rule:nonzero;"/><path d="M236.217,202.043l0.449,3.854l3.854,-0.449l-0.449,-3.854l-3.854,0.449Z" style="fill:#666;fill-rule:nonzero;"/><path d="M237.118,209.744l0.449,3.854l3.854,-0.45l-0.449,-3.853l-3.854,0.449Z" style="fill:#666;fill-rule:nonzero;"/><path d="M231.189,226.052l0.45,3.854l3.853,-0.45l-0.449,-3.853l-3.854,0.449Z" style="fill:#666;fill-rule:nonzero;"/><path d="M235.496,229.455l0.449,3.854l3.854,-0.449l-0.449,-3.854l-3.854,0.449Z" style="fill:#666;fill-rule:nonzero;"/><path d="M230.297,218.351l0.449,3.854l3.854,-0.45l-0.449,-3.854l-3.854,0.45Z" style="fill:#666;fill-rule:nonzero;"/><path d="M234.593,221.756l0.449,3.854l3.854,-0.449l-0.449,-3.854l-3.854,0.449Z" style="fill:#666;fill-rule:nonzero;"/><path d="M237.999,217.458l0.449,3.854l3.854,-0.449l-0.449,-3.854l-3.854,0.449Z" style="fill:#666;fill-rule:nonzero;"/><path d="M238.9,225.159l0.449,3.854l3.854,-0.449l-0.449,-3.854l-3.854,0.449Z" style="fill:#666;fill-rule:nonzero;"/><path d="M232.093,233.758l0.449,3.854l3.854,-0.45l-0.45,-3.853l-3.853,0.449Z" style="fill:#666;fill-rule:nonzero;"/><path d="M239.795,232.865l0.449,3.854l3.854,-0.449l-0.449,-3.854l-3.854,0.449Z" style="fill:#666;fill-rule:nonzero;"/></g><g><path d="M453.891,36l0,-8.91l0.847,0l2.53,5.918l0,-5.918l1.034,0l0,8.91l-0.792,0l-2.563,-6.083l0,6.083l-1.056,0Zm5.812,0l0,-8.91l3.454,0l0,0.924l-2.211,0l0,2.948l1.793,0l0,0.88l-1.793,0l0,3.267l2.233,0l0,0.891l-3.476,0Zm4.479,0l0,-8.91l1.243,0l0,8.019l2.277,0l0,0.891l-3.52,0Zm6.473,0.099c-0.513,0 -0.942,-0.11 -1.287,-0.33c-0.337,-0.22 -0.594,-0.524 -0.77,-0.913c-0.176,-0.389 -0.278,-0.84 -0.308,-1.353l1.1,-0.297c0.022,0.315 0.07,0.62 0.143,0.913c0.081,0.293 0.209,0.535 0.385,0.726c0.176,0.183 0.422,0.275 0.737,0.275c0.323,0 0.565,-0.088 0.726,-0.264c0.169,-0.183 0.253,-0.444 0.253,-0.781c0,-0.403 -0.091,-0.726 -0.275,-0.968c-0.183,-0.249 -0.414,-0.499 -0.693,-0.748l-1.496,-1.32c-0.293,-0.257 -0.509,-0.535 -0.649,-0.836c-0.139,-0.308 -0.209,-0.686 -0.209,-1.133c0,-0.653 0.187,-1.159 0.561,-1.518c0.374,-0.359 0.884,-0.539 1.529,-0.539c0.352,0 0.66,0.048 0.924,0.143c0.272,0.088 0.495,0.227 0.671,0.418c0.184,0.191 0.327,0.433 0.429,0.726c0.11,0.286 0.184,0.623 0.22,1.012l-1.056,0.286c-0.022,-0.293 -0.066,-0.561 -0.132,-0.803c-0.066,-0.249 -0.183,-0.447 -0.352,-0.594c-0.161,-0.154 -0.396,-0.231 -0.704,-0.231c-0.308,0 -0.55,0.084 -0.726,0.253c-0.168,0.161 -0.253,0.403 -0.253,0.726c0,0.271 0.044,0.495 0.132,0.671c0.096,0.176 0.246,0.356 0.451,0.539l1.507,1.32c0.338,0.293 0.635,0.645 0.891,1.056c0.257,0.403 0.385,0.884 0.385,1.441c0,0.44 -0.091,0.821 -0.275,1.144c-0.183,0.315 -0.436,0.557 -0.759,0.726c-0.315,0.169 -0.682,0.253 -1.1,0.253Zm5.376,0c-0.602,0 -1.082,-0.117 -1.441,-0.352c-0.36,-0.235 -0.616,-0.568 -0.77,-1.001c-0.154,-0.44 -0.231,-0.953 -0.231,-1.54l0,-3.377c0,-0.587 0.077,-1.089 0.231,-1.507c0.161,-0.425 0.418,-0.748 0.77,-0.968c0.359,-0.227 0.839,-0.341 1.441,-0.341c0.601,0 1.078,0.114 1.43,0.341c0.352,0.227 0.605,0.55 0.759,0.968c0.161,0.418 0.242,0.92 0.242,1.507l0,3.388c0,0.579 -0.081,1.085 -0.242,1.518c-0.154,0.433 -0.407,0.77 -0.759,1.012c-0.352,0.235 -0.829,0.352 -1.43,0.352Zm0,-0.979c0.33,0 0.579,-0.066 0.748,-0.198c0.168,-0.139 0.282,-0.33 0.341,-0.572c0.058,-0.249 0.088,-0.539 0.088,-0.869l0,-3.905c0,-0.33 -0.03,-0.612 -0.088,-0.847c-0.059,-0.242 -0.173,-0.425 -0.341,-0.55c-0.169,-0.132 -0.418,-0.198 -0.748,-0.198c-0.33,0 -0.583,0.066 -0.759,0.198c-0.169,0.125 -0.283,0.308 -0.341,0.55c-0.059,0.235 -0.088,0.517 -0.088,0.847l0,3.905c0,0.33 0.029,0.62 0.088,0.869c0.058,0.242 0.172,0.433 0.341,0.572c0.176,0.132 0.429,0.198 0.759,0.198Zm3.652,0.88l0,-8.91l0.847,0l2.53,5.918l0,-5.918l1.034,0l0,8.91l-0.792,0l-2.563,-6.083l0,6.083l-1.056,0Z" style="fill:#fff;fill-rule:nonzero;"/><path d="M508.022,275.805c-0.631,0 -1.122,-0.132 -1.474,-0.396c-0.345,-0.264 -0.587,-0.62 -0.726,-1.067c-0.132,-0.447 -0.198,-0.946 -0.198,-1.496l0,-3.146c0,-0.601 0.066,-1.126 0.198,-1.573c0.139,-0.447 0.381,-0.792 0.726,-1.034c0.352,-0.249 0.843,-0.374 1.474,-0.374c0.557,0 0.997,0.103 1.32,0.308c0.33,0.205 0.564,0.499 0.704,0.88c0.146,0.381 0.22,0.84 0.22,1.375l0,0.704l-1.177,0l0,-0.627c0,-0.33 -0.019,-0.62 -0.055,-0.869c-0.03,-0.257 -0.118,-0.455 -0.264,-0.594c-0.147,-0.139 -0.393,-0.209 -0.737,-0.209c-0.352,0 -0.609,0.077 -0.77,0.231c-0.162,0.147 -0.268,0.359 -0.319,0.638c-0.044,0.271 -0.066,0.59 -0.066,0.957l0,3.531c0,0.447 0.036,0.803 0.11,1.067c0.073,0.257 0.194,0.44 0.363,0.55c0.168,0.11 0.396,0.165 0.682,0.165c0.337,0 0.579,-0.073 0.726,-0.22c0.146,-0.154 0.238,-0.363 0.275,-0.627c0.036,-0.264 0.055,-0.572 0.055,-0.924l0,-0.66l1.177,0l0,0.66c0,0.543 -0.066,1.023 -0.198,1.441c-0.132,0.411 -0.36,0.733 -0.682,0.968c-0.323,0.227 -0.778,0.341 -1.364,0.341Zm5.705,0c-0.602,0 -1.082,-0.117 -1.441,-0.352c-0.36,-0.235 -0.616,-0.568 -0.77,-1.001c-0.154,-0.44 -0.231,-0.953 -0.231,-1.54l0,-3.377c0,-0.587 0.077,-1.089 0.231,-1.507c0.161,-0.425 0.418,-0.748 0.77,-0.968c0.359,-0.227 0.839,-0.341 1.441,-0.341c0.601,0 1.078,0.114 1.43,0.341c0.352,0.227 0.605,0.55 0.759,0.968c0.161,0.418 0.242,0.92 0.242,1.507l0,3.388c0,0.579 -0.081,1.085 -0.242,1.518c-0.154,0.433 -0.407,0.77 -0.759,1.012c-0.352,0.235 -0.829,0.352 -1.43,0.352Zm0,-0.979c0.33,0 0.579,-0.066 0.748,-0.198c0.168,-0.139 0.282,-0.33 0.341,-0.572c0.058,-0.249 0.088,-0.539 0.088,-0.869l0,-3.905c0,-0.33 -0.03,-0.612 -0.088,-0.847c-0.059,-0.242 -0.173,-0.425 -0.341,-0.55c-0.169,-0.132 -0.418,-0.198 -0.748,-0.198c-0.33,0 -0.583,0.066 -0.759,0.198c-0.169,0.125 -0.283,0.308 -0.341,0.55c-0.059,0.235 -0.088,0.517 -0.088,0.847l0,3.905c0,0.33 0.029,0.62 0.088,0.869c0.058,0.242 0.172,0.433 0.341,0.572c0.176,0.132 0.429,0.198 0.759,0.198Zm3.652,0.88l0,-8.91l1.793,0c0.594,0 1.086,0.081 1.474,0.242c0.389,0.154 0.675,0.407 0.858,0.759c0.191,0.345 0.286,0.799 0.286,1.364c0,0.345 -0.036,0.66 -0.11,0.946c-0.073,0.279 -0.19,0.517 -0.352,0.715c-0.161,0.191 -0.374,0.33 -0.638,0.418l1.265,4.466l-1.199,0l-1.166,-4.18l-0.968,0l0,4.18l-1.243,0Zm1.243,-5.071l0.473,0c0.352,0 0.638,-0.044 0.858,-0.132c0.22,-0.088 0.382,-0.238 0.484,-0.451c0.103,-0.213 0.154,-0.51 0.154,-0.891c0,-0.521 -0.095,-0.895 -0.286,-1.122c-0.19,-0.235 -0.568,-0.352 -1.133,-0.352l-0.55,0l0,2.948Zm3.977,5.071l1.892,-8.91l1.199,0l1.903,8.91l-1.177,0l-0.407,-2.244l-1.815,0l-0.429,2.244l-1.166,0Zm1.76,-3.135l1.485,0l-0.748,-4.015l-0.737,4.015Zm4.117,3.135l0.165,-8.91l1.221,0l1.573,7.227l1.584,-7.227l1.21,0l0.165,8.91l-1.001,0l-0.099,-6.468l-1.507,6.468l-0.704,0l-1.496,-6.468l-0.099,6.468l-1.012,0Z" style="fill:#fff;fill-rule:nonzero;"/><path d="M331.086,233.099c-0.513,0 -0.942,-0.11 -1.287,-0.33c-0.337,-0.22 -0.594,-0.524 -0.77,-0.913c-0.176,-0.389 -0.279,-0.84 -0.308,-1.353l1.1,-0.297c0.022,0.315 0.07,0.62 0.143,0.913c0.081,0.293 0.209,0.535 0.385,0.726c0.176,0.183 0.422,0.275 0.737,0.275c0.323,0 0.565,-0.088 0.726,-0.264c0.169,-0.183 0.253,-0.444 0.253,-0.781c0,-0.403 -0.092,-0.726 -0.275,-0.968c-0.183,-0.249 -0.414,-0.499 -0.693,-0.748l-1.496,-1.32c-0.293,-0.257 -0.51,-0.535 -0.649,-0.836c-0.139,-0.308 -0.209,-0.686 -0.209,-1.133c0,-0.653 0.187,-1.159 0.561,-1.518c0.374,-0.359 0.884,-0.539 1.529,-0.539c0.352,0 0.66,0.048 0.924,0.143c0.271,0.088 0.495,0.227 0.671,0.418c0.183,0.191 0.326,0.433 0.429,0.726c0.11,0.286 0.183,0.623 0.22,1.012l-1.056,0.286c-0.022,-0.293 -0.066,-0.561 -0.132,-0.803c-0.066,-0.249 -0.183,-0.447 -0.352,-0.594c-0.161,-0.154 -0.396,-0.231 -0.704,-0.231c-0.308,0 -0.55,0.084 -0.726,0.253c-0.169,0.161 -0.253,0.403 -0.253,0.726c0,0.271 0.044,0.495 0.132,0.671c0.095,0.176 0.246,0.356 0.451,0.539l1.507,1.32c0.337,0.293 0.634,0.645 0.891,1.056c0.257,0.403 0.385,0.884 0.385,1.441c0,0.44 -0.092,0.821 -0.275,1.144c-0.183,0.315 -0.436,0.557 -0.759,0.726c-0.315,0.169 -0.682,0.253 -1.1,0.253Zm3.098,-0.099l0,-8.91l3.454,0l0,0.924l-2.211,0l0,2.948l1.793,0l0,0.88l-1.793,0l0,3.267l2.233,0l0,0.891l-3.476,0Zm4.48,0l0,-8.91l0.847,0l2.53,5.918l0,-5.918l1.034,0l0,8.91l-0.792,0l-2.563,-6.083l0,6.083l-1.056,0Zm5.811,0l0,-8.91l0.847,0l2.53,5.918l0,-5.918l1.034,0l0,8.91l-0.792,0l-2.563,-6.083l0,6.083l-1.056,0Zm5.328,0l1.892,-8.91l1.199,0l1.903,8.91l-1.177,0l-0.407,-2.244l-1.815,0l-0.429,2.244l-1.166,0Zm1.76,-3.135l1.485,0l-0.748,-4.015l-0.737,4.015Zm8.752,3.234c-0.513,0 -0.942,-0.11 -1.287,-0.33c-0.337,-0.22 -0.594,-0.524 -0.77,-0.913c-0.176,-0.389 -0.278,-0.84 -0.308,-1.353l1.1,-0.297c0.022,0.315 0.07,0.62 0.143,0.913c0.081,0.293 0.209,0.535 0.385,0.726c0.176,0.183 0.422,0.275 0.737,0.275c0.323,0 0.565,-0.088 0.726,-0.264c0.169,-0.183 0.253,-0.444 0.253,-0.781c0,-0.403 -0.091,-0.726 -0.275,-0.968c-0.183,-0.249 -0.414,-0.499 -0.693,-0.748l-1.496,-1.32c-0.293,-0.257 -0.509,-0.535 -0.649,-0.836c-0.139,-0.308 -0.209,-0.686 -0.209,-1.133c0,-0.653 0.187,-1.159 0.561,-1.518c0.374,-0.359 0.884,-0.539 1.529,-0.539c0.352,0 0.66,0.048 0.924,0.143c0.272,0.088 0.495,0.227 0.671,0.418c0.184,0.191 0.327,0.433 0.429,0.726c0.11,0.286 0.184,0.623 0.22,1.012l-1.056,0.286c-0.022,-0.293 -0.066,-0.561 -0.132,-0.803c-0.066,-0.249 -0.183,-0.447 -0.352,-0.594c-0.161,-0.154 -0.396,-0.231 -0.704,-0.231c-0.308,0 -0.55,0.084 -0.726,0.253c-0.168,0.161 -0.253,0.403 -0.253,0.726c0,0.271 0.044,0.495 0.132,0.671c0.096,0.176 0.246,0.356 0.451,0.539l1.507,1.32c0.338,0.293 0.635,0.645 0.891,1.056c0.257,0.403 0.385,0.884 0.385,1.441c0,0.44 -0.091,0.821 -0.275,1.144c-0.183,0.315 -0.436,0.557 -0.759,0.726c-0.315,0.169 -0.682,0.253 -1.1,0.253Zm4.078,-0.099l0,-7.986l-1.507,0l0,-0.924l4.213,0l0,0.924l-1.463,0l0,7.986l-1.243,0Zm3.565,0l0,-8.91l1.793,0c0.594,0 1.085,0.081 1.474,0.242c0.388,0.154 0.674,0.407 0.858,0.759c0.19,0.345 0.286,0.799 0.286,1.364c0,0.345 -0.037,0.66 -0.11,0.946c-0.074,0.279 -0.191,0.517 -0.352,0.715c-0.162,0.191 -0.374,0.33 -0.638,0.418l1.265,4.466l-1.199,0l-1.166,-4.18l-0.968,0l0,4.18l-1.243,0Zm1.243,-5.071l0.473,0c0.352,0 0.638,-0.044 0.858,-0.132c0.22,-0.088 0.381,-0.238 0.484,-0.451c0.102,-0.213 0.154,-0.51 0.154,-0.891c0,-0.521 -0.096,-0.895 -0.286,-1.122c-0.191,-0.235 -0.569,-0.352 -1.133,-0.352l-0.55,0l0,2.948Zm3.977,5.071l1.892,-8.91l1.199,0l1.903,8.91l-1.177,0l-0.407,-2.244l-1.815,0l-0.429,2.244l-1.166,0Zm1.76,-3.135l1.485,0l-0.748,-4.015l-0.737,4.015Zm4.204,3.135l0,-8.91l1.221,0l0,8.91l-1.221,0Zm4.785,0.11c-0.557,0 -1.004,-0.117 -1.342,-0.352c-0.33,-0.242 -0.572,-0.59 -0.726,-1.045c-0.146,-0.455 -0.22,-1.001 -0.22,-1.639l0,-2.981c0,-0.653 0.066,-1.206 0.198,-1.661c0.14,-0.462 0.382,-0.814 0.726,-1.056c0.352,-0.242 0.84,-0.363 1.463,-0.363c0.558,0 1.005,0.095 1.342,0.286c0.345,0.183 0.594,0.469 0.748,0.858c0.154,0.381 0.231,0.865 0.231,1.452l0,0.33l-1.166,0l0,-0.275c0,-0.389 -0.025,-0.704 -0.077,-0.946c-0.051,-0.249 -0.157,-0.433 -0.319,-0.55c-0.154,-0.125 -0.399,-0.187 -0.737,-0.187c-0.366,0 -0.634,0.084 -0.803,0.253c-0.161,0.169 -0.264,0.4 -0.308,0.693c-0.036,0.286 -0.055,0.612 -0.055,0.979l0,3.3c0,0.425 0.03,0.781 0.088,1.067c0.066,0.286 0.187,0.499 0.363,0.638c0.176,0.139 0.426,0.209 0.748,0.209c0.323,0 0.572,-0.077 0.748,-0.231c0.176,-0.154 0.297,-0.381 0.363,-0.682c0.066,-0.301 0.099,-0.675 0.099,-1.122l0,-0.616l-1.133,0l0,-0.88l2.255,0l0,4.411l-0.781,0l-0.121,-1.023c-0.117,0.33 -0.3,0.601 -0.55,0.814c-0.249,0.213 -0.594,0.319 -1.034,0.319Zm3.764,-0.11l0,-8.91l1.243,0l0,3.85l2.288,0l0,-3.85l1.243,0l0,8.91l-1.243,0l0,-4.169l-2.288,0l0,4.169l-1.243,0Zm7.145,0l0,-7.986l-1.507,0l0,-0.924l4.213,0l0,0.924l-1.463,0l0,7.986l-1.243,0Z" style="fill:#fff;fill-rule:nonzero;"/><path d="M125.144,208l0,-8.91l2.211,0c0.536,0 0.961,0.099 1.276,0.297c0.323,0.191 0.558,0.469 0.704,0.836c0.147,0.367 0.22,0.81 0.22,1.331c0,0.469 -0.084,0.876 -0.253,1.221c-0.161,0.345 -0.403,0.612 -0.726,0.803c-0.322,0.183 -0.726,0.275 -1.21,0.275l-0.979,0l0,4.147l-1.243,0Zm1.243,-5.038l0.572,0c0.36,0 0.642,-0.04 0.847,-0.121c0.206,-0.081 0.352,-0.22 0.44,-0.418c0.088,-0.205 0.132,-0.491 0.132,-0.858c0,-0.425 -0.033,-0.752 -0.099,-0.979c-0.058,-0.227 -0.187,-0.385 -0.385,-0.473c-0.198,-0.088 -0.506,-0.132 -0.924,-0.132l-0.583,0l0,2.981Zm3.139,5.038l1.892,-8.91l1.199,0l1.903,8.91l-1.177,0l-0.407,-2.244l-1.815,0l-0.429,2.244l-1.166,0Zm1.76,-3.135l1.485,0l-0.748,-4.015l-0.737,4.015Zm4.138,3.135l0,-8.91l1.243,0l0,8.019l2.277,0l0,0.891l-3.52,0Zm4.351,0l0.165,-8.91l1.221,0l1.573,7.227l1.584,-7.227l1.21,0l0.165,8.91l-1.001,0l-0.099,-6.468l-1.507,6.468l-0.704,0l-1.496,-6.468l-0.099,6.468l-1.012,0Zm7.283,0l0,-8.91l3.454,0l0,0.924l-2.211,0l0,2.948l1.793,0l0,0.88l-1.793,0l0,3.267l2.233,0l0,0.891l-3.476,0Zm4.48,0l0,-8.91l1.793,0c0.594,0 1.085,0.081 1.474,0.242c0.388,0.154 0.674,0.407 0.858,0.759c0.19,0.345 0.286,0.799 0.286,1.364c0,0.345 -0.037,0.66 -0.11,0.946c-0.074,0.279 -0.191,0.517 -0.352,0.715c-0.162,0.191 -0.374,0.33 -0.638,0.418l1.265,4.466l-1.199,0l-1.166,-4.18l-0.968,0l0,4.18l-1.243,0Zm1.243,-5.071l0.473,0c0.352,0 0.638,-0.044 0.858,-0.132c0.22,-0.088 0.381,-0.238 0.484,-0.451c0.102,-0.213 0.154,-0.51 0.154,-0.891c0,-0.521 -0.096,-0.895 -0.286,-1.122c-0.191,-0.235 -0.569,-0.352 -1.133,-0.352l-0.55,0l0,2.948Z" style="fill:#fff;fill-rule:nonzero;"/><path d="M188.703,118l0,-8.91l1.243,0l0,3.85l2.288,0l0,-3.85l1.243,0l0,8.91l-1.243,0l0,-4.169l-2.288,0l0,4.169l-1.243,0Zm5.682,0l1.892,-8.91l1.199,0l1.903,8.91l-1.177,0l-0.407,-2.244l-1.815,0l-0.429,2.244l-1.166,0Zm1.76,-3.135l1.485,0l-0.748,-4.015l-0.737,4.015Zm4.116,3.135l0.165,-8.91l1.221,0l1.573,7.227l1.584,-7.227l1.21,0l0.165,8.91l-1.001,0l-0.099,-6.468l-1.507,6.468l-0.704,0l-1.496,-6.468l-0.099,6.468l-1.012,0Zm7.35,0l0,-8.91l1.221,0l0,8.91l-1.221,0Zm2.662,0l0,-8.91l1.243,0l0,8.019l2.277,0l0,0.891l-3.52,0Zm5.104,0l0,-7.986l-1.507,0l0,-0.924l4.213,0l0,0.924l-1.463,0l0,7.986l-1.243,0Zm5.842,0.099c-0.601,0 -1.082,-0.117 -1.441,-0.352c-0.359,-0.235 -0.616,-0.568 -0.77,-1.001c-0.154,-0.44 -0.231,-0.953 -0.231,-1.54l0,-3.377c0,-0.587 0.077,-1.089 0.231,-1.507c0.161,-0.425 0.418,-0.748 0.77,-0.968c0.359,-0.227 0.84,-0.341 1.441,-0.341c0.601,0 1.078,0.114 1.43,0.341c0.352,0.227 0.605,0.55 0.759,0.968c0.161,0.418 0.242,0.92 0.242,1.507l0,3.388c0,0.579 -0.081,1.085 -0.242,1.518c-0.154,0.433 -0.407,0.77 -0.759,1.012c-0.352,0.235 -0.829,0.352 -1.43,0.352Zm0,-0.979c0.33,0 0.579,-0.066 0.748,-0.198c0.169,-0.139 0.282,-0.33 0.341,-0.572c0.059,-0.249 0.088,-0.539 0.088,-0.869l0,-3.905c0,-0.33 -0.029,-0.612 -0.088,-0.847c-0.059,-0.242 -0.172,-0.425 -0.341,-0.55c-0.169,-0.132 -0.418,-0.198 -0.748,-0.198c-0.33,0 -0.583,0.066 -0.759,0.198c-0.169,0.125 -0.282,0.308 -0.341,0.55c-0.059,0.235 -0.088,0.517 -0.088,0.847l0,3.905c0,0.33 0.029,0.62 0.088,0.869c0.059,0.242 0.172,0.433 0.341,0.572c0.176,0.132 0.429,0.198 0.759,0.198Zm3.653,0.88l0,-8.91l0.847,0l2.53,5.918l0,-5.918l1.034,0l0,8.91l-0.792,0l-2.563,-6.083l0,6.083l-1.056,0Z" style="fill:#fff;fill-rule:nonzero;"/><path d="M93.952,139.099c-0.601,0 -1.082,-0.117 -1.441,-0.352c-0.359,-0.235 -0.616,-0.568 -0.77,-1.001c-0.154,-0.44 -0.231,-0.953 -0.231,-1.54l0,-3.377c0,-0.587 0.077,-1.089 0.231,-1.507c0.161,-0.425 0.418,-0.748 0.77,-0.968c0.359,-0.227 0.84,-0.341 1.441,-0.341c0.601,0 1.078,0.114 1.43,0.341c0.352,0.227 0.605,0.55 0.759,0.968c0.161,0.418 0.242,0.92 0.242,1.507l0,3.388c0,0.579 -0.081,1.085 -0.242,1.518c-0.154,0.433 -0.407,0.77 -0.759,1.012c-0.352,0.235 -0.829,0.352 -1.43,0.352Zm0,-0.979c0.33,0 0.579,-0.066 0.748,-0.198c0.169,-0.139 0.282,-0.33 0.341,-0.572c0.059,-0.249 0.088,-0.539 0.088,-0.869l0,-3.905c0,-0.33 -0.029,-0.612 -0.088,-0.847c-0.059,-0.242 -0.172,-0.425 -0.341,-0.55c-0.169,-0.132 -0.418,-0.198 -0.748,-0.198c-0.33,0 -0.583,0.066 -0.759,0.198c-0.169,0.125 -0.282,0.308 -0.341,0.55c-0.059,0.235 -0.088,0.517 -0.088,0.847l0,3.905c0,0.33 0.029,0.62 0.088,0.869c0.059,0.242 0.172,0.433 0.341,0.572c0.176,0.132 0.429,0.198 0.759,0.198Zm5.776,0.99c-0.557,0 -1.005,-0.117 -1.342,-0.352c-0.33,-0.242 -0.572,-0.59 -0.726,-1.045c-0.147,-0.455 -0.22,-1.001 -0.22,-1.639l0,-2.981c0,-0.653 0.066,-1.206 0.198,-1.661c0.139,-0.462 0.381,-0.814 0.726,-1.056c0.352,-0.242 0.84,-0.363 1.463,-0.363c0.558,0 1.005,0.095 1.342,0.286c0.345,0.183 0.594,0.469 0.748,0.858c0.154,0.381 0.231,0.865 0.231,1.452l0,0.33l-1.166,0l0,-0.275c0,-0.389 -0.025,-0.704 -0.077,-0.946c-0.051,-0.249 -0.157,-0.433 -0.319,-0.55c-0.154,-0.125 -0.399,-0.187 -0.737,-0.187c-0.367,0 -0.634,0.084 -0.803,0.253c-0.161,0.169 -0.264,0.4 -0.308,0.693c-0.037,0.286 -0.055,0.612 -0.055,0.979l0,3.3c0,0.425 0.029,0.781 0.088,1.067c0.066,0.286 0.187,0.499 0.363,0.638c0.176,0.139 0.425,0.209 0.748,0.209c0.323,0 0.572,-0.077 0.748,-0.231c0.176,-0.154 0.297,-0.381 0.363,-0.682c0.066,-0.301 0.099,-0.675 0.099,-1.122l0,-0.616l-1.133,0l0,-0.88l2.255,0l0,4.411l-0.781,0l-0.121,-1.023c-0.117,0.33 -0.3,0.601 -0.55,0.814c-0.249,0.213 -0.594,0.319 -1.034,0.319Zm5.887,0c-0.557,0 -1.005,-0.117 -1.342,-0.352c-0.33,-0.242 -0.572,-0.59 -0.726,-1.045c-0.147,-0.455 -0.22,-1.001 -0.22,-1.639l0,-2.981c0,-0.653 0.066,-1.206 0.198,-1.661c0.139,-0.462 0.381,-0.814 0.726,-1.056c0.352,-0.242 0.84,-0.363 1.463,-0.363c0.557,0 1.005,0.095 1.342,0.286c0.345,0.183 0.594,0.469 0.748,0.858c0.154,0.381 0.231,0.865 0.231,1.452l0,0.33l-1.166,0l0,-0.275c0,-0.389 -0.026,-0.704 -0.077,-0.946c-0.051,-0.249 -0.158,-0.433 -0.319,-0.55c-0.154,-0.125 -0.4,-0.187 -0.737,-0.187c-0.367,0 -0.634,0.084 -0.803,0.253c-0.161,0.169 -0.264,0.4 -0.308,0.693c-0.037,0.286 -0.055,0.612 -0.055,0.979l0,3.3c0,0.425 0.029,0.781 0.088,1.067c0.066,0.286 0.187,0.499 0.363,0.638c0.176,0.139 0.425,0.209 0.748,0.209c0.323,0 0.572,-0.077 0.748,-0.231c0.176,-0.154 0.297,-0.381 0.363,-0.682c0.066,-0.301 0.099,-0.675 0.099,-1.122l0,-0.616l-1.133,0l0,-0.88l2.255,0l0,4.411l-0.781,0l-0.121,-1.023c-0.117,0.33 -0.301,0.601 -0.55,0.814c-0.249,0.213 -0.594,0.319 -1.034,0.319Zm3.83,-0.11l0,-8.91l1.221,0l0,8.91l-1.221,0Zm2.662,0l0,-8.91l3.454,0l0,0.924l-2.211,0l0,2.948l1.793,0l0,0.88l-1.793,0l0,3.267l2.233,0l0,0.891l-3.476,0Zm6.581,0.099c-0.514,0 -0.943,-0.11 -1.287,-0.33c-0.338,-0.22 -0.594,-0.524 -0.77,-0.913c-0.176,-0.389 -0.279,-0.84 -0.308,-1.353l1.1,-0.297c0.022,0.315 0.069,0.62 0.143,0.913c0.08,0.293 0.209,0.535 0.385,0.726c0.176,0.183 0.421,0.275 0.737,0.275c0.322,0 0.564,-0.088 0.726,-0.264c0.168,-0.183 0.253,-0.444 0.253,-0.781c0,-0.403 -0.092,-0.726 -0.275,-0.968c-0.184,-0.249 -0.415,-0.499 -0.693,-0.748l-1.496,-1.32c-0.294,-0.257 -0.51,-0.535 -0.649,-0.836c-0.14,-0.308 -0.209,-0.686 -0.209,-1.133c0,-0.653 0.187,-1.159 0.561,-1.518c0.374,-0.359 0.883,-0.539 1.529,-0.539c0.352,0 0.66,0.048 0.924,0.143c0.271,0.088 0.495,0.227 0.671,0.418c0.183,0.191 0.326,0.433 0.429,0.726c0.11,0.286 0.183,0.623 0.22,1.012l-1.056,0.286c-0.022,-0.293 -0.066,-0.561 -0.132,-0.803c-0.066,-0.249 -0.184,-0.447 -0.352,-0.594c-0.162,-0.154 -0.396,-0.231 -0.704,-0.231c-0.308,0 -0.55,0.084 -0.726,0.253c-0.169,0.161 -0.253,0.403 -0.253,0.726c0,0.271 0.044,0.495 0.132,0.671c0.095,0.176 0.245,0.356 0.451,0.539l1.507,1.32c0.337,0.293 0.634,0.645 0.891,1.056c0.256,0.403 0.385,0.884 0.385,1.441c0,0.44 -0.092,0.821 -0.275,1.144c-0.184,0.315 -0.437,0.557 -0.759,0.726c-0.316,0.169 -0.682,0.253 -1.1,0.253Z" style="fill:#fff;fill-rule:nonzero;"/><path d="M9.497,32l-1.452,-8.91l1.034,0l0.957,6.402l1.199,-6.369l0.88,0l1.21,6.402l0.935,-6.435l1.012,0l-1.43,8.91l-0.902,0l-1.243,-6.6l-1.254,6.6l-0.946,0Zm6.925,0l0,-8.91l1.221,0l0,8.91l-1.221,0Zm2.662,0l0,-8.91l1.243,0l0,8.019l2.277,0l0,0.891l-3.52,0Zm6.473,0.099c-0.513,0 -0.942,-0.11 -1.287,-0.33c-0.337,-0.22 -0.594,-0.524 -0.77,-0.913c-0.176,-0.389 -0.279,-0.84 -0.308,-1.353l1.1,-0.297c0.022,0.315 0.07,0.62 0.143,0.913c0.081,0.293 0.209,0.535 0.385,0.726c0.176,0.183 0.422,0.275 0.737,0.275c0.323,0 0.565,-0.088 0.726,-0.264c0.169,-0.183 0.253,-0.444 0.253,-0.781c0,-0.403 -0.092,-0.726 -0.275,-0.968c-0.183,-0.249 -0.414,-0.499 -0.693,-0.748l-1.496,-1.32c-0.293,-0.257 -0.51,-0.535 -0.649,-0.836c-0.139,-0.308 -0.209,-0.686 -0.209,-1.133c0,-0.653 0.187,-1.159 0.561,-1.518c0.374,-0.359 0.884,-0.539 1.529,-0.539c0.352,0 0.66,0.048 0.924,0.143c0.271,0.088 0.495,0.227 0.671,0.418c0.183,0.191 0.326,0.433 0.429,0.726c0.11,0.286 0.183,0.623 0.22,1.012l-1.056,0.286c-0.022,-0.293 -0.066,-0.561 -0.132,-0.803c-0.066,-0.249 -0.183,-0.447 -0.352,-0.594c-0.161,-0.154 -0.396,-0.231 -0.704,-0.231c-0.308,0 -0.55,0.084 -0.726,0.253c-0.169,0.161 -0.253,0.403 -0.253,0.726c0,0.271 0.044,0.495 0.132,0.671c0.095,0.176 0.246,0.356 0.451,0.539l1.507,1.32c0.337,0.293 0.634,0.645 0.891,1.056c0.257,0.403 0.385,0.884 0.385,1.441c0,0.44 -0.092,0.821 -0.275,1.144c-0.183,0.315 -0.436,0.557 -0.759,0.726c-0.315,0.169 -0.682,0.253 -1.1,0.253Zm5.375,0c-0.601,0 -1.082,-0.117 -1.441,-0.352c-0.359,-0.235 -0.616,-0.568 -0.77,-1.001c-0.154,-0.44 -0.231,-0.953 -0.231,-1.54l0,-3.377c0,-0.587 0.077,-1.089 0.231,-1.507c0.161,-0.425 0.418,-0.748 0.77,-0.968c0.359,-0.227 0.84,-0.341 1.441,-0.341c0.601,0 1.078,0.114 1.43,0.341c0.352,0.227 0.605,0.55 0.759,0.968c0.161,0.418 0.242,0.92 0.242,1.507l0,3.388c0,0.579 -0.081,1.085 -0.242,1.518c-0.154,0.433 -0.407,0.77 -0.759,1.012c-0.352,0.235 -0.829,0.352 -1.43,0.352Zm0,-0.979c0.33,0 0.579,-0.066 0.748,-0.198c0.169,-0.139 0.282,-0.33 0.341,-0.572c0.059,-0.249 0.088,-0.539 0.088,-0.869l0,-3.905c0,-0.33 -0.029,-0.612 -0.088,-0.847c-0.059,-0.242 -0.172,-0.425 -0.341,-0.55c-0.169,-0.132 -0.418,-0.198 -0.748,-0.198c-0.33,0 -0.583,0.066 -0.759,0.198c-0.169,0.125 -0.282,0.308 -0.341,0.55c-0.059,0.235 -0.088,0.517 -0.088,0.847l0,3.905c0,0.33 0.029,0.62 0.088,0.869c0.059,0.242 0.172,0.433 0.341,0.572c0.176,0.132 0.429,0.198 0.759,0.198Zm3.653,0.88l0,-8.91l0.847,0l2.53,5.918l0,-5.918l1.034,0l0,8.91l-0.792,0l-2.563,-6.083l0,6.083l-1.056,0Z" style="fill:#fff;fill-rule:nonzero;"/><path d="M64.48,50l-1.452,-8.91l1.034,0l0.957,6.402l1.199,-6.369l0.88,0l1.21,6.402l0.935,-6.435l1.012,0l-1.43,8.91l-0.902,0l-1.243,-6.6l-1.254,6.6l-0.946,0Zm6.925,0l0,-8.91l1.221,0l0,8.91l-1.221,0Zm2.662,0l0,-8.91l1.243,0l0,8.019l2.277,0l0,0.891l-3.52,0Zm4.372,0l0,-8.91l1.243,0l0,8.019l2.277,0l0,0.891l-3.52,0Zm4.438,0l0,-8.91l1.221,0l0,8.91l-1.221,0Zm2.178,0l1.892,-8.91l1.199,0l1.903,8.91l-1.177,0l-0.407,-2.244l-1.815,0l-0.429,2.244l-1.166,0Zm1.76,-3.135l1.485,0l-0.748,-4.015l-0.737,4.015Zm4.116,3.135l0.165,-8.91l1.221,0l1.573,7.227l1.584,-7.227l1.21,0l0.165,8.91l-1.001,0l-0.099,-6.468l-1.507,6.468l-0.704,0l-1.496,-6.468l-0.099,6.468l-1.012,0Zm9.385,0.099c-0.513,0 -0.942,-0.11 -1.287,-0.33c-0.337,-0.22 -0.594,-0.524 -0.77,-0.913c-0.176,-0.389 -0.279,-0.84 -0.308,-1.353l1.1,-0.297c0.022,0.315 0.07,0.62 0.143,0.913c0.081,0.293 0.209,0.535 0.385,0.726c0.176,0.183 0.422,0.275 0.737,0.275c0.323,0 0.565,-0.088 0.726,-0.264c0.169,-0.183 0.253,-0.444 0.253,-0.781c0,-0.403 -0.091,-0.726 -0.275,-0.968c-0.183,-0.249 -0.414,-0.499 -0.693,-0.748l-1.496,-1.32c-0.293,-0.257 -0.51,-0.535 -0.649,-0.836c-0.139,-0.308 -0.209,-0.686 -0.209,-1.133c0,-0.653 0.187,-1.159 0.561,-1.518c0.374,-0.359 0.884,-0.539 1.529,-0.539c0.352,0 0.66,0.048 0.924,0.143c0.272,0.088 0.495,0.227 0.671,0.418c0.184,0.191 0.327,0.433 0.429,0.726c0.11,0.286 0.184,0.623 0.22,1.012l-1.056,0.286c-0.022,-0.293 -0.066,-0.561 -0.132,-0.803c-0.066,-0.249 -0.183,-0.447 -0.352,-0.594c-0.161,-0.154 -0.396,-0.231 -0.704,-0.231c-0.308,0 -0.55,0.084 -0.726,0.253c-0.169,0.161 -0.253,0.403 -0.253,0.726c0,0.271 0.044,0.495 0.132,0.671c0.095,0.176 0.246,0.356 0.451,0.539l1.507,1.32c0.338,0.293 0.635,0.645 0.891,1.056c0.257,0.403 0.385,0.884 0.385,1.441c0,0.44 -0.091,0.821 -0.275,1.144c-0.183,0.315 -0.436,0.557 -0.759,0.726c-0.315,0.169 -0.682,0.253 -1.1,0.253Z" style="fill:#fff;fill-rule:nonzero;"/><path d="M38.775,260l0,-8.91l1.793,0c0.594,0 1.085,0.081 1.474,0.242c0.389,0.154 0.675,0.407 0.858,0.759c0.191,0.345 0.286,0.799 0.286,1.364c0,0.345 -0.037,0.66 -0.11,0.946c-0.073,0.279 -0.191,0.517 -0.352,0.715c-0.161,0.191 -0.374,0.33 -0.638,0.418l1.265,4.466l-1.199,0l-1.166,-4.18l-0.968,0l0,4.18l-1.243,0Zm1.243,-5.071l0.473,0c0.352,0 0.638,-0.044 0.858,-0.132c0.22,-0.088 0.381,-0.238 0.484,-0.451c0.103,-0.213 0.154,-0.51 0.154,-0.891c0,-0.521 -0.095,-0.895 -0.286,-1.122c-0.191,-0.235 -0.568,-0.352 -1.133,-0.352l-0.55,0l0,2.948Zm4.527,5.071l0,-8.91l1.221,0l0,8.91l-1.221,0Zm4.896,0.099c-0.631,0 -1.122,-0.132 -1.474,-0.396c-0.345,-0.264 -0.587,-0.62 -0.726,-1.067c-0.132,-0.447 -0.198,-0.946 -0.198,-1.496l0,-3.146c0,-0.601 0.066,-1.126 0.198,-1.573c0.139,-0.447 0.381,-0.792 0.726,-1.034c0.352,-0.249 0.843,-0.374 1.474,-0.374c0.557,0 0.997,0.103 1.32,0.308c0.33,0.205 0.565,0.499 0.704,0.88c0.147,0.381 0.22,0.84 0.22,1.375l0,0.704l-1.177,0l0,-0.627c0,-0.33 -0.018,-0.62 -0.055,-0.869c-0.029,-0.257 -0.117,-0.455 -0.264,-0.594c-0.147,-0.139 -0.392,-0.209 -0.737,-0.209c-0.352,0 -0.609,0.077 -0.77,0.231c-0.161,0.147 -0.268,0.359 -0.319,0.638c-0.044,0.271 -0.066,0.59 -0.066,0.957l0,3.531c0,0.447 0.037,0.803 0.11,1.067c0.073,0.257 0.194,0.44 0.363,0.55c0.169,0.11 0.396,0.165 0.682,0.165c0.337,0 0.579,-0.073 0.726,-0.22c0.147,-0.154 0.238,-0.363 0.275,-0.627c0.037,-0.264 0.055,-0.572 0.055,-0.924l0,-0.66l1.177,0l0,0.66c0,0.543 -0.066,1.023 -0.198,1.441c-0.132,0.411 -0.359,0.733 -0.682,0.968c-0.323,0.227 -0.777,0.341 -1.364,0.341Zm3.428,-0.099l0,-8.91l1.243,0l0,3.85l2.288,0l0,-3.85l1.243,0l0,8.91l-1.243,0l0,-4.169l-2.288,0l0,4.169l-1.243,0Zm6.166,0l0,-8.91l3.454,0l0,0.924l-2.211,0l0,2.948l1.793,0l0,0.88l-1.793,0l0,3.267l2.233,0l0,0.891l-3.476,0Zm6.581,0.099c-0.513,0 -0.942,-0.11 -1.287,-0.33c-0.337,-0.22 -0.594,-0.524 -0.77,-0.913c-0.176,-0.389 -0.279,-0.84 -0.308,-1.353l1.1,-0.297c0.022,0.315 0.07,0.62 0.143,0.913c0.081,0.293 0.209,0.535 0.385,0.726c0.176,0.183 0.422,0.275 0.737,0.275c0.323,0 0.565,-0.088 0.726,-0.264c0.169,-0.183 0.253,-0.444 0.253,-0.781c0,-0.403 -0.092,-0.726 -0.275,-0.968c-0.183,-0.249 -0.414,-0.499 -0.693,-0.748l-1.496,-1.32c-0.293,-0.257 -0.51,-0.535 -0.649,-0.836c-0.139,-0.308 -0.209,-0.686 -0.209,-1.133c0,-0.653 0.187,-1.159 0.561,-1.518c0.374,-0.359 0.884,-0.539 1.529,-0.539c0.352,0 0.66,0.048 0.924,0.143c0.271,0.088 0.495,0.227 0.671,0.418c0.183,0.191 0.326,0.433 0.429,0.726c0.11,0.286 0.183,0.623 0.22,1.012l-1.056,0.286c-0.022,-0.293 -0.066,-0.561 -0.132,-0.803c-0.066,-0.249 -0.183,-0.447 -0.352,-0.594c-0.161,-0.154 -0.396,-0.231 -0.704,-0.231c-0.308,0 -0.55,0.084 -0.726,0.253c-0.169,0.161 -0.253,0.403 -0.253,0.726c0,0.271 0.044,0.495 0.132,0.671c0.095,0.176 0.246,0.356 0.451,0.539l1.507,1.32c0.337,0.293 0.634,0.645 0.891,1.056c0.257,0.403 0.385,0.884 0.385,1.441c0,0.44 -0.092,0.821 -0.275,1.144c-0.183,0.315 -0.436,0.557 -0.759,0.726c-0.315,0.169 -0.682,0.253 -1.1,0.253Z" style="fill:#fff;fill-rule:nonzero;"/><path d="M534.829,133l0,-8.91l2.046,0c0.403,0 0.751,0.044 1.045,0.132c0.3,0.088 0.55,0.224 0.748,0.407c0.198,0.183 0.344,0.418 0.44,0.704c0.095,0.279 0.143,0.609 0.143,0.99c0,0.367 -0.048,0.686 -0.143,0.957c-0.088,0.264 -0.228,0.473 -0.418,0.627c-0.184,0.154 -0.422,0.253 -0.715,0.297c0.359,0.081 0.649,0.22 0.869,0.418c0.22,0.191 0.381,0.44 0.484,0.748c0.11,0.301 0.165,0.664 0.165,1.089c0,0.381 -0.044,0.73 -0.132,1.045c-0.088,0.315 -0.228,0.583 -0.418,0.803c-0.184,0.22 -0.422,0.392 -0.715,0.517c-0.286,0.117 -0.627,0.176 -1.023,0.176l-2.376,0Zm1.243,-0.891l0.836,0c0.557,0 0.927,-0.128 1.111,-0.385c0.19,-0.264 0.286,-0.686 0.286,-1.265c0,-0.374 -0.052,-0.686 -0.154,-0.935c-0.096,-0.257 -0.253,-0.447 -0.473,-0.572c-0.213,-0.132 -0.503,-0.198 -0.869,-0.198l-0.737,0l0,3.355Zm0,-4.301l0.737,0c0.352,0 0.627,-0.048 0.825,-0.143c0.198,-0.103 0.337,-0.264 0.418,-0.484c0.08,-0.22 0.121,-0.506 0.121,-0.858c0,-0.411 -0.063,-0.708 -0.187,-0.891c-0.125,-0.183 -0.319,-0.297 -0.583,-0.341c-0.264,-0.051 -0.609,-0.077 -1.034,-0.077l-0.297,0l0,2.794Zm6.802,5.291c-0.601,0 -1.081,-0.117 -1.441,-0.352c-0.359,-0.235 -0.616,-0.568 -0.77,-1.001c-0.154,-0.44 -0.231,-0.953 -0.231,-1.54l0,-3.377c0,-0.587 0.077,-1.089 0.231,-1.507c0.162,-0.425 0.418,-0.748 0.77,-0.968c0.36,-0.227 0.84,-0.341 1.441,-0.341c0.602,0 1.078,0.114 1.43,0.341c0.352,0.227 0.605,0.55 0.759,0.968c0.162,0.418 0.242,0.92 0.242,1.507l0,3.388c0,0.579 -0.08,1.085 -0.242,1.518c-0.154,0.433 -0.407,0.77 -0.759,1.012c-0.352,0.235 -0.828,0.352 -1.43,0.352Zm0,-0.979c0.33,0 0.58,-0.066 0.748,-0.198c0.169,-0.139 0.283,-0.33 0.341,-0.572c0.059,-0.249 0.088,-0.539 0.088,-0.869l0,-3.905c0,-0.33 -0.029,-0.612 -0.088,-0.847c-0.058,-0.242 -0.172,-0.425 -0.341,-0.55c-0.168,-0.132 -0.418,-0.198 -0.748,-0.198c-0.33,0 -0.583,0.066 -0.759,0.198c-0.168,0.125 -0.282,0.308 -0.341,0.55c-0.058,0.235 -0.088,0.517 -0.088,0.847l0,3.905c0,0.33 0.03,0.62 0.088,0.869c0.059,0.242 0.173,0.433 0.341,0.572c0.176,0.132 0.429,0.198 0.759,0.198Zm3.631,0.88l0.165,-8.91l1.221,0l1.573,7.227l1.584,-7.227l1.21,0l0.165,8.91l-1.001,0l-0.099,-6.468l-1.507,6.468l-0.704,0l-1.496,-6.468l-0.099,6.468l-1.012,0Zm7.284,0l0,-8.91l2.046,0c0.403,0 0.751,0.044 1.045,0.132c0.3,0.088 0.55,0.224 0.748,0.407c0.198,0.183 0.344,0.418 0.44,0.704c0.095,0.279 0.143,0.609 0.143,0.99c0,0.367 -0.048,0.686 -0.143,0.957c-0.088,0.264 -0.228,0.473 -0.418,0.627c-0.184,0.154 -0.422,0.253 -0.715,0.297c0.359,0.081 0.649,0.22 0.869,0.418c0.22,0.191 0.381,0.44 0.484,0.748c0.11,0.301 0.165,0.664 0.165,1.089c0,0.381 -0.044,0.73 -0.132,1.045c-0.088,0.315 -0.228,0.583 -0.418,0.803c-0.184,0.22 -0.422,0.392 -0.715,0.517c-0.286,0.117 -0.627,0.176 -1.023,0.176l-2.376,0Zm1.243,-0.891l0.836,0c0.557,0 0.927,-0.128 1.111,-0.385c0.19,-0.264 0.286,-0.686 0.286,-1.265c0,-0.374 -0.052,-0.686 -0.154,-0.935c-0.096,-0.257 -0.253,-0.447 -0.473,-0.572c-0.213,-0.132 -0.503,-0.198 -0.869,-0.198l-0.737,0l0,3.355Zm0,-4.301l0.737,0c0.352,0 0.627,-0.048 0.825,-0.143c0.198,-0.103 0.337,-0.264 0.418,-0.484c0.08,-0.22 0.121,-0.506 0.121,-0.858c0,-0.411 -0.063,-0.708 -0.187,-0.891c-0.125,-0.183 -0.319,-0.297 -0.583,-0.341c-0.264,-0.051 -0.609,-0.077 -1.034,-0.077l-0.297,0l0,2.794Zm-18.313,16.192l0,-8.91l1.243,0l0,3.85l2.288,0l0,-3.85l1.243,0l0,8.91l-1.243,0l0,-4.169l-2.288,0l0,4.169l-1.243,0Zm8.443,0.099c-0.601,0 -1.081,-0.117 -1.441,-0.352c-0.359,-0.235 -0.616,-0.568 -0.77,-1.001c-0.154,-0.44 -0.231,-0.953 -0.231,-1.54l0,-3.377c0,-0.587 0.077,-1.089 0.231,-1.507c0.162,-0.425 0.418,-0.748 0.77,-0.968c0.36,-0.227 0.84,-0.341 1.441,-0.341c0.602,0 1.078,0.114 1.43,0.341c0.352,0.227 0.605,0.55 0.759,0.968c0.162,0.418 0.242,0.92 0.242,1.507l0,3.388c0,0.579 -0.08,1.085 -0.242,1.518c-0.154,0.433 -0.407,0.77 -0.759,1.012c-0.352,0.235 -0.828,0.352 -1.43,0.352Zm0,-0.979c0.33,0 0.58,-0.066 0.748,-0.198c0.169,-0.139 0.283,-0.33 0.341,-0.572c0.059,-0.249 0.088,-0.539 0.088,-0.869l0,-3.905c0,-0.33 -0.029,-0.612 -0.088,-0.847c-0.058,-0.242 -0.172,-0.425 -0.341,-0.55c-0.168,-0.132 -0.418,-0.198 -0.748,-0.198c-0.33,0 -0.583,0.066 -0.759,0.198c-0.168,0.125 -0.282,0.308 -0.341,0.55c-0.058,0.235 -0.088,0.517 -0.088,0.847l0,3.905c0,0.33 0.03,0.62 0.088,0.869c0.059,0.242 0.173,0.433 0.341,0.572c0.176,0.132 0.429,0.198 0.759,0.198Zm3.653,0.88l0,-8.91l1.243,0l0,8.019l2.277,0l0,0.891l-3.52,0Zm4.372,0l0,-8.91l3.454,0l0,0.924l-2.211,0l0,2.948l1.793,0l0,0.88l-1.793,0l0,3.267l2.233,0l0,0.891l-3.476,0Z" style="fill:#fff;fill-rule:nonzero;"/><path d="M425.019,156l0.165,-8.91l1.221,0l1.573,7.227l1.584,-7.227l1.21,0l0.165,8.91l-1.001,0l-0.099,-6.468l-1.507,6.468l-0.704,0l-1.496,-6.468l-0.099,6.468l-1.012,0Zm9.582,0.099c-0.645,0 -1.14,-0.128 -1.485,-0.385c-0.344,-0.257 -0.579,-0.616 -0.704,-1.078c-0.124,-0.469 -0.187,-1.016 -0.187,-1.639l0,-5.907l1.188,0l0,5.962c0,0.381 0.026,0.73 0.077,1.045c0.052,0.315 0.162,0.565 0.33,0.748c0.176,0.183 0.437,0.275 0.781,0.275c0.352,0 0.613,-0.092 0.781,-0.275c0.169,-0.183 0.279,-0.433 0.33,-0.748c0.052,-0.315 0.077,-0.664 0.077,-1.045l0,-5.962l1.177,0l0,5.907c0,0.623 -0.062,1.17 -0.187,1.639c-0.124,0.462 -0.359,0.821 -0.704,1.078c-0.337,0.257 -0.828,0.385 -1.474,0.385Zm3.674,-0.099l0,-8.91l1.793,0c0.594,0 1.085,0.081 1.474,0.242c0.389,0.154 0.675,0.407 0.858,0.759c0.191,0.345 0.286,0.799 0.286,1.364c0,0.345 -0.037,0.66 -0.11,0.946c-0.073,0.279 -0.191,0.517 -0.352,0.715c-0.161,0.191 -0.374,0.33 -0.638,0.418l1.265,4.466l-1.199,0l-1.166,-4.18l-0.968,0l0,4.18l-1.243,0Zm1.243,-5.071l0.473,0c0.352,0 0.638,-0.044 0.858,-0.132c0.22,-0.088 0.381,-0.238 0.484,-0.451c0.103,-0.213 0.154,-0.51 0.154,-0.891c0,-0.521 -0.095,-0.895 -0.286,-1.122c-0.191,-0.235 -0.568,-0.352 -1.133,-0.352l-0.55,0l0,2.948Zm4.461,5.071l0,-8.91l1.793,0c0.594,0 1.085,0.081 1.474,0.242c0.389,0.154 0.675,0.407 0.858,0.759c0.191,0.345 0.286,0.799 0.286,1.364c0,0.345 -0.037,0.66 -0.11,0.946c-0.073,0.279 -0.191,0.517 -0.352,0.715c-0.161,0.191 -0.374,0.33 -0.638,0.418l1.265,4.466l-1.199,0l-1.166,-4.18l-0.968,0l0,4.18l-1.243,0Zm1.243,-5.071l0.473,0c0.352,0 0.638,-0.044 0.858,-0.132c0.22,-0.088 0.381,-0.238 0.484,-0.451c0.103,-0.213 0.154,-0.51 0.154,-0.891c0,-0.521 -0.095,-0.895 -0.286,-1.122c-0.191,-0.235 -0.568,-0.352 -1.133,-0.352l-0.55,0l0,2.948Zm3.977,5.071l1.892,-8.91l1.199,0l1.903,8.91l-1.177,0l-0.407,-2.244l-1.815,0l-0.429,2.244l-1.166,0Zm1.76,-3.135l1.485,0l-0.748,-4.015l-0.737,4.015Zm5.255,3.135l0,-3.146l-1.925,-5.764l1.155,0l1.364,4.301l1.342,-4.301l1.166,0l-1.914,5.764l0,3.146l-1.188,0Zm6.033,0.099c-0.513,0 -0.942,-0.11 -1.287,-0.33c-0.337,-0.22 -0.594,-0.524 -0.77,-0.913c-0.176,-0.389 -0.279,-0.84 -0.308,-1.353l1.1,-0.297c0.022,0.315 0.07,0.62 0.143,0.913c0.081,0.293 0.209,0.535 0.385,0.726c0.176,0.183 0.422,0.275 0.737,0.275c0.323,0 0.565,-0.088 0.726,-0.264c0.169,-0.183 0.253,-0.444 0.253,-0.781c0,-0.403 -0.092,-0.726 -0.275,-0.968c-0.183,-0.249 -0.414,-0.499 -0.693,-0.748l-1.496,-1.32c-0.293,-0.257 -0.51,-0.535 -0.649,-0.836c-0.139,-0.308 -0.209,-0.686 -0.209,-1.133c0,-0.653 0.187,-1.159 0.561,-1.518c0.374,-0.359 0.884,-0.539 1.529,-0.539c0.352,0 0.66,0.048 0.924,0.143c0.271,0.088 0.495,0.227 0.671,0.418c0.183,0.191 0.326,0.433 0.429,0.726c0.11,0.286 0.183,0.623 0.22,1.012l-1.056,0.286c-0.022,-0.293 -0.066,-0.561 -0.132,-0.803c-0.066,-0.249 -0.183,-0.447 -0.352,-0.594c-0.161,-0.154 -0.396,-0.231 -0.704,-0.231c-0.308,0 -0.55,0.084 -0.726,0.253c-0.169,0.161 -0.253,0.403 -0.253,0.726c0,0.271 0.044,0.495 0.132,0.671c0.095,0.176 0.246,0.356 0.451,0.539l1.507,1.32c0.337,0.293 0.634,0.645 0.891,1.056c0.257,0.403 0.385,0.884 0.385,1.441c0,0.44 -0.092,0.821 -0.275,1.144c-0.183,0.315 -0.436,0.557 -0.759,0.726c-0.315,0.169 -0.682,0.253 -1.1,0.253Z" style="fill:#fff;fill-rule:nonzero;"/><path d="M235.967,53l0,-8.91l2.046,0c0.404,0 0.752,0.044 1.045,0.132c0.301,0.088 0.55,0.224 0.748,0.407c0.198,0.183 0.345,0.418 0.44,0.704c0.096,0.279 0.143,0.609 0.143,0.99c0,0.367 -0.047,0.686 -0.143,0.957c-0.088,0.264 -0.227,0.473 -0.418,0.627c-0.183,0.154 -0.421,0.253 -0.715,0.297c0.36,0.081 0.649,0.22 0.869,0.418c0.22,0.191 0.382,0.44 0.484,0.748c0.11,0.301 0.165,0.664 0.165,1.089c0,0.381 -0.044,0.73 -0.132,1.045c-0.088,0.315 -0.227,0.583 -0.418,0.803c-0.183,0.22 -0.421,0.392 -0.715,0.517c-0.286,0.117 -0.627,0.176 -1.023,0.176l-2.376,0Zm1.243,-0.891l0.836,0c0.558,0 0.928,-0.128 1.111,-0.385c0.191,-0.264 0.286,-0.686 0.286,-1.265c0,-0.374 -0.051,-0.686 -0.154,-0.935c-0.095,-0.257 -0.253,-0.447 -0.473,-0.572c-0.212,-0.132 -0.502,-0.198 -0.869,-0.198l-0.737,0l0,3.355Zm0,-4.301l0.737,0c0.352,0 0.627,-0.048 0.825,-0.143c0.198,-0.103 0.338,-0.264 0.418,-0.484c0.081,-0.22 0.121,-0.506 0.121,-0.858c0,-0.411 -0.062,-0.708 -0.187,-0.891c-0.124,-0.183 -0.319,-0.297 -0.583,-0.341c-0.264,-0.051 -0.608,-0.077 -1.034,-0.077l-0.297,0l0,2.794Zm4.526,5.192l0,-8.91l3.454,0l0,0.924l-2.211,0l0,2.948l1.793,0l0,0.88l-1.793,0l0,3.267l2.233,0l0,0.891l-3.476,0Zm4.479,0l0,-8.91l0.847,0l2.53,5.918l0,-5.918l1.034,0l0,8.91l-0.792,0l-2.563,-6.083l0,6.083l-1.056,0Zm6.791,0l0,-7.986l-1.507,0l0,-0.924l4.213,0l0,0.924l-1.463,0l0,7.986l-1.243,0Zm3.565,0l0,-8.91l1.243,0l0,8.019l2.277,0l0,0.891l-3.52,0Zm4.372,0l0,-8.91l3.454,0l0,0.924l-2.211,0l0,2.948l1.793,0l0,0.88l-1.793,0l0,3.267l2.233,0l0,0.891l-3.476,0Zm5.843,0l0,-3.146l-1.925,-5.764l1.155,0l1.364,4.301l1.342,-4.301l1.166,0l-1.914,5.764l0,3.146l-1.188,0Zm8.547,0.099c-0.513,0 -0.942,-0.11 -1.287,-0.33c-0.337,-0.22 -0.594,-0.524 -0.77,-0.913c-0.176,-0.389 -0.279,-0.84 -0.308,-1.353l1.1,-0.297c0.022,0.315 0.07,0.62 0.143,0.913c0.081,0.293 0.209,0.535 0.385,0.726c0.176,0.183 0.422,0.275 0.737,0.275c0.323,0 0.565,-0.088 0.726,-0.264c0.169,-0.183 0.253,-0.444 0.253,-0.781c0,-0.403 -0.092,-0.726 -0.275,-0.968c-0.183,-0.249 -0.414,-0.499 -0.693,-0.748l-1.496,-1.32c-0.293,-0.257 -0.51,-0.535 -0.649,-0.836c-0.139,-0.308 -0.209,-0.686 -0.209,-1.133c0,-0.653 0.187,-1.159 0.561,-1.518c0.374,-0.359 0.884,-0.539 1.529,-0.539c0.352,0 0.66,0.048 0.924,0.143c0.271,0.088 0.495,0.227 0.671,0.418c0.183,0.191 0.326,0.433 0.429,0.726c0.11,0.286 0.183,0.623 0.22,1.012l-1.056,0.286c-0.022,-0.293 -0.066,-0.561 -0.132,-0.803c-0.066,-0.249 -0.183,-0.447 -0.352,-0.594c-0.161,-0.154 -0.396,-0.231 -0.704,-0.231c-0.308,0 -0.55,0.084 -0.726,0.253c-0.169,0.161 -0.253,0.403 -0.253,0.726c0,0.271 0.044,0.495 0.132,0.671c0.095,0.176 0.246,0.356 0.451,0.539l1.507,1.32c0.337,0.293 0.634,0.645 0.891,1.056c0.257,0.403 0.385,0.884 0.385,1.441c0,0.44 -0.092,0.821 -0.275,1.144c-0.183,0.315 -0.436,0.557 -0.759,0.726c-0.315,0.169 -0.682,0.253 -1.1,0.253Zm4.077,-0.099l0,-7.986l-1.507,0l0,-0.924l4.213,0l0,0.924l-1.463,0l0,7.986l-1.243,0Zm3.565,0l0,-8.91l1.793,0c0.594,0 1.086,0.081 1.474,0.242c0.389,0.154 0.675,0.407 0.858,0.759c0.191,0.345 0.286,0.799 0.286,1.364c0,0.345 -0.036,0.66 -0.11,0.946c-0.073,0.279 -0.19,0.517 -0.352,0.715c-0.161,0.191 -0.374,0.33 -0.638,0.418l1.265,4.466l-1.199,0l-1.166,-4.18l-0.968,0l0,4.18l-1.243,0Zm1.243,-5.071l0.473,0c0.352,0 0.638,-0.044 0.858,-0.132c0.22,-0.088 0.382,-0.238 0.484,-0.451c0.103,-0.213 0.154,-0.51 0.154,-0.891c0,-0.521 -0.095,-0.895 -0.286,-1.122c-0.19,-0.235 -0.568,-0.352 -1.133,-0.352l-0.55,0l0,2.948Zm3.977,5.071l1.892,-8.91l1.199,0l1.903,8.91l-1.177,0l-0.407,-2.244l-1.815,0l-0.429,2.244l-1.166,0Zm1.76,-3.135l1.485,0l-0.748,-4.015l-0.737,4.015Zm4.204,3.135l0,-8.91l1.221,0l0,8.91l-1.221,0Zm4.786,0.11c-0.557,0 -1.005,-0.117 -1.342,-0.352c-0.33,-0.242 -0.572,-0.59 -0.726,-1.045c-0.147,-0.455 -0.22,-1.001 -0.22,-1.639l0,-2.981c0,-0.653 0.066,-1.206 0.198,-1.661c0.139,-0.462 0.381,-0.814 0.726,-1.056c0.352,-0.242 0.84,-0.363 1.463,-0.363c0.557,0 1.005,0.095 1.342,0.286c0.345,0.183 0.594,0.469 0.748,0.858c0.154,0.381 0.231,0.865 0.231,1.452l0,0.33l-1.166,0l0,-0.275c0,-0.389 -0.026,-0.704 -0.077,-0.946c-0.051,-0.249 -0.158,-0.433 -0.319,-0.55c-0.154,-0.125 -0.4,-0.187 -0.737,-0.187c-0.367,0 -0.634,0.084 -0.803,0.253c-0.161,0.169 -0.264,0.4 -0.308,0.693c-0.037,0.286 -0.055,0.612 -0.055,0.979l0,3.3c0,0.425 0.029,0.781 0.088,1.067c0.066,0.286 0.187,0.499 0.363,0.638c0.176,0.139 0.425,0.209 0.748,0.209c0.323,0 0.572,-0.077 0.748,-0.231c0.176,-0.154 0.297,-0.381 0.363,-0.682c0.066,-0.301 0.099,-0.675 0.099,-1.122l0,-0.616l-1.133,0l0,-0.88l2.255,0l0,4.411l-0.781,0l-0.121,-1.023c-0.117,0.33 -0.301,0.601 -0.55,0.814c-0.249,0.213 -0.594,0.319 -1.034,0.319Zm3.764,-0.11l0,-8.91l1.243,0l0,3.85l2.288,0l0,-3.85l1.243,0l0,8.91l-1.243,0l0,-4.169l-2.288,0l0,4.169l-1.243,0Zm7.145,0l0,-7.986l-1.507,0l0,-0.924l4.213,0l0,0.924l-1.463,0l0,7.986l-1.243,0Z" style="fill:#fff;fill-rule:nonzero;"/><path d="M286.609,146l1.892,-8.91l1.199,0l1.903,8.91l-1.177,0l-0.407,-2.244l-1.815,0l-0.429,2.244l-1.166,0Zm1.76,-3.135l1.485,0l-0.748,-4.015l-0.737,4.015Zm6.218,3.245c-0.557,0 -1.004,-0.117 -1.342,-0.352c-0.33,-0.242 -0.572,-0.59 -0.726,-1.045c-0.146,-0.455 -0.22,-1.001 -0.22,-1.639l0,-2.981c0,-0.653 0.066,-1.206 0.198,-1.661c0.14,-0.462 0.382,-0.814 0.726,-1.056c0.352,-0.242 0.84,-0.363 1.463,-0.363c0.558,0 1.005,0.095 1.342,0.286c0.345,0.183 0.594,0.469 0.748,0.858c0.154,0.381 0.231,0.865 0.231,1.452l0,0.33l-1.166,0l0,-0.275c0,-0.389 -0.025,-0.704 -0.077,-0.946c-0.051,-0.249 -0.157,-0.433 -0.319,-0.55c-0.154,-0.125 -0.399,-0.187 -0.737,-0.187c-0.366,0 -0.634,0.084 -0.803,0.253c-0.161,0.169 -0.264,0.4 -0.308,0.693c-0.036,0.286 -0.055,0.612 -0.055,0.979l0,3.3c0,0.425 0.03,0.781 0.088,1.067c0.066,0.286 0.187,0.499 0.363,0.638c0.176,0.139 0.426,0.209 0.748,0.209c0.323,0 0.572,-0.077 0.748,-0.231c0.176,-0.154 0.297,-0.381 0.363,-0.682c0.066,-0.301 0.099,-0.675 0.099,-1.122l0,-0.616l-1.133,0l0,-0.88l2.255,0l0,4.411l-0.781,0l-0.121,-1.023c-0.117,0.33 -0.3,0.601 -0.55,0.814c-0.249,0.213 -0.594,0.319 -1.034,0.319Zm6.041,-0.011c-0.601,0 -1.081,-0.117 -1.441,-0.352c-0.359,-0.235 -0.616,-0.568 -0.77,-1.001c-0.154,-0.44 -0.231,-0.953 -0.231,-1.54l0,-3.377c0,-0.587 0.077,-1.089 0.231,-1.507c0.162,-0.425 0.418,-0.748 0.77,-0.968c0.36,-0.227 0.84,-0.341 1.441,-0.341c0.602,0 1.078,0.114 1.43,0.341c0.352,0.227 0.605,0.55 0.759,0.968c0.162,0.418 0.242,0.92 0.242,1.507l0,3.388c0,0.579 -0.08,1.085 -0.242,1.518c-0.154,0.433 -0.407,0.77 -0.759,1.012c-0.352,0.235 -0.828,0.352 -1.43,0.352Zm0,-0.979c0.33,0 0.58,-0.066 0.748,-0.198c0.169,-0.139 0.283,-0.33 0.341,-0.572c0.059,-0.249 0.088,-0.539 0.088,-0.869l0,-3.905c0,-0.33 -0.029,-0.612 -0.088,-0.847c-0.058,-0.242 -0.172,-0.425 -0.341,-0.55c-0.168,-0.132 -0.418,-0.198 -0.748,-0.198c-0.33,0 -0.583,0.066 -0.759,0.198c-0.168,0.125 -0.282,0.308 -0.341,0.55c-0.058,0.235 -0.088,0.517 -0.088,0.847l0,3.905c0,0.33 0.03,0.62 0.088,0.869c0.059,0.242 0.173,0.433 0.341,0.572c0.176,0.132 0.429,0.198 0.759,0.198Zm5.754,0.979c-0.513,0 -0.942,-0.11 -1.287,-0.33c-0.337,-0.22 -0.594,-0.524 -0.77,-0.913c-0.176,-0.389 -0.279,-0.84 -0.308,-1.353l1.1,-0.297c0.022,0.315 0.07,0.62 0.143,0.913c0.081,0.293 0.209,0.535 0.385,0.726c0.176,0.183 0.422,0.275 0.737,0.275c0.323,0 0.565,-0.088 0.726,-0.264c0.169,-0.183 0.253,-0.444 0.253,-0.781c0,-0.403 -0.092,-0.726 -0.275,-0.968c-0.183,-0.249 -0.414,-0.499 -0.693,-0.748l-1.496,-1.32c-0.293,-0.257 -0.51,-0.535 -0.649,-0.836c-0.139,-0.308 -0.209,-0.686 -0.209,-1.133c0,-0.653 0.187,-1.159 0.561,-1.518c0.374,-0.359 0.884,-0.539 1.529,-0.539c0.352,0 0.66,0.048 0.924,0.143c0.271,0.088 0.495,0.227 0.671,0.418c0.183,0.191 0.326,0.433 0.429,0.726c0.11,0.286 0.183,0.623 0.22,1.012l-1.056,0.286c-0.022,-0.293 -0.066,-0.561 -0.132,-0.803c-0.066,-0.249 -0.183,-0.447 -0.352,-0.594c-0.161,-0.154 -0.396,-0.231 -0.704,-0.231c-0.308,0 -0.55,0.084 -0.726,0.253c-0.169,0.161 -0.253,0.403 -0.253,0.726c0,0.271 0.044,0.495 0.132,0.671c0.095,0.176 0.246,0.356 0.451,0.539l1.507,1.32c0.337,0.293 0.634,0.645 0.891,1.056c0.257,0.403 0.385,0.884 0.385,1.441c0,0.44 -0.092,0.821 -0.275,1.144c-0.183,0.315 -0.436,0.557 -0.759,0.726c-0.315,0.169 -0.682,0.253 -1.1,0.253Zm4.077,-0.099l0,-7.986l-1.507,0l0,-0.924l4.213,0l0,0.924l-1.463,0l0,7.986l-1.243,0Zm3.631,0l0,-8.91l1.221,0l0,8.91l-1.221,0Zm2.663,0l0,-8.91l0.847,0l2.53,5.918l0,-5.918l1.034,0l0,8.91l-0.792,0l-2.563,-6.083l0,6.083l-1.056,0Zm5.877,0l0,-8.91l1.221,0l0,8.91l-1.221,0Z" style="fill:#fff;fill-rule:nonzero;"/><path d="M436.738,121l0,-8.91l2.046,0c0.404,0 0.752,0.044 1.045,0.132c0.301,0.088 0.55,0.224 0.748,0.407c0.198,0.183 0.345,0.418 0.44,0.704c0.096,0.279 0.143,0.609 0.143,0.99c0,0.367 -0.047,0.686 -0.143,0.957c-0.088,0.264 -0.227,0.473 -0.418,0.627c-0.183,0.154 -0.421,0.253 -0.715,0.297c0.36,0.081 0.649,0.22 0.869,0.418c0.22,0.191 0.382,0.44 0.484,0.748c0.11,0.301 0.165,0.664 0.165,1.089c0,0.381 -0.044,0.73 -0.132,1.045c-0.088,0.315 -0.227,0.583 -0.418,0.803c-0.183,0.22 -0.421,0.392 -0.715,0.517c-0.286,0.117 -0.627,0.176 -1.023,0.176l-2.376,0Zm1.243,-0.891l0.836,0c0.558,0 0.928,-0.128 1.111,-0.385c0.191,-0.264 0.286,-0.686 0.286,-1.265c0,-0.374 -0.051,-0.686 -0.154,-0.935c-0.095,-0.257 -0.253,-0.447 -0.473,-0.572c-0.212,-0.132 -0.502,-0.198 -0.869,-0.198l-0.737,0l0,3.355Zm0,-4.301l0.737,0c0.352,0 0.627,-0.048 0.825,-0.143c0.198,-0.103 0.338,-0.264 0.418,-0.484c0.081,-0.22 0.121,-0.506 0.121,-0.858c0,-0.411 -0.062,-0.708 -0.187,-0.891c-0.124,-0.183 -0.319,-0.297 -0.583,-0.341c-0.264,-0.051 -0.608,-0.077 -1.034,-0.077l-0.297,0l0,2.794Zm4.526,5.192l0,-8.91l1.793,0c0.594,0 1.085,0.081 1.474,0.242c0.389,0.154 0.675,0.407 0.858,0.759c0.191,0.345 0.286,0.799 0.286,1.364c0,0.345 -0.037,0.66 -0.11,0.946c-0.073,0.279 -0.191,0.517 -0.352,0.715c-0.161,0.191 -0.374,0.33 -0.638,0.418l1.265,4.466l-1.199,0l-1.166,-4.18l-0.968,0l0,4.18l-1.243,0Zm1.243,-5.071l0.473,0c0.352,0 0.638,-0.044 0.858,-0.132c0.22,-0.088 0.381,-0.238 0.484,-0.451c0.103,-0.213 0.154,-0.51 0.154,-0.891c0,-0.521 -0.095,-0.895 -0.286,-1.122c-0.191,-0.235 -0.568,-0.352 -1.133,-0.352l-0.55,0l0,2.948Zm6.76,5.17c-0.645,0 -1.14,-0.128 -1.485,-0.385c-0.345,-0.257 -0.579,-0.616 -0.704,-1.078c-0.125,-0.469 -0.187,-1.016 -0.187,-1.639l0,-5.907l1.188,0l0,5.962c0,0.381 0.026,0.73 0.077,1.045c0.051,0.315 0.161,0.565 0.33,0.748c0.176,0.183 0.436,0.275 0.781,0.275c0.352,0 0.612,-0.092 0.781,-0.275c0.169,-0.183 0.279,-0.433 0.33,-0.748c0.051,-0.315 0.077,-0.664 0.077,-1.045l0,-5.962l1.177,0l0,5.907c0,0.623 -0.062,1.17 -0.187,1.639c-0.125,0.462 -0.359,0.821 -0.704,1.078c-0.337,0.257 -0.829,0.385 -1.474,0.385Zm3.674,-0.099l0,-8.91l0.847,0l2.53,5.918l0,-5.918l1.034,0l0,8.91l-0.792,0l-2.563,-6.083l0,6.083l-1.056,0Zm5.811,0l0,-8.91l1.936,0c0.66,0 1.181,0.103 1.562,0.308c0.389,0.198 0.664,0.499 0.825,0.902c0.169,0.403 0.253,0.906 0.253,1.507l0,3.278c0,0.631 -0.084,1.162 -0.253,1.595c-0.161,0.433 -0.429,0.763 -0.803,0.99c-0.366,0.22 -0.861,0.33 -1.485,0.33l-2.035,0Zm1.243,-0.891l0.704,0c0.455,0 0.778,-0.088 0.968,-0.264c0.191,-0.176 0.305,-0.433 0.341,-0.77c0.044,-0.337 0.066,-0.744 0.066,-1.221l0,-2.893c0,-0.462 -0.029,-0.836 -0.088,-1.122c-0.058,-0.286 -0.187,-0.495 -0.385,-0.627c-0.198,-0.132 -0.509,-0.198 -0.935,-0.198l-0.671,0l0,7.095Zm4.558,0.891l0,-8.91l1.243,0l0,8.019l2.277,0l0,0.891l-3.52,0Zm4.372,0l0,-8.91l3.454,0l0,0.924l-2.211,0l0,2.948l1.793,0l0,0.88l-1.793,0l0,3.267l2.233,0l0,0.891l-3.476,0Z" style="fill:#fff;fill-rule:nonzero;"/></g><g><path d="M210.015,233.623l-5.397,5.399c-0.375,0.379 -0.377,1.003 0.002,1.379l5.399,5.397c0.404,0.361 1.028,0.337 1.389,-0.067c0.337,-0.378 0.341,-0.95 0.001,-1.314l-4.708,-4.695l4.695,-4.709c0.402,-0.367 0.43,-0.979 0.063,-1.381c-0.367,-0.402 -0.979,-0.43 -1.381,-0.064c-0.025,0.014 -0.051,0.028 -0.063,0.055Z" style="fill:#eee;fill-rule:nonzero;"/><path d="M211.043,238.669c-0.375,0.379 -0.377,1.003 0.002,1.379l5.399,5.396c0.404,0.362 1.028,0.338 1.389,-0.067c0.337,-0.377 0.341,-0.949 0.001,-1.313l-4.708,-4.695l4.695,-4.709c0.361,-0.404 0.324,-1.027 -0.067,-1.389c-0.377,-0.337 -0.95,-0.341 -1.314,-0.001l-5.397,5.399Z" style="fill:#eee;fill-rule:nonzero;"/><path d="M196.919,234.339l-5.397,5.399c-0.375,0.392 -0.377,1.004 0.002,1.392l5.399,5.397c0.404,0.361 1.028,0.337 1.389,-0.067c0.337,-0.377 0.341,-0.95 0.001,-1.327l-4.709,-4.695l4.695,-4.709c0.402,-0.366 0.431,-0.979 0.064,-1.381c-0.354,-0.402 -0.98,-0.443 -1.382,-0.076c-0.025,0.027 -0.05,0.054 -0.062,0.067Z" style="fill:#eee;fill-rule:nonzero;"/><path d="M197.947,239.385c-0.376,0.379 -0.377,1.003 0.001,1.379l5.4,5.396c0.404,0.362 1.027,0.338 1.389,-0.066c0.336,-0.378 0.34,-0.95 0.001,-1.314l-4.709,-4.708l4.695,-4.709c0.361,-0.404 0.324,-1.027 -0.067,-1.389c-0.377,-0.337 -0.949,-0.327 -1.313,0.012l-5.397,5.399Z" style="fill:#eee;fill-rule:nonzero;"/></g></g></g></svg>