<?xml version="1.0" encoding="UTF-8" standalone="no"?><!DOCTYPE svg PUBLIC "-//W3C//DTD SVG 1.1//EN" "http://www.w3.org/Graphics/SVG/1.1/DTD/svg11.dtd"><svg width="100%" height="100%" viewBox="0 0 600 400" version="1.1" xmlns="http://www.w3.org/2000/svg" xmlns:xlink="http://www.w3.org/1999/xlink" xml:space="preserve" xmlns:serif="http://www.serif.com/" style="fill-rule:evenodd;clip-rule:evenodd;stroke-miterlimit:10;"><g><clipPath id="_clip1"><rect x="0" y="0" width="600" height="400"/></clipPath><g clip-path="url(#_clip1)"><path d="M45.444,304.644c3.563,5.599 6.425,11.844 12.536,21.422c0.757,1.197 1.828,2.726 3.766,3.758c1.938,1.031 4.246,1.308 6.831,0.884c1.588,-0.258 3.231,-0.332 4.856,-0.424c5.723,-0.313 9.619,2.247 11.687,7.552c0.646,1.64 1.292,3.298 1.809,4.992c1.329,4.384 4.099,7.442 8.308,9.192c10.172,4.236 20.677,6.299 31.57,3.813c7.034,-1.603 13.995,-3.666 20.807,-6.005c30.352,-10.408 61.479,-16.799 93.53,-18.549c44.568,-2.45 88.12,3.573 130.786,16.136c13.718,4.034 26.974,9.615 40.673,13.686c26.825,7.976 50.697,2.965 70.932,-17.149c10.357,-10.297 21.268,-20.004 31.773,-30.172c8.364,-8.105 17.226,-15.86 24.537,-24.849c18.536,-22.73 29.668,-48.702 30.832,-78.358c0.406,-10.407 1.827,-21.054 0.295,-31.222c-3.674,-24.646 -27.638,-45.055 -54.15,-47.892c-15.36,-1.657 -30.315,1.345 -45.288,3.979c-13.44,2.358 -26.862,4.145 -40.432,0.976c-19.016,-4.439 -33.546,-15.564 -45.454,-30.429c-10.173,-12.673 -20.567,-25.033 -33.251,-35.385c-22.616,-18.512 -47.595,-31.609 -77.043,-35.127c-6.978,-0.829 -12.702,1.087 -17.631,6.134c-7.422,7.589 -15.084,14.957 -22.635,22.417c-5.446,5.397 -11.908,6.963 -19.127,4.587c-7.698,-2.523 -15.342,-5.25 -22.911,-8.16c-6.684,-2.579 -10.228,-1.547 -13.33,4.937c-3.379,7.036 -6.72,14.091 -9.656,21.33c-16.043,39.603 -43.977,66.22 -85.129,78.967c-10.099,3.131 -19.976,7.349 -29.466,12.028c-16.247,8.031 -25.293,21.404 -26.013,39.676c-0.979,24.83 3.84,35.827 4.468,53.952c0.277,8.4 11.096,32.622 11.52,33.304Z" style="fill:none;fill-rule:nonzero;stroke:#febd02;stroke-width:9px;"/><path d="M359,59c2.761,0 5,-2.239 5,-5c0,-2.761 -2.239,-5 -5,-5c-2.761,0 -5,2.239 -5,5c0,2.761 2.239,5 5,5Z" style="fill:#fff;fill-rule:nonzero;"/><path d="M546,173c2.761,0 5,-2.239 5,-5c0,-2.761 -2.239,-5 -5,-5c-2.761,0 -5,2.239 -5,5c0,2.761 2.239,5 5,5Z" style="fill:#fff;fill-rule:nonzero;"/><path d="M570,285c2.761,0 5,-2.239 5,-5c0,-2.761 -2.239,-5 -5,-5c-2.761,0 -5,2.239 -5,5c0,2.761 2.239,5 5,5Z" style="fill:#fff;fill-rule:nonzero;"/><path d="M345,363c2.761,0 5,-2.239 5,-5c0,-2.761 -2.239,-5 -5,-5c-2.761,0 -5,2.239 -5,5c0,2.761 2.239,5 5,5Z" style="fill:#fff;fill-rule:nonzero;"/><path d="M67,354c2.761,0 5,-2.239 5,-5c0,-2.761 -2.239,-5 -5,-5c-2.761,0 -5,2.239 -5,5c0,2.761 2.239,5 5,5Z" style="fill:#fff;fill-rule:nonzero;"/><path d="M33,173c2.761,0 5,-2.239 5,-5c0,-2.761 -2.239,-5 -5,-5c-2.761,0 -5,2.239 -5,5c0,2.761 2.239,5 5,5Z" style="fill:#fff;fill-rule:nonzero;"/><path d="M54.19,292.207l-3.724,1.087l1.087,3.724l3.724,-1.087l-1.087,-3.724Z" style="fill:#fff;fill-rule:nonzero;"/><path d="M44.572,286.937l-3.724,1.087l1.087,3.724l3.724,-1.087l-1.087,-3.724Z" style="fill:#fff;fill-rule:nonzero;"/><path d="M52.012,284.759l-3.724,1.087l1.087,3.725l3.724,-1.087l-1.087,-3.725Z" style="fill:#fff;fill-rule:nonzero;"/><path d="M56.818,287.399l-3.724,1.087l1.087,3.725l3.725,-1.087l-1.087,-3.725Z" style="fill:#fff;fill-rule:nonzero;"/><path d="M49.374,289.565l-3.724,1.088l1.087,3.724l3.725,-1.087l-1.087,-3.725Z" style="fill:#fff;fill-rule:nonzero;"/><path d="M39.299,296.538l-3.724,1.087l1.087,3.725l3.725,-1.087l-1.087,-3.725Z" style="fill:#fff;fill-rule:nonzero;"/><path d="M29.672,291.271l-3.725,1.087l1.087,3.725l3.724,-1.088l-1.087,-3.724Z" style="fill:#fff;fill-rule:nonzero;"/><path d="M46.739,294.361l-3.724,1.087l1.087,3.725l3.725,-1.087l-1.087,-3.725Z" style="fill:#fff;fill-rule:nonzero;"/><path d="M37.112,289.094l-3.725,1.087l1.087,3.724l3.724,-1.087l-1.087,-3.724Z" style="fill:#fff;fill-rule:nonzero;"/><path d="M41.928,291.731l-3.725,1.087l1.087,3.725l3.724,-1.088l-1.087,-3.724Z" style="fill:#fff;fill-rule:nonzero;"/><path d="M34.486,293.907l-3.724,1.087l1.087,3.724l3.724,-1.087l-1.087,-3.724Z" style="fill:#fff;fill-rule:nonzero;"/><path d="M31.852,298.717l-3.724,1.087l1.087,3.724l3.725,-1.087l-1.087,-3.724Z" style="fill:#fff;fill-rule:nonzero;"/><path d="M27.038,296.077l-3.725,1.087l1.087,3.725l3.725,-1.088l-1.087,-3.724Z" style="fill:#fff;fill-rule:nonzero;"/><path d="M48.286,285.839l-3.724,1.087l1.087,3.724l3.724,-1.087l-1.087,-3.724Z" style="fill:#666;fill-rule:nonzero;"/><path d="M45.651,290.653l-3.725,1.087l1.087,3.725l3.724,-1.087l-1.087,-3.725Z" style="fill:#666;fill-rule:nonzero;"/><path d="M55.73,283.671l-3.725,1.087l1.087,3.725l3.724,-1.087l-1.087,-3.725Z" style="fill:#666;fill-rule:nonzero;"/><path d="M53.1,288.473l-3.724,1.087l1.087,3.725l3.724,-1.088l-1.087,-3.724Z" style="fill:#666;fill-rule:nonzero;"/><path d="M57.907,291.113l-3.724,1.087l1.087,3.725l3.725,-1.087l-1.087,-3.725Z" style="fill:#666;fill-rule:nonzero;"/><path d="M50.465,293.289l-3.724,1.087l1.087,3.724l3.724,-1.087l-1.087,-3.724Z" style="fill:#666;fill-rule:nonzero;"/><path d="M33.395,290.17l-3.724,1.087l1.087,3.725l3.724,-1.087l-1.087,-3.725Z" style="fill:#666;fill-rule:nonzero;"/><path d="M30.76,294.985l-3.724,1.087l1.087,3.724l3.725,-1.087l-1.087,-3.724Z" style="fill:#666;fill-rule:nonzero;"/><path d="M40.839,288.003l-3.724,1.087l1.087,3.725l3.724,-1.088l-1.087,-3.724Z" style="fill:#666;fill-rule:nonzero;"/><path d="M38.2,292.807l-3.724,1.087l1.087,3.725l3.725,-1.087l-1.087,-3.725Z" style="fill:#666;fill-rule:nonzero;"/><path d="M43.006,295.448l-3.725,1.087l1.087,3.724l3.725,-1.087l-1.087,-3.724Z" style="fill:#666;fill-rule:nonzero;"/><path d="M35.565,297.623l-3.724,1.087l1.087,3.725l3.724,-1.087l-1.087,-3.725Z" style="fill:#666;fill-rule:nonzero;"/><path d="M25.949,292.349l-3.724,1.087l1.087,3.724l3.725,-1.087l-1.087,-3.724Z" style="fill:#666;fill-rule:nonzero;"/><path d="M28.116,299.793l-3.724,1.088l1.087,3.724l3.725,-1.087l-1.087,-3.725Z" style="fill:#666;fill-rule:nonzero;"/><path d="M344.091,41.099c-0.513,0 -0.942,-0.11 -1.287,-0.33c-0.337,-0.22 -0.594,-0.524 -0.77,-0.913c-0.176,-0.389 -0.278,-0.84 -0.308,-1.353l1.1,-0.297c0.022,0.315 0.07,0.62 0.143,0.913c0.081,0.293 0.209,0.535 0.385,0.726c0.176,0.183 0.422,0.275 0.737,0.275c0.323,0 0.565,-0.088 0.726,-0.264c0.169,-0.183 0.253,-0.444 0.253,-0.781c0,-0.403 -0.091,-0.726 -0.275,-0.968c-0.183,-0.249 -0.414,-0.499 -0.693,-0.748l-1.496,-1.32c-0.293,-0.257 -0.509,-0.535 -0.649,-0.836c-0.139,-0.308 -0.209,-0.686 -0.209,-1.133c0,-0.653 0.187,-1.159 0.561,-1.518c0.374,-0.359 0.884,-0.539 1.529,-0.539c0.352,0 0.66,0.048 0.924,0.143c0.272,0.088 0.495,0.227 0.671,0.418c0.184,0.191 0.327,0.433 0.429,0.726c0.11,0.286 0.184,0.623 0.22,1.012l-1.056,0.286c-0.022,-0.293 -0.066,-0.561 -0.132,-0.803c-0.066,-0.249 -0.183,-0.447 -0.352,-0.594c-0.161,-0.154 -0.396,-0.231 -0.704,-0.231c-0.308,0 -0.55,0.084 -0.726,0.253c-0.168,0.161 -0.253,0.403 -0.253,0.726c0,0.271 0.044,0.495 0.132,0.671c0.096,0.176 0.246,0.356 0.451,0.539l1.507,1.32c0.338,0.293 0.635,0.645 0.891,1.056c0.257,0.403 0.385,0.884 0.385,1.441c0,0.44 -0.091,0.821 -0.275,1.144c-0.183,0.315 -0.436,0.557 -0.759,0.726c-0.315,0.169 -0.682,0.253 -1.1,0.253Zm3.099,-0.099l0,-8.91l3.454,0l0,0.924l-2.211,0l0,2.948l1.793,0l0,0.88l-1.793,0l0,3.267l2.233,0l0,0.891l-3.476,0Zm6.602,0.11c-0.557,0 -1.005,-0.117 -1.342,-0.352c-0.33,-0.242 -0.572,-0.59 -0.726,-1.045c-0.147,-0.455 -0.22,-1.001 -0.22,-1.639l0,-2.981c0,-0.653 0.066,-1.206 0.198,-1.661c0.139,-0.462 0.381,-0.814 0.726,-1.056c0.352,-0.242 0.84,-0.363 1.463,-0.363c0.557,0 1.005,0.095 1.342,0.286c0.345,0.183 0.594,0.469 0.748,0.858c0.154,0.381 0.231,0.865 0.231,1.452l0,0.33l-1.166,0l0,-0.275c0,-0.389 -0.026,-0.704 -0.077,-0.946c-0.051,-0.249 -0.158,-0.433 -0.319,-0.55c-0.154,-0.125 -0.4,-0.187 -0.737,-0.187c-0.367,0 -0.634,0.084 -0.803,0.253c-0.161,0.169 -0.264,0.4 -0.308,0.693c-0.037,0.286 -0.055,0.612 -0.055,0.979l0,3.3c0,0.425 0.029,0.781 0.088,1.067c0.066,0.286 0.187,0.499 0.363,0.638c0.176,0.139 0.425,0.209 0.748,0.209c0.323,0 0.572,-0.077 0.748,-0.231c0.176,-0.154 0.297,-0.381 0.363,-0.682c0.066,-0.301 0.099,-0.675 0.099,-1.122l0,-0.616l-1.133,0l0,-0.88l2.255,0l0,4.411l-0.781,0l-0.121,-1.023c-0.117,0.33 -0.301,0.601 -0.55,0.814c-0.249,0.213 -0.594,0.319 -1.034,0.319Zm3.764,-0.11l0,-8.91l1.793,0c0.594,0 1.085,0.081 1.474,0.242c0.388,0.154 0.674,0.407 0.858,0.759c0.19,0.345 0.286,0.799 0.286,1.364c0,0.345 -0.037,0.66 -0.11,0.946c-0.074,0.279 -0.191,0.517 -0.352,0.715c-0.162,0.191 -0.374,0.33 -0.638,0.418l1.265,4.466l-1.199,0l-1.166,-4.18l-0.968,0l0,4.18l-1.243,0Zm1.243,-5.071l0.473,0c0.352,0 0.638,-0.044 0.858,-0.132c0.22,-0.088 0.381,-0.238 0.484,-0.451c0.102,-0.213 0.154,-0.51 0.154,-0.891c0,-0.521 -0.096,-0.895 -0.286,-1.122c-0.191,-0.235 -0.569,-0.352 -1.133,-0.352l-0.55,0l0,2.948Zm3.977,5.071l1.892,-8.91l1.199,0l1.903,8.91l-1.177,0l-0.407,-2.244l-1.815,0l-0.429,2.244l-1.166,0Zm1.76,-3.135l1.485,0l-0.748,-4.015l-0.737,4.015Zm5.377,3.135l-1.991,-8.91l1.166,0l1.408,6.567l1.342,-6.567l1.133,0l-1.969,8.91l-1.089,0Zm4.003,0l0,-8.91l3.454,0l0,0.924l-2.211,0l0,2.948l1.793,0l0,0.88l-1.793,0l0,3.267l2.233,0l0,0.891l-3.476,0Z" style="fill:#fff;fill-rule:nonzero;"/><path d="M554.943,300.706l-1.991,-8.91l1.166,0l1.408,6.567l1.342,-6.567l1.133,0l-1.969,8.91l-1.089,0Zm4.069,0l0,-8.91l1.221,0l0,8.91l-1.221,0Zm2.662,0l0,-8.91l1.243,0l0,8.019l2.277,0l0,0.891l-3.52,0Zm4.372,0l0,-8.91l1.243,0l0,8.019l2.277,0l0,0.891l-3.52,0Zm3.888,0l1.892,-8.91l1.199,0l1.903,8.91l-1.177,0l-0.407,-2.244l-1.815,0l-0.429,2.244l-1.166,0Zm1.76,-3.135l1.485,0l-0.748,-4.015l-0.737,4.015Zm6.219,3.245c-0.558,0 -1.005,-0.117 -1.342,-0.352c-0.33,-0.242 -0.572,-0.59 -0.726,-1.045c-0.147,-0.455 -0.22,-1.001 -0.22,-1.639l0,-2.981c0,-0.653 0.066,-1.206 0.198,-1.661c0.139,-0.462 0.381,-0.814 0.726,-1.056c0.352,-0.242 0.839,-0.363 1.463,-0.363c0.557,0 1.004,0.095 1.342,0.286c0.344,0.183 0.594,0.469 0.748,0.858c0.154,0.381 0.231,0.865 0.231,1.452l0,0.33l-1.166,0l0,-0.275c0,-0.389 -0.026,-0.704 -0.077,-0.946c-0.052,-0.249 -0.158,-0.433 -0.319,-0.55c-0.154,-0.125 -0.4,-0.187 -0.737,-0.187c-0.367,0 -0.635,0.084 -0.803,0.253c-0.162,0.169 -0.264,0.4 -0.308,0.693c-0.037,0.286 -0.055,0.612 -0.055,0.979l0,3.3c0,0.425 0.029,0.781 0.088,1.067c0.066,0.286 0.187,0.499 0.363,0.638c0.176,0.139 0.425,0.209 0.748,0.209c0.322,0 0.572,-0.077 0.748,-0.231c0.176,-0.154 0.297,-0.381 0.363,-0.682c0.066,-0.301 0.099,-0.675 0.099,-1.122l0,-0.616l-1.133,0l0,-0.88l2.255,0l0,4.411l-0.781,0l-0.121,-1.023c-0.118,0.33 -0.301,0.601 -0.55,0.814c-0.25,0.213 -0.594,0.319 -1.034,0.319Zm3.763,-0.11l0,-8.91l3.454,0l0,0.924l-2.211,0l0,2.948l1.793,0l0,0.88l-1.793,0l0,3.267l2.233,0l0,0.891l-3.476,0Z" style="fill:#fff;fill-rule:nonzero;"/><path d="M318.005,379l0,-8.91l2.046,0c0.403,0 0.752,0.044 1.045,0.132c0.301,0.088 0.55,0.224 0.748,0.407c0.198,0.183 0.345,0.418 0.44,0.704c0.095,0.279 0.143,0.609 0.143,0.99c0,0.367 -0.048,0.686 -0.143,0.957c-0.088,0.264 -0.227,0.473 -0.418,0.627c-0.183,0.154 -0.422,0.253 -0.715,0.297c0.359,0.081 0.649,0.22 0.869,0.418c0.22,0.191 0.381,0.44 0.484,0.748c0.11,0.301 0.165,0.664 0.165,1.089c0,0.381 -0.044,0.73 -0.132,1.045c-0.088,0.315 -0.227,0.583 -0.418,0.803c-0.183,0.22 -0.422,0.392 -0.715,0.517c-0.286,0.117 -0.627,0.176 -1.023,0.176l-2.376,0Zm1.243,-0.891l0.836,0c0.557,0 0.928,-0.128 1.111,-0.385c0.191,-0.264 0.286,-0.686 0.286,-1.265c0,-0.374 -0.051,-0.686 -0.154,-0.935c-0.095,-0.257 -0.253,-0.447 -0.473,-0.572c-0.213,-0.132 -0.502,-0.198 -0.869,-0.198l-0.737,0l0,3.355Zm0,-4.301l0.737,0c0.352,0 0.627,-0.048 0.825,-0.143c0.198,-0.103 0.337,-0.264 0.418,-0.484c0.081,-0.22 0.121,-0.506 0.121,-0.858c0,-0.411 -0.062,-0.708 -0.187,-0.891c-0.125,-0.183 -0.319,-0.297 -0.583,-0.341c-0.264,-0.051 -0.609,-0.077 -1.034,-0.077l-0.297,0l0,2.794Zm4.526,5.192l0,-8.91l1.793,0c0.594,0 1.085,0.081 1.474,0.242c0.388,0.154 0.674,0.407 0.858,0.759c0.19,0.345 0.286,0.799 0.286,1.364c0,0.345 -0.037,0.66 -0.11,0.946c-0.074,0.279 -0.191,0.517 -0.352,0.715c-0.162,0.191 -0.374,0.33 -0.638,0.418l1.265,4.466l-1.199,0l-1.166,-4.18l-0.968,0l0,4.18l-1.243,0Zm1.243,-5.071l0.473,0c0.352,0 0.638,-0.044 0.858,-0.132c0.22,-0.088 0.381,-0.238 0.484,-0.451c0.102,-0.213 0.154,-0.51 0.154,-0.891c0,-0.521 -0.096,-0.895 -0.286,-1.122c-0.191,-0.235 -0.569,-0.352 -1.133,-0.352l-0.55,0l0,2.948Zm6.738,5.17c-0.602,0 -1.082,-0.117 -1.441,-0.352c-0.36,-0.235 -0.616,-0.568 -0.77,-1.001c-0.154,-0.44 -0.231,-0.953 -0.231,-1.54l0,-3.377c0,-0.587 0.077,-1.089 0.231,-1.507c0.161,-0.425 0.418,-0.748 0.77,-0.968c0.359,-0.227 0.839,-0.341 1.441,-0.341c0.601,0 1.078,0.114 1.43,0.341c0.352,0.227 0.605,0.55 0.759,0.968c0.161,0.418 0.242,0.92 0.242,1.507l0,3.388c0,0.579 -0.081,1.085 -0.242,1.518c-0.154,0.433 -0.407,0.77 -0.759,1.012c-0.352,0.235 -0.829,0.352 -1.43,0.352Zm0,-0.979c0.33,0 0.579,-0.066 0.748,-0.198c0.168,-0.139 0.282,-0.33 0.341,-0.572c0.058,-0.249 0.088,-0.539 0.088,-0.869l0,-3.905c0,-0.33 -0.03,-0.612 -0.088,-0.847c-0.059,-0.242 -0.173,-0.425 -0.341,-0.55c-0.169,-0.132 -0.418,-0.198 -0.748,-0.198c-0.33,0 -0.583,0.066 -0.759,0.198c-0.169,0.125 -0.283,0.308 -0.341,0.55c-0.059,0.235 -0.088,0.517 -0.088,0.847l0,3.905c0,0.33 0.029,0.62 0.088,0.869c0.058,0.242 0.172,0.433 0.341,0.572c0.176,0.132 0.429,0.198 0.759,0.198Zm5.929,0.979c-0.601,0 -1.081,-0.117 -1.441,-0.352c-0.359,-0.235 -0.616,-0.568 -0.77,-1.001c-0.154,-0.44 -0.231,-0.953 -0.231,-1.54l0,-3.377c0,-0.587 0.077,-1.089 0.231,-1.507c0.162,-0.425 0.418,-0.748 0.77,-0.968c0.36,-0.227 0.84,-0.341 1.441,-0.341c0.602,0 1.078,0.114 1.43,0.341c0.352,0.227 0.605,0.55 0.759,0.968c0.162,0.418 0.242,0.92 0.242,1.507l0,3.388c0,0.579 -0.08,1.085 -0.242,1.518c-0.154,0.433 -0.407,0.77 -0.759,1.012c-0.352,0.235 -0.828,0.352 -1.43,0.352Zm0,-0.979c0.33,0 0.58,-0.066 0.748,-0.198c0.169,-0.139 0.283,-0.33 0.341,-0.572c0.059,-0.249 0.088,-0.539 0.088,-0.869l0,-3.905c0,-0.33 -0.029,-0.612 -0.088,-0.847c-0.058,-0.242 -0.172,-0.425 -0.341,-0.55c-0.168,-0.132 -0.418,-0.198 -0.748,-0.198c-0.33,0 -0.583,0.066 -0.759,0.198c-0.168,0.125 -0.282,0.308 -0.341,0.55c-0.058,0.235 -0.088,0.517 -0.088,0.847l0,3.905c0,0.33 0.03,0.62 0.088,0.869c0.059,0.242 0.173,0.433 0.341,0.572c0.176,0.132 0.429,0.198 0.759,0.198Zm3.653,0.88l0,-8.91l1.243,0l0,4.202l2.046,-4.202l1.155,0l-1.76,3.927l2.046,4.983l-1.21,0l-1.705,-4.18l-0.572,1.034l0,3.146l-1.243,0Zm5.446,0l0,-8.91l1.243,0l0,8.019l2.277,0l0,0.891l-3.52,0Zm3.888,0l1.892,-8.91l1.199,0l1.903,8.91l-1.177,0l-0.407,-2.244l-1.815,0l-0.429,2.244l-1.166,0Zm1.76,-3.135l1.485,0l-0.748,-4.015l-0.737,4.015Zm4.138,3.135l0,-8.91l0.847,0l2.53,5.918l0,-5.918l1.034,0l0,8.91l-0.792,0l-2.563,-6.083l0,6.083l-1.056,0Zm5.812,0l0,-8.91l1.936,0c0.66,0 1.181,0.103 1.562,0.308c0.389,0.198 0.664,0.499 0.825,0.902c0.169,0.403 0.253,0.906 0.253,1.507l0,3.278c0,0.631 -0.084,1.162 -0.253,1.595c-0.161,0.433 -0.429,0.763 -0.803,0.99c-0.367,0.22 -0.862,0.33 -1.485,0.33l-2.035,0Zm1.243,-0.891l0.704,0c0.455,0 0.777,-0.088 0.968,-0.264c0.191,-0.176 0.304,-0.433 0.341,-0.77c0.044,-0.337 0.066,-0.744 0.066,-1.221l0,-2.893c0,-0.462 -0.029,-0.836 -0.088,-1.122c-0.059,-0.286 -0.187,-0.495 -0.385,-0.627c-0.198,-0.132 -0.51,-0.198 -0.935,-0.198l-0.671,0l0,7.095Zm6.659,0.99c-0.514,0 -0.943,-0.11 -1.287,-0.33c-0.338,-0.22 -0.594,-0.524 -0.77,-0.913c-0.176,-0.389 -0.279,-0.84 -0.308,-1.353l1.1,-0.297c0.022,0.315 0.069,0.62 0.143,0.913c0.08,0.293 0.209,0.535 0.385,0.726c0.176,0.183 0.421,0.275 0.737,0.275c0.322,0 0.564,-0.088 0.726,-0.264c0.168,-0.183 0.253,-0.444 0.253,-0.781c0,-0.403 -0.092,-0.726 -0.275,-0.968c-0.184,-0.249 -0.415,-0.499 -0.693,-0.748l-1.496,-1.32c-0.294,-0.257 -0.51,-0.535 -0.649,-0.836c-0.14,-0.308 -0.209,-0.686 -0.209,-1.133c0,-0.653 0.187,-1.159 0.561,-1.518c0.374,-0.359 0.883,-0.539 1.529,-0.539c0.352,0 0.66,0.048 0.924,0.143c0.271,0.088 0.495,0.227 0.671,0.418c0.183,0.191 0.326,0.433 0.429,0.726c0.11,0.286 0.183,0.623 0.22,1.012l-1.056,0.286c-0.022,-0.293 -0.066,-0.561 -0.132,-0.803c-0.066,-0.249 -0.184,-0.447 -0.352,-0.594c-0.162,-0.154 -0.396,-0.231 -0.704,-0.231c-0.308,0 -0.55,0.084 -0.726,0.253c-0.169,0.161 -0.253,0.403 -0.253,0.726c0,0.271 0.044,0.495 0.132,0.671c0.095,0.176 0.245,0.356 0.451,0.539l1.507,1.32c0.337,0.293 0.634,0.645 0.891,1.056c0.256,0.403 0.385,0.884 0.385,1.441c0,0.44 -0.092,0.821 -0.275,1.144c-0.184,0.315 -0.437,0.557 -0.759,0.726c-0.316,0.169 -0.682,0.253 -1.1,0.253Z" style="fill:#fff;fill-rule:nonzero;"/><path d="M18.347,157l1.892,-8.91l1.199,0l1.903,8.91l-1.177,0l-0.407,-2.244l-1.815,0l-0.429,2.244l-1.166,0Zm1.76,-3.135l1.485,0l-0.748,-4.015l-0.737,4.015Zm4.138,3.135l0,-8.91l1.243,0l0,8.019l2.277,0l0,0.891l-3.52,0Zm4.372,0l0,-8.91l1.243,0l0,8.019l2.277,0l0,0.891l-3.52,0Zm3.888,0l1.892,-8.91l1.199,0l1.903,8.91l-1.177,0l-0.407,-2.244l-1.815,0l-0.429,2.244l-1.166,0Zm1.76,-3.135l1.485,0l-0.748,-4.015l-0.737,4.015Zm4.138,3.135l0,-8.91l1.793,0c0.594,0 1.085,0.081 1.474,0.242c0.389,0.154 0.675,0.407 0.858,0.759c0.191,0.345 0.286,0.799 0.286,1.364c0,0.345 -0.037,0.66 -0.11,0.946c-0.073,0.279 -0.191,0.517 -0.352,0.715c-0.161,0.191 -0.374,0.33 -0.638,0.418l1.265,4.466l-1.199,0l-1.166,-4.18l-0.968,0l0,4.18l-1.243,0Zm1.243,-5.071l0.473,0c0.352,0 0.638,-0.044 0.858,-0.132c0.22,-0.088 0.381,-0.238 0.484,-0.451c0.103,-0.213 0.154,-0.51 0.154,-0.891c0,-0.521 -0.095,-0.895 -0.286,-1.122c-0.191,-0.235 -0.568,-0.352 -1.133,-0.352l-0.55,0l0,2.948Zm4.461,5.071l0,-8.91l1.936,0c0.66,0 1.181,0.103 1.562,0.308c0.389,0.198 0.664,0.499 0.825,0.902c0.169,0.403 0.253,0.906 0.253,1.507l0,3.278c0,0.631 -0.084,1.162 -0.253,1.595c-0.161,0.433 -0.429,0.763 -0.803,0.99c-0.367,0.22 -0.862,0.33 -1.485,0.33l-2.035,0Zm1.243,-0.891l0.704,0c0.455,0 0.777,-0.088 0.968,-0.264c0.191,-0.176 0.304,-0.433 0.341,-0.77c0.044,-0.337 0.066,-0.744 0.066,-1.221l0,-2.893c0,-0.462 -0.029,-0.836 -0.088,-1.122c-0.059,-0.286 -0.187,-0.495 -0.385,-0.627c-0.198,-0.132 -0.51,-0.198 -0.935,-0.198l-0.671,0l0,7.095Z" style="fill:#fff;fill-rule:nonzero;"/><path d="M104.295,65.099c-0.63,0 -1.122,-0.132 -1.474,-0.396c-0.344,-0.264 -0.586,-0.62 -0.726,-1.067c-0.132,-0.447 -0.198,-0.946 -0.198,-1.496l0,-3.146c0,-0.601 0.066,-1.126 0.198,-1.573c0.14,-0.447 0.382,-0.792 0.726,-1.034c0.352,-0.249 0.844,-0.374 1.474,-0.374c0.558,0 0.998,0.103 1.32,0.308c0.33,0.205 0.565,0.499 0.704,0.88c0.147,0.381 0.22,0.84 0.22,1.375l0,0.704l-1.177,0l0,-0.627c0,-0.33 -0.018,-0.62 -0.055,-0.869c-0.029,-0.257 -0.117,-0.455 -0.264,-0.594c-0.146,-0.139 -0.392,-0.209 -0.737,-0.209c-0.352,0 -0.608,0.077 -0.77,0.231c-0.161,0.147 -0.267,0.359 -0.319,0.638c-0.044,0.271 -0.066,0.59 -0.066,0.957l0,3.531c0,0.447 0.037,0.803 0.11,1.067c0.074,0.257 0.195,0.44 0.363,0.55c0.169,0.11 0.396,0.165 0.682,0.165c0.338,0 0.58,-0.073 0.726,-0.22c0.147,-0.154 0.239,-0.363 0.275,-0.627c0.037,-0.264 0.055,-0.572 0.055,-0.924l0,-0.66l1.177,0l0,0.66c0,0.543 -0.066,1.023 -0.198,1.441c-0.132,0.411 -0.359,0.733 -0.682,0.968c-0.322,0.227 -0.777,0.341 -1.364,0.341Zm2.945,-0.099l1.892,-8.91l1.199,0l1.903,8.91l-1.177,0l-0.407,-2.244l-1.815,0l-0.429,2.244l-1.166,0Zm1.76,-3.135l1.485,0l-0.748,-4.015l-0.737,4.015Zm4.116,3.135l0.165,-8.91l1.221,0l1.573,7.227l1.584,-7.227l1.21,0l0.165,8.91l-1.001,0l-0.099,-6.468l-1.507,6.468l-0.704,0l-1.496,-6.468l-0.099,6.468l-1.012,0Zm7.283,0l0,-8.91l2.211,0c0.536,0 0.961,0.099 1.276,0.297c0.323,0.191 0.558,0.469 0.704,0.836c0.147,0.367 0.22,0.81 0.22,1.331c0,0.469 -0.084,0.876 -0.253,1.221c-0.161,0.345 -0.403,0.612 -0.726,0.803c-0.322,0.183 -0.726,0.275 -1.21,0.275l-0.979,0l0,4.147l-1.243,0Zm1.243,-5.038l0.572,0c0.36,0 0.642,-0.04 0.847,-0.121c0.206,-0.081 0.352,-0.22 0.44,-0.418c0.088,-0.205 0.132,-0.491 0.132,-0.858c0,-0.425 -0.033,-0.752 -0.099,-0.979c-0.058,-0.227 -0.187,-0.385 -0.385,-0.473c-0.198,-0.088 -0.506,-0.132 -0.924,-0.132l-0.583,0l0,2.981Zm4.042,5.038l0,-8.91l2.046,0c0.404,0 0.752,0.044 1.045,0.132c0.301,0.088 0.55,0.224 0.748,0.407c0.198,0.183 0.345,0.418 0.44,0.704c0.096,0.279 0.143,0.609 0.143,0.99c0,0.367 -0.047,0.686 -0.143,0.957c-0.088,0.264 -0.227,0.473 -0.418,0.627c-0.183,0.154 -0.421,0.253 -0.715,0.297c0.36,0.081 0.649,0.22 0.869,0.418c0.22,0.191 0.382,0.44 0.484,0.748c0.11,0.301 0.165,0.664 0.165,1.089c0,0.381 -0.044,0.73 -0.132,1.045c-0.088,0.315 -0.227,0.583 -0.418,0.803c-0.183,0.22 -0.421,0.392 -0.715,0.517c-0.286,0.117 -0.627,0.176 -1.023,0.176l-2.376,0Zm1.243,-0.891l0.836,0c0.558,0 0.928,-0.128 1.111,-0.385c0.191,-0.264 0.286,-0.686 0.286,-1.265c0,-0.374 -0.051,-0.686 -0.154,-0.935c-0.095,-0.257 -0.253,-0.447 -0.473,-0.572c-0.212,-0.132 -0.502,-0.198 -0.869,-0.198l-0.737,0l0,3.355Zm0,-4.301l0.737,0c0.352,0 0.627,-0.048 0.825,-0.143c0.198,-0.103 0.338,-0.264 0.418,-0.484c0.081,-0.22 0.121,-0.506 0.121,-0.858c0,-0.411 -0.062,-0.708 -0.187,-0.891c-0.124,-0.183 -0.319,-0.297 -0.583,-0.341c-0.264,-0.051 -0.608,-0.077 -1.034,-0.077l-0.297,0l0,2.794Zm4.526,5.192l0,-8.91l3.454,0l0,0.924l-2.211,0l0,2.948l1.793,0l0,0.88l-1.793,0l0,3.267l2.233,0l0,0.891l-3.476,0Zm4.48,0l0,-8.91l1.243,0l0,8.019l2.277,0l0,0.891l-3.52,0Zm4.372,0l0,-8.91l1.243,0l0,8.019l2.277,0l0,0.891l-3.52,0Z" style="fill:#fff;fill-rule:nonzero;"/><path d="M58.09,369.099c-0.631,0 -1.122,-0.132 -1.474,-0.396c-0.345,-0.264 -0.587,-0.62 -0.726,-1.067c-0.132,-0.447 -0.198,-0.946 -0.198,-1.496l0,-3.146c0,-0.601 0.066,-1.126 0.198,-1.573c0.139,-0.447 0.381,-0.792 0.726,-1.034c0.352,-0.249 0.843,-0.374 1.474,-0.374c0.557,0 0.997,0.103 1.32,0.308c0.33,0.205 0.565,0.499 0.704,0.88c0.147,0.381 0.22,0.84 0.22,1.375l0,0.704l-1.177,0l0,-0.627c0,-0.33 -0.018,-0.62 -0.055,-0.869c-0.029,-0.257 -0.117,-0.455 -0.264,-0.594c-0.147,-0.139 -0.392,-0.209 -0.737,-0.209c-0.352,0 -0.609,0.077 -0.77,0.231c-0.161,0.147 -0.268,0.359 -0.319,0.638c-0.044,0.271 -0.066,0.59 -0.066,0.957l0,3.531c0,0.447 0.037,0.803 0.11,1.067c0.073,0.257 0.194,0.44 0.363,0.55c0.169,0.11 0.396,0.165 0.682,0.165c0.337,0 0.579,-0.073 0.726,-0.22c0.147,-0.154 0.238,-0.363 0.275,-0.627c0.037,-0.264 0.055,-0.572 0.055,-0.924l0,-0.66l1.177,0l0,0.66c0,0.543 -0.066,1.023 -0.198,1.441c-0.132,0.411 -0.359,0.733 -0.682,0.968c-0.323,0.227 -0.777,0.341 -1.364,0.341Zm3.428,-0.099l0,-8.91l1.243,0l0,8.019l2.277,0l0,0.891l-3.52,0Zm6.671,0.099c-0.645,0 -1.14,-0.128 -1.485,-0.385c-0.345,-0.257 -0.579,-0.616 -0.704,-1.078c-0.125,-0.469 -0.187,-1.016 -0.187,-1.639l0,-5.907l1.188,0l0,5.962c0,0.381 0.026,0.73 0.077,1.045c0.051,0.315 0.161,0.565 0.33,0.748c0.176,0.183 0.436,0.275 0.781,0.275c0.352,0 0.612,-0.092 0.781,-0.275c0.169,-0.183 0.279,-0.433 0.33,-0.748c0.051,-0.315 0.077,-0.664 0.077,-1.045l0,-5.962l1.177,0l0,5.907c0,0.623 -0.062,1.17 -0.187,1.639c-0.125,0.462 -0.359,0.821 -0.704,1.078c-0.337,0.257 -0.829,0.385 -1.474,0.385Zm3.674,-0.099l0,-8.91l2.046,0c0.403,0 0.752,0.044 1.045,0.132c0.301,0.088 0.55,0.224 0.748,0.407c0.198,0.183 0.345,0.418 0.44,0.704c0.095,0.279 0.143,0.609 0.143,0.99c0,0.367 -0.048,0.686 -0.143,0.957c-0.088,0.264 -0.227,0.473 -0.418,0.627c-0.183,0.154 -0.422,0.253 -0.715,0.297c0.359,0.081 0.649,0.22 0.869,0.418c0.22,0.191 0.381,0.44 0.484,0.748c0.11,0.301 0.165,0.664 0.165,1.089c0,0.381 -0.044,0.73 -0.132,1.045c-0.088,0.315 -0.227,0.583 -0.418,0.803c-0.183,0.22 -0.422,0.392 -0.715,0.517c-0.286,0.117 -0.627,0.176 -1.023,0.176l-2.376,0Zm1.243,-0.891l0.836,0c0.557,0 0.928,-0.128 1.111,-0.385c0.191,-0.264 0.286,-0.686 0.286,-1.265c0,-0.374 -0.051,-0.686 -0.154,-0.935c-0.095,-0.257 -0.253,-0.447 -0.473,-0.572c-0.213,-0.132 -0.502,-0.198 -0.869,-0.198l-0.737,0l0,3.355Zm0,-4.301l0.737,0c0.352,0 0.627,-0.048 0.825,-0.143c0.198,-0.103 0.337,-0.264 0.418,-0.484c0.081,-0.22 0.121,-0.506 0.121,-0.858c0,-0.411 -0.062,-0.708 -0.187,-0.891c-0.125,-0.183 -0.319,-0.297 -0.583,-0.341c-0.264,-0.051 -0.609,-0.077 -1.034,-0.077l-0.297,0l0,2.794Z" style="fill:#fff;fill-rule:nonzero;"/><path d="M513.418,193.11c-0.558,0 -1.005,-0.117 -1.342,-0.352c-0.33,-0.242 -0.572,-0.59 -0.726,-1.045c-0.147,-0.455 -0.22,-1.001 -0.22,-1.639l0,-2.981c0,-0.653 0.066,-1.206 0.198,-1.661c0.139,-0.462 0.381,-0.814 0.726,-1.056c0.352,-0.242 0.839,-0.363 1.463,-0.363c0.557,0 1.004,0.095 1.342,0.286c0.344,0.183 0.594,0.469 0.748,0.858c0.154,0.381 0.231,0.865 0.231,1.452l0,0.33l-1.166,0l0,-0.275c0,-0.389 -0.026,-0.704 -0.077,-0.946c-0.052,-0.249 -0.158,-0.433 -0.319,-0.55c-0.154,-0.125 -0.4,-0.187 -0.737,-0.187c-0.367,0 -0.635,0.084 -0.803,0.253c-0.162,0.169 -0.264,0.4 -0.308,0.693c-0.037,0.286 -0.055,0.612 -0.055,0.979l0,3.3c0,0.425 0.029,0.781 0.088,1.067c0.066,0.286 0.187,0.499 0.363,0.638c0.176,0.139 0.425,0.209 0.748,0.209c0.322,0 0.572,-0.077 0.748,-0.231c0.176,-0.154 0.297,-0.381 0.363,-0.682c0.066,-0.301 0.099,-0.675 0.099,-1.122l0,-0.616l-1.133,0l0,-0.88l2.255,0l0,4.411l-0.781,0l-0.121,-1.023c-0.118,0.33 -0.301,0.601 -0.55,0.814c-0.25,0.213 -0.594,0.319 -1.034,0.319Zm6.04,-0.011c-0.601,0 -1.081,-0.117 -1.441,-0.352c-0.359,-0.235 -0.616,-0.568 -0.77,-1.001c-0.154,-0.44 -0.231,-0.953 -0.231,-1.54l0,-3.377c0,-0.587 0.077,-1.089 0.231,-1.507c0.162,-0.425 0.418,-0.748 0.77,-0.968c0.36,-0.227 0.84,-0.341 1.441,-0.341c0.602,0 1.078,0.114 1.43,0.341c0.352,0.227 0.605,0.55 0.759,0.968c0.162,0.418 0.242,0.92 0.242,1.507l0,3.388c0,0.579 -0.08,1.085 -0.242,1.518c-0.154,0.433 -0.407,0.77 -0.759,1.012c-0.352,0.235 -0.828,0.352 -1.43,0.352Zm0,-0.979c0.33,0 0.58,-0.066 0.748,-0.198c0.169,-0.139 0.283,-0.33 0.341,-0.572c0.059,-0.249 0.088,-0.539 0.088,-0.869l0,-3.905c0,-0.33 -0.029,-0.612 -0.088,-0.847c-0.058,-0.242 -0.172,-0.425 -0.341,-0.55c-0.168,-0.132 -0.418,-0.198 -0.748,-0.198c-0.33,0 -0.583,0.066 -0.759,0.198c-0.168,0.125 -0.282,0.308 -0.341,0.55c-0.058,0.235 -0.088,0.517 -0.088,0.847l0,3.905c0,0.33 0.03,0.62 0.088,0.869c0.059,0.242 0.173,0.433 0.341,0.572c0.176,0.132 0.429,0.198 0.759,0.198Zm5.93,0.979c-0.601,0 -1.082,-0.117 -1.441,-0.352c-0.359,-0.235 -0.616,-0.568 -0.77,-1.001c-0.154,-0.44 -0.231,-0.953 -0.231,-1.54l0,-3.377c0,-0.587 0.077,-1.089 0.231,-1.507c0.161,-0.425 0.418,-0.748 0.77,-0.968c0.359,-0.227 0.84,-0.341 1.441,-0.341c0.601,0 1.078,0.114 1.43,0.341c0.352,0.227 0.605,0.55 0.759,0.968c0.161,0.418 0.242,0.92 0.242,1.507l0,3.388c0,0.579 -0.081,1.085 -0.242,1.518c-0.154,0.433 -0.407,0.77 -0.759,1.012c-0.352,0.235 -0.829,0.352 -1.43,0.352Zm0,-0.979c0.33,0 0.579,-0.066 0.748,-0.198c0.169,-0.139 0.282,-0.33 0.341,-0.572c0.059,-0.249 0.088,-0.539 0.088,-0.869l0,-3.905c0,-0.33 -0.029,-0.612 -0.088,-0.847c-0.059,-0.242 -0.172,-0.425 -0.341,-0.55c-0.169,-0.132 -0.418,-0.198 -0.748,-0.198c-0.33,0 -0.583,0.066 -0.759,0.198c-0.169,0.125 -0.282,0.308 -0.341,0.55c-0.059,0.235 -0.088,0.517 -0.088,0.847l0,3.905c0,0.33 0.029,0.62 0.088,0.869c0.059,0.242 0.172,0.433 0.341,0.572c0.176,0.132 0.429,0.198 0.759,0.198Zm3.653,0.88l0,-8.91l1.936,0c0.66,0 1.18,0.103 1.562,0.308c0.388,0.198 0.663,0.499 0.825,0.902c0.168,0.403 0.253,0.906 0.253,1.507l0,3.278c0,0.631 -0.085,1.162 -0.253,1.595c-0.162,0.433 -0.429,0.763 -0.803,0.99c-0.367,0.22 -0.862,0.33 -1.485,0.33l-2.035,0Zm1.243,-0.891l0.704,0c0.454,0 0.777,-0.088 0.968,-0.264c0.19,-0.176 0.304,-0.433 0.341,-0.77c0.044,-0.337 0.066,-0.744 0.066,-1.221l0,-2.893c0,-0.462 -0.03,-0.836 -0.088,-1.122c-0.059,-0.286 -0.187,-0.495 -0.385,-0.627c-0.198,-0.132 -0.51,-0.198 -0.935,-0.198l-0.671,0l0,7.095Zm5.713,0.891l-1.452,-8.91l1.034,0l0.957,6.402l1.199,-6.369l0.88,0l1.21,6.402l0.935,-6.435l1.012,0l-1.43,8.91l-0.902,0l-1.243,-6.6l-1.254,6.6l-0.946,0Zm9.049,0.099c-0.601,0 -1.081,-0.117 -1.441,-0.352c-0.359,-0.235 -0.616,-0.568 -0.77,-1.001c-0.154,-0.44 -0.231,-0.953 -0.231,-1.54l0,-3.377c0,-0.587 0.077,-1.089 0.231,-1.507c0.162,-0.425 0.418,-0.748 0.77,-0.968c0.36,-0.227 0.84,-0.341 1.441,-0.341c0.602,0 1.078,0.114 1.43,0.341c0.352,0.227 0.605,0.55 0.759,0.968c0.162,0.418 0.242,0.92 0.242,1.507l0,3.388c0,0.579 -0.08,1.085 -0.242,1.518c-0.154,0.433 -0.407,0.77 -0.759,1.012c-0.352,0.235 -0.828,0.352 -1.43,0.352Zm0,-0.979c0.33,0 0.58,-0.066 0.748,-0.198c0.169,-0.139 0.283,-0.33 0.341,-0.572c0.059,-0.249 0.088,-0.539 0.088,-0.869l0,-3.905c0,-0.33 -0.029,-0.612 -0.088,-0.847c-0.058,-0.242 -0.172,-0.425 -0.341,-0.55c-0.168,-0.132 -0.418,-0.198 -0.748,-0.198c-0.33,0 -0.583,0.066 -0.759,0.198c-0.168,0.125 -0.282,0.308 -0.341,0.55c-0.058,0.235 -0.088,0.517 -0.088,0.847l0,3.905c0,0.33 0.03,0.62 0.088,0.869c0.059,0.242 0.173,0.433 0.341,0.572c0.176,0.132 0.429,0.198 0.759,0.198Zm5.93,0.979c-0.601,0 -1.082,-0.117 -1.441,-0.352c-0.359,-0.235 -0.616,-0.568 -0.77,-1.001c-0.154,-0.44 -0.231,-0.953 -0.231,-1.54l0,-3.377c0,-0.587 0.077,-1.089 0.231,-1.507c0.161,-0.425 0.418,-0.748 0.77,-0.968c0.359,-0.227 0.84,-0.341 1.441,-0.341c0.601,0 1.078,0.114 1.43,0.341c0.352,0.227 0.605,0.55 0.759,0.968c0.161,0.418 0.242,0.92 0.242,1.507l0,3.388c0,0.579 -0.081,1.085 -0.242,1.518c-0.154,0.433 -0.407,0.77 -0.759,1.012c-0.352,0.235 -0.829,0.352 -1.43,0.352Zm0,-0.979c0.33,0 0.579,-0.066 0.748,-0.198c0.169,-0.139 0.282,-0.33 0.341,-0.572c0.059,-0.249 0.088,-0.539 0.088,-0.869l0,-3.905c0,-0.33 -0.029,-0.612 -0.088,-0.847c-0.059,-0.242 -0.172,-0.425 -0.341,-0.55c-0.169,-0.132 -0.418,-0.198 -0.748,-0.198c-0.33,0 -0.583,0.066 -0.759,0.198c-0.169,0.125 -0.282,0.308 -0.341,0.55c-0.059,0.235 -0.088,0.517 -0.088,0.847l0,3.905c0,0.33 0.029,0.62 0.088,0.869c0.059,0.242 0.172,0.433 0.341,0.572c0.176,0.132 0.429,0.198 0.759,0.198Zm3.653,0.88l0,-8.91l1.936,0c0.66,0 1.18,0.103 1.562,0.308c0.388,0.198 0.663,0.499 0.825,0.902c0.168,0.403 0.253,0.906 0.253,1.507l0,3.278c0,0.631 -0.085,1.162 -0.253,1.595c-0.162,0.433 -0.429,0.763 -0.803,0.99c-0.367,0.22 -0.862,0.33 -1.485,0.33l-2.035,0Zm1.243,-0.891l0.704,0c0.454,0 0.777,-0.088 0.968,-0.264c0.19,-0.176 0.304,-0.433 0.341,-0.77c0.044,-0.337 0.066,-0.744 0.066,-1.221l0,-2.893c0,-0.462 -0.03,-0.836 -0.088,-1.122c-0.059,-0.286 -0.187,-0.495 -0.385,-0.627c-0.198,-0.132 -0.51,-0.198 -0.935,-0.198l-0.671,0l0,7.095Z" style="fill:#fff;fill-rule:nonzero;"/><path d="M226,94c2.761,0 5,-2.239 5,-5c0,-2.761 -2.239,-5 -5,-5c-2.761,0 -5,2.239 -5,5c0,2.761 2.239,5 5,5Z" style="fill:#fff;fill-rule:nonzero;"/><path d="M217.362,111.099c-0.631,0 -1.122,-0.132 -1.474,-0.396c-0.345,-0.264 -0.587,-0.62 -0.726,-1.067c-0.132,-0.447 -0.198,-0.946 -0.198,-1.496l0,-3.146c0,-0.601 0.066,-1.126 0.198,-1.573c0.139,-0.447 0.381,-0.792 0.726,-1.034c0.352,-0.249 0.843,-0.374 1.474,-0.374c0.557,0 0.997,0.103 1.32,0.308c0.33,0.205 0.565,0.499 0.704,0.88c0.147,0.381 0.22,0.84 0.22,1.375l0,0.704l-1.177,0l0,-0.627c0,-0.33 -0.018,-0.62 -0.055,-0.869c-0.029,-0.257 -0.117,-0.455 -0.264,-0.594c-0.147,-0.139 -0.392,-0.209 -0.737,-0.209c-0.352,0 -0.609,0.077 -0.77,0.231c-0.161,0.147 -0.268,0.359 -0.319,0.638c-0.044,0.271 -0.066,0.59 -0.066,0.957l0,3.531c0,0.447 0.037,0.803 0.11,1.067c0.073,0.257 0.194,0.44 0.363,0.55c0.169,0.11 0.396,0.165 0.682,0.165c0.337,0 0.579,-0.073 0.726,-0.22c0.147,-0.154 0.238,-0.363 0.275,-0.627c0.037,-0.264 0.055,-0.572 0.055,-0.924l0,-0.66l1.177,0l0,0.66c0,0.543 -0.066,1.023 -0.198,1.441c-0.132,0.411 -0.359,0.733 -0.682,0.968c-0.323,0.227 -0.777,0.341 -1.364,0.341Zm5.705,0c-0.601,0 -1.081,-0.117 -1.441,-0.352c-0.359,-0.235 -0.616,-0.568 -0.77,-1.001c-0.154,-0.44 -0.231,-0.953 -0.231,-1.54l0,-3.377c0,-0.587 0.077,-1.089 0.231,-1.507c0.162,-0.425 0.418,-0.748 0.77,-0.968c0.36,-0.227 0.84,-0.341 1.441,-0.341c0.602,0 1.078,0.114 1.43,0.341c0.352,0.227 0.605,0.55 0.759,0.968c0.162,0.418 0.242,0.92 0.242,1.507l0,3.388c0,0.579 -0.08,1.085 -0.242,1.518c-0.154,0.433 -0.407,0.77 -0.759,1.012c-0.352,0.235 -0.828,0.352 -1.43,0.352Zm0,-0.979c0.33,0 0.58,-0.066 0.748,-0.198c0.169,-0.139 0.283,-0.33 0.341,-0.572c0.059,-0.249 0.088,-0.539 0.088,-0.869l0,-3.905c0,-0.33 -0.029,-0.612 -0.088,-0.847c-0.058,-0.242 -0.172,-0.425 -0.341,-0.55c-0.168,-0.132 -0.418,-0.198 -0.748,-0.198c-0.33,0 -0.583,0.066 -0.759,0.198c-0.168,0.125 -0.282,0.308 -0.341,0.55c-0.058,0.235 -0.088,0.517 -0.088,0.847l0,3.905c0,0.33 0.03,0.62 0.088,0.869c0.059,0.242 0.173,0.433 0.341,0.572c0.176,0.132 0.429,0.198 0.759,0.198Zm3.653,0.88l0,-8.91l2.046,0c0.403,0 0.752,0.044 1.045,0.132c0.301,0.088 0.55,0.224 0.748,0.407c0.198,0.183 0.345,0.418 0.44,0.704c0.095,0.279 0.143,0.609 0.143,0.99c0,0.367 -0.048,0.686 -0.143,0.957c-0.088,0.264 -0.227,0.473 -0.418,0.627c-0.183,0.154 -0.422,0.253 -0.715,0.297c0.359,0.081 0.649,0.22 0.869,0.418c0.22,0.191 0.381,0.44 0.484,0.748c0.11,0.301 0.165,0.664 0.165,1.089c0,0.381 -0.044,0.73 -0.132,1.045c-0.088,0.315 -0.227,0.583 -0.418,0.803c-0.183,0.22 -0.422,0.392 -0.715,0.517c-0.286,0.117 -0.627,0.176 -1.023,0.176l-2.376,0Zm1.243,-0.891l0.836,0c0.557,0 0.928,-0.128 1.111,-0.385c0.191,-0.264 0.286,-0.686 0.286,-1.265c0,-0.374 -0.051,-0.686 -0.154,-0.935c-0.095,-0.257 -0.253,-0.447 -0.473,-0.572c-0.213,-0.132 -0.502,-0.198 -0.869,-0.198l-0.737,0l0,3.355Zm0,-4.301l0.737,0c0.352,0 0.627,-0.048 0.825,-0.143c0.198,-0.103 0.337,-0.264 0.418,-0.484c0.081,-0.22 0.121,-0.506 0.121,-0.858c0,-0.411 -0.062,-0.708 -0.187,-0.891c-0.125,-0.183 -0.319,-0.297 -0.583,-0.341c-0.264,-0.051 -0.609,-0.077 -1.034,-0.077l-0.297,0l0,2.794Zm4.525,5.192l0,-8.91l2.046,0c0.404,0 0.752,0.044 1.045,0.132c0.301,0.088 0.55,0.224 0.748,0.407c0.198,0.183 0.345,0.418 0.44,0.704c0.096,0.279 0.143,0.609 0.143,0.99c0,0.367 -0.047,0.686 -0.143,0.957c-0.088,0.264 -0.227,0.473 -0.418,0.627c-0.183,0.154 -0.421,0.253 -0.715,0.297c0.36,0.081 0.649,0.22 0.869,0.418c0.22,0.191 0.382,0.44 0.484,0.748c0.11,0.301 0.165,0.664 0.165,1.089c0,0.381 -0.044,0.73 -0.132,1.045c-0.088,0.315 -0.227,0.583 -0.418,0.803c-0.183,0.22 -0.421,0.392 -0.715,0.517c-0.286,0.117 -0.627,0.176 -1.023,0.176l-2.376,0Zm1.243,-0.891l0.836,0c0.558,0 0.928,-0.128 1.111,-0.385c0.191,-0.264 0.286,-0.686 0.286,-1.265c0,-0.374 -0.051,-0.686 -0.154,-0.935c-0.095,-0.257 -0.253,-0.447 -0.473,-0.572c-0.212,-0.132 -0.502,-0.198 -0.869,-0.198l-0.737,0l0,3.355Zm0,-4.301l0.737,0c0.352,0 0.627,-0.048 0.825,-0.143c0.198,-0.103 0.338,-0.264 0.418,-0.484c0.081,-0.22 0.121,-0.506 0.121,-0.858c0,-0.411 -0.062,-0.708 -0.187,-0.891c-0.124,-0.183 -0.319,-0.297 -0.583,-0.341c-0.264,-0.051 -0.608,-0.077 -1.034,-0.077l-0.297,0l0,2.794Z" style="fill:#fff;fill-rule:nonzero;"/><path d="M475,380c2.761,0 5,-2.239 5,-5c0,-2.761 -2.239,-5 -5,-5c-2.761,0 -5,2.239 -5,5c0,2.761 2.239,5 5,5Z" style="fill:#fff;fill-rule:nonzero;"/><path d="M491.26,379.099c-0.63,0 -1.122,-0.132 -1.474,-0.396c-0.344,-0.264 -0.586,-0.62 -0.726,-1.067c-0.132,-0.447 -0.198,-0.946 -0.198,-1.496l0,-3.146c0,-0.601 0.066,-1.126 0.198,-1.573c0.14,-0.447 0.382,-0.792 0.726,-1.034c0.352,-0.249 0.844,-0.374 1.474,-0.374c0.558,0 0.998,0.103 1.32,0.308c0.33,0.205 0.565,0.499 0.704,0.88c0.147,0.381 0.22,0.84 0.22,1.375l0,0.704l-1.177,0l0,-0.627c0,-0.33 -0.018,-0.62 -0.055,-0.869c-0.029,-0.257 -0.117,-0.455 -0.264,-0.594c-0.146,-0.139 -0.392,-0.209 -0.737,-0.209c-0.352,0 -0.608,0.077 -0.77,0.231c-0.161,0.147 -0.267,0.359 -0.319,0.638c-0.044,0.271 -0.066,0.59 -0.066,0.957l0,3.531c0,0.447 0.037,0.803 0.11,1.067c0.074,0.257 0.195,0.44 0.363,0.55c0.169,0.11 0.396,0.165 0.682,0.165c0.338,0 0.58,-0.073 0.726,-0.22c0.147,-0.154 0.239,-0.363 0.275,-0.627c0.037,-0.264 0.055,-0.572 0.055,-0.924l0,-0.66l1.177,0l0,0.66c0,0.543 -0.066,1.023 -0.198,1.441c-0.132,0.411 -0.359,0.733 -0.682,0.968c-0.322,0.227 -0.777,0.341 -1.364,0.341Zm3.429,-0.099l0,-8.91l1.243,0l0,3.85l2.288,0l0,-3.85l1.243,0l0,8.91l-1.243,0l0,-4.169l-2.288,0l0,4.169l-1.243,0Zm8.465,0.099c-0.646,0 -1.141,-0.128 -1.485,-0.385c-0.345,-0.257 -0.58,-0.616 -0.704,-1.078c-0.125,-0.469 -0.187,-1.016 -0.187,-1.639l0,-5.907l1.188,0l0,5.962c0,0.381 0.025,0.73 0.077,1.045c0.051,0.315 0.161,0.565 0.33,0.748c0.176,0.183 0.436,0.275 0.781,0.275c0.352,0 0.612,-0.092 0.781,-0.275c0.168,-0.183 0.278,-0.433 0.33,-0.748c0.051,-0.315 0.077,-0.664 0.077,-1.045l0,-5.962l1.177,0l0,5.907c0,0.623 -0.063,1.17 -0.187,1.639c-0.125,0.462 -0.36,0.821 -0.704,1.078c-0.338,0.257 -0.829,0.385 -1.474,0.385Zm3.673,-0.099l0,-8.91l1.793,0c0.594,0 1.086,0.081 1.474,0.242c0.389,0.154 0.675,0.407 0.858,0.759c0.191,0.345 0.286,0.799 0.286,1.364c0,0.345 -0.036,0.66 -0.11,0.946c-0.073,0.279 -0.19,0.517 -0.352,0.715c-0.161,0.191 -0.374,0.33 -0.638,0.418l1.265,4.466l-1.199,0l-1.166,-4.18l-0.968,0l0,4.18l-1.243,0Zm1.243,-5.071l0.473,0c0.352,0 0.638,-0.044 0.858,-0.132c0.22,-0.088 0.382,-0.238 0.484,-0.451c0.103,-0.213 0.154,-0.51 0.154,-0.891c0,-0.521 -0.095,-0.895 -0.286,-1.122c-0.19,-0.235 -0.568,-0.352 -1.133,-0.352l-0.55,0l0,2.948Zm6.694,5.17c-0.63,0 -1.122,-0.132 -1.474,-0.396c-0.344,-0.264 -0.586,-0.62 -0.726,-1.067c-0.132,-0.447 -0.198,-0.946 -0.198,-1.496l0,-3.146c0,-0.601 0.066,-1.126 0.198,-1.573c0.14,-0.447 0.382,-0.792 0.726,-1.034c0.352,-0.249 0.844,-0.374 1.474,-0.374c0.558,0 0.998,0.103 1.32,0.308c0.33,0.205 0.565,0.499 0.704,0.88c0.147,0.381 0.22,0.84 0.22,1.375l0,0.704l-1.177,0l0,-0.627c0,-0.33 -0.018,-0.62 -0.055,-0.869c-0.029,-0.257 -0.117,-0.455 -0.264,-0.594c-0.146,-0.139 -0.392,-0.209 -0.737,-0.209c-0.352,0 -0.608,0.077 -0.77,0.231c-0.161,0.147 -0.267,0.359 -0.319,0.638c-0.044,0.271 -0.066,0.59 -0.066,0.957l0,3.531c0,0.447 0.037,0.803 0.11,1.067c0.074,0.257 0.195,0.44 0.363,0.55c0.169,0.11 0.396,0.165 0.682,0.165c0.338,0 0.58,-0.073 0.726,-0.22c0.147,-0.154 0.239,-0.363 0.275,-0.627c0.037,-0.264 0.055,-0.572 0.055,-0.924l0,-0.66l1.177,0l0,0.66c0,0.543 -0.066,1.023 -0.198,1.441c-0.132,0.411 -0.359,0.733 -0.682,0.968c-0.322,0.227 -0.777,0.341 -1.364,0.341Zm3.429,-0.099l0,-8.91l1.243,0l0,3.85l2.288,0l0,-3.85l1.243,0l0,8.91l-1.243,0l0,-4.169l-2.288,0l0,4.169l-1.243,0Z" style="fill:#fff;fill-rule:nonzero;"/><path d="M415,156c2.761,0 5,-2.239 5,-5c0,-2.761 -2.239,-5 -5,-5c-2.761,0 -5,2.239 -5,5c0,2.761 2.239,5 5,5Z" style="fill:#fff;fill-rule:nonzero;"/><path d="M403.012,172l0,-8.91l0.847,0l2.53,5.918l0,-5.918l1.034,0l0,8.91l-0.792,0l-2.563,-6.083l0,6.083l-1.056,0Zm8.089,0.099c-0.601,0 -1.082,-0.117 -1.441,-0.352c-0.359,-0.235 -0.616,-0.568 -0.77,-1.001c-0.154,-0.44 -0.231,-0.953 -0.231,-1.54l0,-3.377c0,-0.587 0.077,-1.089 0.231,-1.507c0.161,-0.425 0.418,-0.748 0.77,-0.968c0.359,-0.227 0.84,-0.341 1.441,-0.341c0.601,0 1.078,0.114 1.43,0.341c0.352,0.227 0.605,0.55 0.759,0.968c0.161,0.418 0.242,0.92 0.242,1.507l0,3.388c0,0.579 -0.081,1.085 -0.242,1.518c-0.154,0.433 -0.407,0.77 -0.759,1.012c-0.352,0.235 -0.829,0.352 -1.43,0.352Zm0,-0.979c0.33,0 0.579,-0.066 0.748,-0.198c0.169,-0.139 0.282,-0.33 0.341,-0.572c0.059,-0.249 0.088,-0.539 0.088,-0.869l0,-3.905c0,-0.33 -0.029,-0.612 -0.088,-0.847c-0.059,-0.242 -0.172,-0.425 -0.341,-0.55c-0.169,-0.132 -0.418,-0.198 -0.748,-0.198c-0.33,0 -0.583,0.066 -0.759,0.198c-0.169,0.125 -0.282,0.308 -0.341,0.55c-0.059,0.235 -0.088,0.517 -0.088,0.847l0,3.905c0,0.33 0.029,0.62 0.088,0.869c0.059,0.242 0.172,0.433 0.341,0.572c0.176,0.132 0.429,0.198 0.759,0.198Zm3.653,0.88l0,-8.91l2.046,0c0.403,0 0.751,0.044 1.045,0.132c0.3,0.088 0.55,0.224 0.748,0.407c0.198,0.183 0.344,0.418 0.44,0.704c0.095,0.279 0.143,0.609 0.143,0.99c0,0.367 -0.048,0.686 -0.143,0.957c-0.088,0.264 -0.228,0.473 -0.418,0.627c-0.184,0.154 -0.422,0.253 -0.715,0.297c0.359,0.081 0.649,0.22 0.869,0.418c0.22,0.191 0.381,0.44 0.484,0.748c0.11,0.301 0.165,0.664 0.165,1.089c0,0.381 -0.044,0.73 -0.132,1.045c-0.088,0.315 -0.228,0.583 -0.418,0.803c-0.184,0.22 -0.422,0.392 -0.715,0.517c-0.286,0.117 -0.627,0.176 -1.023,0.176l-2.376,0Zm1.243,-0.891l0.836,0c0.557,0 0.927,-0.128 1.111,-0.385c0.19,-0.264 0.286,-0.686 0.286,-1.265c0,-0.374 -0.052,-0.686 -0.154,-0.935c-0.096,-0.257 -0.253,-0.447 -0.473,-0.572c-0.213,-0.132 -0.503,-0.198 -0.869,-0.198l-0.737,0l0,3.355Zm0,-4.301l0.737,0c0.352,0 0.627,-0.048 0.825,-0.143c0.198,-0.103 0.337,-0.264 0.418,-0.484c0.08,-0.22 0.121,-0.506 0.121,-0.858c0,-0.411 -0.063,-0.708 -0.187,-0.891c-0.125,-0.183 -0.319,-0.297 -0.583,-0.341c-0.264,-0.051 -0.609,-0.077 -1.034,-0.077l-0.297,0l0,2.794Zm4.525,5.192l0,-8.91l1.243,0l0,8.019l2.277,0l0,0.891l-3.52,0Zm4.372,0l0,-8.91l3.454,0l0,0.924l-2.211,0l0,2.948l1.793,0l0,0.88l-1.793,0l0,3.267l2.233,0l0,0.891l-3.476,0Z" style="fill:#fff;fill-rule:nonzero;"/><path d="M22.262,272.907l-6.242,-4.395c-0.437,-0.306 -1.053,-0.201 -1.358,0.237l-4.395,6.241c-0.287,0.46 -0.157,1.071 0.303,1.358c0.429,0.267 0.994,0.173 1.295,-0.224l3.822,-5.441l5.441,3.822c0.43,0.333 1.038,0.256 1.372,-0.174c0.334,-0.43 0.257,-1.038 -0.173,-1.371c-0.018,-0.023 -0.036,-0.046 -0.064,-0.053Z" style="fill:#eee;fill-rule:nonzero;"/><path d="M17.466,274.782c-0.437,-0.305 -1.053,-0.201 -1.358,0.237l-4.395,6.241c-0.287,0.461 -0.157,1.071 0.303,1.358c0.429,0.267 0.994,0.173 1.295,-0.224l3.822,-5.441l5.441,3.822c0.46,0.287 1.067,0.144 1.357,-0.303c0.267,-0.43 0.173,-0.994 -0.223,-1.295l-6.242,-4.395Z" style="fill:#eee;fill-rule:nonzero;"/><path d="M19.319,260.125l-6.242,-4.395c-0.45,-0.303 -1.053,-0.2 -1.371,0.24l-4.395,6.241c-0.287,0.46 -0.157,1.07 0.303,1.358c0.429,0.267 0.994,0.173 1.307,-0.226l3.822,-5.442l5.442,3.822c0.43,0.333 1.038,0.257 1.372,-0.173c0.336,-0.418 0.269,-1.042 -0.161,-1.375c-0.031,-0.02 -0.062,-0.04 -0.077,-0.05Z" style="fill:#eee;fill-rule:nonzero;"/><path d="M14.523,262c-0.437,-0.305 -1.053,-0.2 -1.358,0.237l-4.395,6.242c-0.287,0.46 -0.157,1.07 0.303,1.357c0.429,0.267 0.994,0.173 1.295,-0.223l3.835,-5.444l5.441,3.821c0.46,0.287 1.067,0.144 1.357,-0.303c0.267,-0.429 0.16,-0.991 -0.236,-1.292l-6.242,-4.395Z" style="fill:#eee;fill-rule:nonzero;"/><path d="M158,66c2.761,0 5,-2.239 5,-5c0,-2.761 -2.239,-5 -5,-5c-2.761,0 -5,2.239 -5,5c0,2.761 2.239,5 5,5Z" style="fill:#fff;fill-rule:nonzero;"/></g></g></svg>